<svg width="457" height="457" viewBox="0 0 457 457" fill="none" xmlns="http://www.w3.org/2000/svg">
<mask id="mask0_76_158" style="mask-type:alpha" maskUnits="userSpaceOnUse" x="0" y="0" width="457" height="457">
<rect x="1" y="1" width="455" height="455" fill="#FFE7E7" stroke="black" stroke-width="2"/>
</mask>
<g mask="url(#mask0_76_158)">
<rect width="457" height="457" fill="#FFE7E7"/>
<rect x="1" y="291" width="456" height="166" fill="#D9D9D9"/>
<path d="M2.5 290H455" stroke="black" stroke-width="2"/>
<rect x="50" y="267" width="356" height="28" rx="7" fill="white" stroke="black" stroke-width="2"/>
<path d="M361.876 278.169C353.209 279.169 327.376 281.669 295.376 269.669L235 268C226.29 286 205 290 183 286C161 282 140.376 262.669 91.876 277.169C64.6249 285.316 72.376 266.169 67.376 260.169C62.376 254.169 70.6216 245.468 98.376 249.169C120.876 252.169 135.709 244.502 138.376 242.169C117.876 224.169 115.876 207.669 132.876 197.169C149.876 186.669 179.239 163.969 229.239 163.169C291.739 162.169 332.876 165.169 349.876 184.169C366.876 203.169 389.376 242.169 349.876 263.628C358.17 268.431 366.324 274.833 361.876 278.169Z" fill="white"/>
<path d="M295.376 269.669C255.376 254.669 257.876 234.169 278.876 216.169C299.876 198.169 342.876 200.169 349.876 216.169C355.876 231.169 343.876 242.169 319.876 248.169C330.532 253.497 341.582 258.825 349.876 263.628M295.376 269.669C327.376 281.669 353.209 279.169 361.876 278.169C366.324 274.833 358.17 268.431 349.876 263.628M295.376 269.669L235 268M213.376 178.169C223.376 186.169 235.5 207 238 221.5C240.5 236 242.5 252.5 235 268M138.376 242.169C117.876 224.169 115.876 207.669 132.876 197.169C149.876 186.669 179.239 163.969 229.239 163.169C291.739 162.169 332.876 165.169 349.876 184.169C366.876 203.169 389.376 242.169 349.876 263.628M138.376 242.169C150.376 232.169 168.376 219.169 191.376 223.169M138.376 242.169C135.709 244.502 120.876 252.169 98.376 249.169C70.6216 245.468 62.376 254.169 67.376 260.169C72.376 266.169 64.6249 285.316 91.876 277.169C140.376 262.669 161 282 183 286C205 290 226.29 286 235 268" stroke="black" stroke-width="2"/>
<rect x="1" y="1" width="455" height="455" stroke="black" stroke-width="2"/>
</g>
</svg>
