<svg width="457" height="457" viewBox="0 0 457 457" fill="none" xmlns="http://www.w3.org/2000/svg">
<mask id="mask0_76_182" style="mask-type:alpha" maskUnits="userSpaceOnUse" x="0" y="0" width="457" height="457">
<rect x="1" y="1" width="455" height="455" fill="#FFE7E7" stroke="black" stroke-width="2"/>
</mask>
<g mask="url(#mask0_76_182)">
<rect width="457" height="457" fill="#FFE7E7"/>
<rect x="-22.664" y="171.625" width="438.536" height="293.078" rx="31" transform="rotate(-25.8616 -22.664 171.625)" fill="#D9D9D9" stroke="black" stroke-width="2"/>
<path d="M317.024 119.966C329.388 126.459 344.199 140.726 353.088 158.239C361.978 175.753 361.75 186.97 362.532 201.472C363.315 215.975 349.105 237.235 352.557 244.035C356.009 250.836 368.161 239.405 382.181 240.183C396.968 241.004 391.419 249.31 374.992 266.201C358.565 283.091 331.684 306.604 315.138 303.818C298.592 301.032 323.278 273.193 320.576 248.426C301.22 258.251 288.83 263.882 263 272.387C263.61 298.216 264.276 309.897 255.72 326.74C247.164 343.583 212.729 355.796 188.639 352.87C164.549 349.944 147.204 353.333 136.516 360.284C125.828 367.234 115.461 346.717 123.77 343.14C132.079 339.563 146.011 333.508 155.741 326.74C165.472 319.972 175.722 311.407 181.285 303.226C169.118 300.63 150.462 295.641 136.516 268.166C122.57 240.691 131.97 223.553 136.698 211.495C121.529 204.76 108.404 205.881 96.2352 205.526C84.0664 205.17 68.6321 211.549 61.6819 213.866C54.7317 216.183 45.6572 205.546 50.5616 198.576C55.466 191.605 79.7547 195.905 96.2352 172.165C112.716 148.424 131.522 136.49 150.676 136.637C169.829 136.784 185.111 147.448 205.381 158.87C218.62 146.173 241.891 131.794 255.112 123.343C238.836 115.343 188.8 106.759 212.036 87.7288C235.271 68.6983 283.549 69.1937 283.549 69.1937C297.585 69.6732 310.743 69.7126 298.172 82.8243C287.112 94.3591 276.465 96.7154 281.662 104.362C286.859 112.008 306.831 114.613 317.024 119.966Z" fill="white" stroke="black" stroke-width="2"/>
<line x1="188.356" y1="118.4" x2="297.4" y2="318.644" stroke="black" stroke-width="2" stroke-linecap="round" stroke-dasharray="13 13"/>
<rect x="1" y="1" width="455" height="455" stroke="black" stroke-width="2"/>
<path d="M237 257.189C237 272.734 223.117 295.783 207.098 310.256C191.08 324.728 180.935 324.192 180.935 324.192L183.604 481.784L141.422 485C141.422 485 147.829 334.913 145.16 324.192C142.49 313.472 138.218 307.575 129.675 291.495C121.132 275.414 116.86 216.451 120.064 207.875C123.267 199.298 141.422 257.189 141.422 257.189C141.422 257.189 138.218 186.433 145.16 183.753C152.101 181.073 158.509 252.365 158.509 252.365C158.509 252.365 167.586 163.384 175.595 169.281C183.604 175.177 175.595 252.365 175.595 252.365C175.595 252.365 199.623 181.609 209.768 181.073C219.913 180.537 199.623 263.085 199.623 272.734C209.768 283.99 237 241.644 237 257.189Z" fill="white" stroke="black" stroke-width="2"/>
<path d="M314.146 313.785L243 144.974L294.646 104L372.36 283.191L414.5 382.074L392.609 393L349.5 295.5L314.146 313.785Z" fill="white"/>
<path d="M372.36 283.191L294.646 104L243 144.974L314.146 313.785L349.5 295.5M372.36 283.191L414.5 382.074L392.609 393L349.5 295.5M372.36 283.191L349.5 295.5" stroke="black" stroke-width="2"/>
<path d="M346.427 308.343C346.427 302.281 356.047 296.825 365.668 294.4C370.973 293.063 375.18 292.832 378.896 293.097C381.919 293.312 384.617 293.856 387.314 294.4C393.327 295.612 405.954 316.831 414.973 328.955C423.992 341.08 430.005 356.236 430.005 356.236L474.5 421.708V489L405.956 385.525L413.572 381.693L398.884 346.106C398.884 346.106 378.422 335.579 378.896 315.012C378.626 313.193 346.427 314.406 346.427 308.343Z" fill="white"/>
<path d="M338.61 328.955C336.806 322.287 357.72 314.218 357.72 314.218L360.126 320.28C360.126 320.28 378.896 326.53 378.896 333.805C378.896 340.777 360.672 338.84 359.154 338.667C368.607 339.779 387.314 343.856 387.314 351.386C387.765 355.933 377.388 356.387 372.175 356.33C379.765 356.799 391.575 359.127 394.53 365.935C395.509 368.502 393.746 369.651 390.923 370.034C393.633 370.853 395.901 372.055 396.935 373.816C400.542 379.963 396.935 379.272 396.935 379.272C396.935 379.272 366.269 382.303 362.662 376.241C359.054 370.179 374.687 368.333 374.687 368.333C374.687 368.333 354.244 367.148 354.244 362.298C354.244 357.448 368.073 356.236 368.073 356.236C368.073 356.236 348.231 353.811 346.427 347.748C344.623 341.686 359.054 338.655 359.054 338.655C359.054 338.655 340.414 335.624 338.61 328.955Z" fill="white"/>
<path d="M398.884 346.106C398.884 346.106 378.422 335.579 378.896 315.012C378.626 313.193 346.427 314.406 346.427 308.343C346.427 302.281 356.047 296.825 365.668 294.4C370.973 293.063 375.18 292.832 378.896 293.097C381.919 293.312 384.617 293.856 387.314 294.4C393.327 295.612 405.954 316.831 414.973 328.955C423.992 341.08 430.005 356.236 430.005 356.236L474.5 421.708V489L405.956 385.525L413.572 381.693L398.884 346.106ZM398.884 346.106L409.431 347.748M359.054 338.655C359.054 338.655 340.414 335.624 338.61 328.955C336.806 322.287 357.72 314.218 357.72 314.218L360.126 320.28C360.126 320.28 378.896 326.53 378.896 333.805C378.896 341.08 359.054 338.655 359.054 338.655ZM359.054 338.655C359.054 338.655 344.623 341.686 346.427 347.748C348.231 353.811 368.073 356.236 368.073 356.236M359.054 338.655C368.474 339.75 387.314 343.83 387.314 351.386C387.915 357.448 369.276 356.236 369.276 356.236M368.073 356.236C368.073 356.236 354.244 357.448 354.244 362.298C354.244 367.148 374.687 368.333 374.687 368.333M368.073 356.236H369.276M369.276 356.236C376.291 356.236 391.162 358.175 394.53 365.935C397.536 373.816 374.687 368.333 374.687 368.333M374.687 368.333C374.687 368.333 359.054 370.179 362.662 376.241C366.269 382.303 396.935 379.272 396.935 379.272C396.935 379.272 400.542 379.963 396.935 373.816C393.327 367.669 374.687 368.333 374.687 368.333Z" stroke="black" stroke-width="2"/>
</g>
</svg>
