<svg width="457" height="457" viewBox="0 0 457 457" fill="none" xmlns="http://www.w3.org/2000/svg">
<mask id="mask0_76_172" style="mask-type:alpha" maskUnits="userSpaceOnUse" x="0" y="0" width="457" height="457">
<rect x="1" y="1" width="455" height="455" fill="#FFE7E7" stroke="black" stroke-width="2"/>
</mask>
<g mask="url(#mask0_76_172)">
<rect width="457" height="457" fill="#FFE7E7"/>
<rect x="1" y="197" width="456" height="24" fill="#D9D9D9"/>
<rect x="1" y="414" width="456" height="43" fill="#D9D9D9"/>
<path d="M2.5 196H455" stroke="black" stroke-width="2"/>
<path d="M2.5 220H455" stroke="black" stroke-width="2"/>
<path d="M2.5 413H455" stroke="black" stroke-width="2"/>
<rect x="50" y="173" width="356" height="28" rx="7" fill="white" stroke="black" stroke-width="2"/>
<rect x="50" y="390" width="356" height="28" rx="7" fill="white" stroke="black" stroke-width="2"/>
<path d="M361.876 184.169C353.209 185.169 327.376 187.669 295.376 175.669L235 174C226.29 192 205 196 183 192C161 188 140.376 168.669 91.876 183.169C64.6249 191.316 72.376 172.169 67.376 166.169C62.376 160.169 70.6216 151.468 98.376 155.169C120.876 158.169 135.709 150.502 138.376 148.169C117.876 130.169 115.876 113.669 132.876 103.169C149.876 92.6688 174.5 69.9689 224.5 69.1689L243 103.169L261.5 69.1689C309.63 69.5174 335.334 73.9156 349.876 90.1686C366.876 109.169 389.376 148.169 349.876 169.628C358.17 174.431 366.324 180.833 361.876 184.169Z" fill="white"/>
<path d="M295.376 175.669C255.376 160.669 257.876 140.169 278.876 122.169C299.876 104.169 342.876 106.169 349.876 122.169C355.876 137.169 343.876 148.169 319.876 154.169C330.532 159.497 341.582 164.825 349.876 169.628M295.376 175.669C327.376 187.669 353.209 185.169 361.876 184.169C366.324 180.833 358.17 174.431 349.876 169.628M295.376 175.669L235 174M213.376 84.1688C223.376 92.1688 235.5 113 238 127.5C240.5 142 242.5 158.5 235 174M138.376 148.169C117.876 130.169 115.876 113.669 132.876 103.169C149.876 92.6688 174.5 69.9689 224.5 69.1689L243 103.169L261.5 69.1689C309.63 69.5174 335.334 73.9156 349.876 90.1686C366.876 109.169 389.376 148.169 349.876 169.628M138.376 148.169C150.376 138.169 168.376 125.169 191.376 129.169M138.376 148.169C135.709 150.502 120.876 158.169 98.376 155.169C70.6216 151.468 62.376 160.169 67.376 166.169C72.376 172.169 64.6249 191.316 91.876 183.169C140.376 168.669 161 188 183 192C205 196 226.29 192 235 174" stroke="black" stroke-width="2"/>
<path d="M243.096 107C241.096 140 229.096 134 208.096 141.5C187.096 149 167.096 152 174.596 161C182.096 170 206.096 174.5 236.596 173" stroke="#5A5A5A" stroke-width="2" stroke-dasharray="8 8"/>
<path d="M372.893 402.81C364.263 401.533 338.663 397.262 310.859 377.388C310.859 377.388 283.5 365.5 265.5 353.5C247.5 341.5 233.793 332.006 233 321.441C232.207 310.876 275.032 319.321 281.5 314.5C287.968 309.679 305.701 265.749 305.701 265.749C352.101 278.543 375.791 289.444 385.631 308.907C397.134 331.66 408.774 375.154 365.065 385.659C371.833 392.445 378.053 400.739 372.893 402.81Z" fill="white"/>
<path d="M310.859 377.388C276.104 352.547 283.825 333.392 308.768 321.441C333.711 309.489 374.728 322.55 377.349 339.817C379.262 355.859 364.824 363.378 340.089 362.962C349.003 370.867 358.298 378.873 365.065 385.659M310.859 377.388C338.663 397.262 364.263 401.533 372.893 402.81C378.053 400.739 371.833 392.445 365.065 385.659M310.859 377.388C310.859 377.388 283.5 365.5 265.5 353.5C247.5 341.5 233.793 332.006 233 321.441C232.207 310.876 275.032 319.321 281.5 314.5C287.968 309.679 305.701 265.749 305.701 265.749C352.101 278.543 375.791 289.444 385.631 308.907C397.134 331.66 408.774 375.154 365.065 385.659" stroke="black" stroke-width="2"/>
<path d="M116.041 358.192C91.5812 346.111 85.3789 330.692 99.082 316.149C112.785 301.607 134.076 272.401 182.165 258.688C182.165 258.688 209.412 294.694 211.543 298.781C213.673 302.869 205.03 308.809 205.03 308.809C205.739 310.041 206.373 311.257 206.921 312.443C213.089 325.802 219.291 341.222 216.059 358.135C212.304 377.776 192.775 387.15 170.489 388.98C148.204 390.811 123.279 377.476 80.1845 404.035C55.9706 418.957 58.502 398.457 52.1194 393.955C45.7369 389.454 51.4497 378.916 79.2161 375.306C101.726 372.381 114.069 361.136 116.041 358.192Z" fill="white"/>
<path d="M171.921 276.962C182.609 281.644 197.758 296.161 205.03 308.809M116.041 358.192C91.5812 346.111 85.3789 330.692 99.082 316.149C112.785 301.607 134.076 272.401 182.165 258.688C182.165 258.688 209.412 294.694 211.543 298.781C213.673 302.869 205.03 308.809 205.03 308.809M116.041 358.192C125.044 345.427 139.066 328.212 162.318 326.122M116.041 358.192C114.069 361.136 101.726 372.381 79.2161 375.306C51.4497 378.916 45.7369 389.454 52.1194 393.955C58.502 398.457 55.9706 418.957 80.1845 404.035C123.279 377.476 148.204 390.811 170.489 388.98C192.775 387.15 212.304 377.776 216.059 358.135C219.291 341.222 213.089 325.802 206.921 312.443C206.373 311.257 205.739 310.041 205.03 308.809" stroke="black" stroke-width="2"/>
<path d="M231.59 77.1449C232.275 84.3891 231.485 84.1109 235.079 90.0983C238.673 96.0858 249.397 73.8448 248.943 63.3224C248.943 63.3224 251.051 59.8747 248.106 54.4684C245.161 49.0621 238.576 48.0606 232.49 43.7634C226.405 39.4662 214.766 36.5062 201.672 35.308C188.577 34.1099 146.111 39.7495 122.063 42.8355C98.0153 45.9215 -167 66.1082 -167 66.1082L-157.847 128.587L135.528 65.1135C135.528 65.1135 149.721 86.5104 170.933 87.7531C192.145 88.9958 220.094 92.8499 215.16 83.5711C210.226 74.2924 203.446 79.8062 199.12 76.9667C194.795 74.1273 174.963 70.3178 174.963 70.3178L213.562 66.668C221.603 65.9077 230.905 69.9007 231.59 77.1449Z" fill="white"/>
<path d="M188.035 45.5307C188.035 45.5307 224.525 45.3287 233.327 52.6174C242.13 59.9062 248.943 63.3224 248.943 63.3224M248.943 63.3224C248.943 63.3224 251.051 59.8747 248.106 54.4684C245.161 49.0622 238.576 48.0606 232.49 43.7634C226.405 39.4662 214.766 36.5062 201.672 35.308C188.577 34.1099 146.111 39.7495 122.063 42.8355C98.0153 45.9215 -167 66.1082 -167 66.1082L-157.847 128.587L135.528 65.1135C135.528 65.1135 149.721 86.5104 170.933 87.7531C192.145 88.9958 220.094 92.8499 215.16 83.5711C210.226 74.2924 203.446 79.8062 199.12 76.9667C194.795 74.1273 174.963 70.3178 174.963 70.3178C174.963 70.3178 205.52 67.4284 213.562 66.668C221.603 65.9077 230.905 69.9007 231.59 77.1449C232.275 84.3891 231.485 84.1109 235.079 90.0983C238.673 96.0858 249.398 73.8448 248.943 63.3224Z" stroke="black" stroke-width="2"/>
<path d="M191.702 268.881C193.583 275.9 191.565 271.268 194.013 275.493C196.46 279.717 208.704 262.661 206.506 252.375C206.506 252.375 208.009 248.629 204.207 243.796C200.404 238.964 193.747 239.076 187.033 235.859C180.32 232.642 168.356 231.668 155.251 232.672C142.145 233.676 101.227 246.312 78.0379 253.361C54.8491 260.411 -203 324.486 -203 324.486L-183.58 384.484L95.0173 273.053C95.0173 273.053 112.568 291.757 133.682 289.443C154.796 287.129 182.985 286.263 176.577 277.949C170.17 269.635 164.405 276.195 159.669 274.12C154.934 272.045 134.753 271.602 134.753 271.602L172.189 261.57C179.988 259.481 189.821 261.861 191.702 268.881Z" fill="white"/>
<path d="M143.511 245.013C143.511 245.013 179.443 238.729 189.332 244.438C199.221 250.148 206.506 252.375 206.506 252.375M206.506 252.375C206.506 252.375 208.009 248.629 204.207 243.796C200.404 238.964 193.747 239.076 187.033 235.859C180.32 232.642 168.356 231.668 155.25 232.672C142.145 233.676 101.227 246.312 78.0379 253.361C54.8491 260.411 -203 324.486 -203 324.486L-183.58 384.484L95.0173 273.053C95.0173 273.053 112.568 291.757 133.682 289.443C154.796 287.129 182.985 286.263 176.577 277.949C170.17 269.635 164.405 276.195 159.669 274.12C154.934 272.045 134.752 271.602 134.752 271.602C134.752 271.602 164.39 263.66 172.189 261.57C179.988 259.481 189.821 261.861 191.702 268.881C193.583 275.9 191.565 271.268 194.013 275.493C196.46 279.717 208.704 262.661 206.506 252.375Z" stroke="black" stroke-width="2"/>
<path d="M258.566 74.9782C257.184 80.1366 254.239 82.092 251.475 87.5162C248.712 92.9404 242.87 74.8834 243.156 64.3552C243.156 64.3552 240.998 60.9421 243.851 55.4888C246.704 50.0356 253.258 48.9273 259.261 44.532C265.264 40.1366 276.828 36.9881 289.873 35.5776C302.918 34.1671 345.375 39.1167 369.416 41.8119C393.457 44.5072 658.175 60.3896 658.175 60.3896L650.033 123.008L356.336 64.3052C356.336 64.3052 342.515 85.9294 321.372 87.5162C300.229 89.103 272.406 93.4101 277.182 84.0526C281.957 74.6952 288.809 80.0981 293.079 77.1888C297.349 74.2796 317.074 70.1488 317.074 70.1488L278.508 67.126C270.474 66.4963 259.948 69.8197 258.566 74.9782Z" fill="white"/>
<path d="M303.641 45.5775C303.641 45.5775 267.232 45.9677 258.566 53.3983C249.9 60.8288 243.156 64.3552 243.156 64.3552M243.156 64.3552C243.156 64.3552 240.998 60.9421 243.851 55.4888C246.704 50.0356 253.258 48.9273 259.261 44.532C265.264 40.1366 276.828 36.9881 289.873 35.5776C302.918 34.1671 345.375 39.1167 369.416 41.8119C393.457 44.5072 658.175 60.3896 658.175 60.3896L650.033 123.008L356.336 64.3052C356.336 64.3052 342.515 85.9294 321.372 87.5162C300.229 89.103 272.406 93.4101 277.182 84.0526C281.957 74.6952 288.809 80.0981 293.079 77.1888C297.349 74.2796 317.074 70.1488 317.074 70.1488C317.074 70.1488 286.543 67.7558 278.508 67.126C270.474 66.4963 259.948 69.8197 258.566 74.9782C257.184 80.1366 254.239 82.092 251.475 87.5162C248.712 92.9404 242.87 74.8834 243.156 64.3552Z" stroke="black" stroke-width="2"/>
<path d="M299.812 275.881C297.932 282.9 299.973 280.518 296.749 288.48C293.525 296.443 282.81 269.661 285.009 259.375C285.009 259.375 283.505 255.629 287.308 250.796C291.11 245.964 297.768 246.076 304.481 242.859C311.194 239.642 323.158 238.668 336.264 239.672C349.37 240.676 390.288 253.312 413.477 260.361C436.665 267.411 694.514 331.486 694.514 331.486L675.094 391.484L396.497 280.053C396.497 280.053 378.947 298.757 357.833 296.443C336.719 294.129 308.53 293.263 314.937 284.949C321.344 276.635 327.11 283.195 331.845 281.12C336.581 279.045 356.762 278.602 356.762 278.602L319.326 268.57C311.526 266.481 301.693 268.861 299.812 275.881Z" fill="white"/>
<path d="M348.004 252.013C348.004 252.013 312.071 245.729 302.182 251.438C292.293 257.148 285.009 259.375 285.009 259.375M285.009 259.375C285.009 259.375 283.505 255.629 287.308 250.796C291.11 245.964 297.768 246.076 304.481 242.859C311.194 239.642 323.158 238.668 336.264 239.672C349.37 240.676 390.288 253.312 413.477 260.361C436.665 267.411 694.514 331.486 694.514 331.486L675.094 391.484L396.497 280.053C396.497 280.053 378.947 298.757 357.833 296.443C336.719 294.129 308.53 293.263 314.937 284.949C321.344 276.635 327.11 283.195 331.845 281.12C336.581 279.045 356.762 278.602 356.762 278.602C356.762 278.602 327.125 270.66 319.326 268.57C311.526 266.481 301.693 268.861 299.812 275.881C297.932 282.9 299.973 280.518 296.749 288.48C293.525 296.443 282.81 269.661 285.009 259.375Z" stroke="black" stroke-width="2"/>
<rect x="1" y="1" width="455" height="455" stroke="black" stroke-width="2"/>
</g>
</svg>
