<svg width="457" height="457" viewBox="0 0 457 457" fill="none" xmlns="http://www.w3.org/2000/svg">
<mask id="mask0_76_188" style="mask-type:alpha" maskUnits="userSpaceOnUse" x="0" y="0" width="457" height="457">
<rect x="1" y="1" width="455" height="455" fill="#FFE7E7" stroke="black" stroke-width="2"/>
</mask>
<g mask="url(#mask0_76_188)">
<rect width="457" height="457" fill="#FFE7E7"/>
<rect x="102.328" y="37.0952" width="290.908" height="371.526" rx="7" transform="rotate(5.75166 102.328 37.0952)" fill="#D9D9D9" stroke="black" stroke-width="2"/>
<path d="M129.061 171.056C121.782 155.426 114.441 145.548 116.944 134.647C118.109 129.571 121.799 125.856 126.607 122.291C132.126 118.198 139.119 114.303 145.461 108.775C145.461 108.775 179.563 95.0612 193.113 93.3047C206.662 91.5481 242.109 92.7416 242.109 92.7416C245.823 93.9608 249.491 95.2008 252.969 96.5567C265.04 101.263 274.821 107.366 276.308 118.835C278.223 133.608 273.351 141.844 271.693 158.625C270.035 175.406 274.954 183.776 275.984 191.723C277.014 199.671 261.028 202.028 260.884 193.681C260.739 185.333 261.348 181.381 257.933 170.922C254.518 160.463 245.716 155.932 240.549 144.125C233.579 151.201 219.546 157.358 209 160C207.121 160.471 204.448 162.812 203 163C201.552 163.188 197.342 161.088 195.5 161C195.448 160.999 195.397 160.997 195.348 160.992C185.02 160.469 171.076 156.886 161.871 154.325C161.275 165.312 149.372 178.127 149.658 186.568C149.944 195.008 149.441 198.954 150.611 207.977C151.781 216.999 132.983 216.894 133.697 206.819C134.411 196.744 136.34 186.686 129.061 171.056Z" fill="white"/>
<path d="M161.871 154.325C161.275 165.312 149.372 178.127 149.658 186.568C149.944 195.008 149.441 198.954 150.611 207.977C151.781 216.999 132.983 216.894 133.697 206.819C134.411 196.744 136.34 186.686 129.061 171.056C121.782 155.426 114.441 145.548 116.944 134.647C118.109 129.571 121.799 125.856 126.607 122.291M161.871 154.325C161.871 154.325 165.366 147.003 160.583 144.391M161.871 154.325C171.122 156.898 185.158 160.505 195.5 161M240.549 144.125C245.716 155.932 254.518 160.463 257.933 170.922C261.348 181.381 260.739 185.333 260.884 193.681C261.028 202.028 277.014 199.671 275.984 191.723C274.954 183.776 270.035 175.406 271.693 158.625C273.351 141.844 278.223 133.608 276.308 118.835C274.821 107.366 265.04 101.263 252.969 96.5567M240.549 144.125C238.306 139.891 237.26 134.585 237.017 132.462M240.549 144.125C233.579 151.201 219.546 157.358 209 160M146.646 117.915C140.121 113.006 126.607 122.291 126.607 122.291M126.607 122.291C132.126 118.198 139.119 114.303 145.461 108.775C145.461 108.775 179.563 95.0612 193.113 93.3047C206.662 91.5481 242.109 92.7416 242.109 92.7416C245.823 93.9608 249.491 95.2008 252.969 96.5567M238.805 99.5022C239.979 98.6105 244.455 96.7731 252.969 96.5567M193.113 156C193.575 158.457 193.5 160.968 195.5 161M195.5 161C197.342 161.088 201.552 163.188 203 163C204.448 162.812 207.121 160.471 209 160M209 160C210 158.798 211 158.625 211 154.325" stroke="black" stroke-width="2"/>
<circle cx="319" cy="136" r="27" fill="black"/>
<circle cx="158" cy="319" r="27" fill="black"/>
<path d="M319.625 123.973L312.281 147H305.484L316.012 118.562H320.309L319.625 123.973ZM325.719 147L318.355 123.973L317.594 118.562H321.949L332.516 147H325.719ZM325.406 136.414V141.336H310.582V136.414H325.406Z" fill="white"/>
<path d="M158.859 319.715H151.555L151.516 315.457H157.551C158.618 315.457 159.484 315.327 160.148 315.066C160.826 314.806 161.32 314.428 161.633 313.934C161.945 313.426 162.102 312.801 162.102 312.059C162.102 311.212 161.945 310.529 161.633 310.008C161.32 309.487 160.826 309.109 160.148 308.875C159.484 308.628 158.625 308.504 157.57 308.504H153.859V332H147.492V303.562H157.57C159.276 303.562 160.799 303.719 162.141 304.031C163.482 304.344 164.621 304.826 165.559 305.477C166.509 306.128 167.232 306.941 167.727 307.918C168.221 308.895 168.469 310.047 168.469 311.375C168.469 312.534 168.208 313.615 167.688 314.617C167.18 315.62 166.359 316.434 165.227 317.059C164.094 317.684 162.577 318.022 160.676 318.074L158.859 319.715ZM158.605 332H149.934L152.238 327.078H158.605C159.582 327.078 160.376 326.922 160.988 326.609C161.6 326.297 162.049 325.874 162.336 325.34C162.622 324.806 162.766 324.207 162.766 323.543C162.766 322.762 162.629 322.085 162.355 321.512C162.095 320.939 161.678 320.496 161.105 320.184C160.546 319.871 159.797 319.715 158.859 319.715H153.156L153.195 315.457H160.168L161.652 317.137C163.462 317.098 164.908 317.391 165.988 318.016C167.082 318.628 167.87 319.435 168.352 320.438C168.833 321.44 169.074 322.501 169.074 323.621C169.074 325.47 168.677 327.02 167.883 328.27C167.089 329.507 165.91 330.438 164.348 331.062C162.798 331.688 160.884 332 158.605 332Z" fill="white"/>
<path d="M254.019 231.862C263.176 233.202 277.848 239.422 279.037 242.46C283.018 241.513 301.102 247.319 309.156 252.94C316.777 258.258 320.23 265.482 319.157 273.132C321.898 269.002 326.552 264.058 334.101 261.897C343.536 259.196 348.605 265.006 349.53 276.471C350.409 287.368 347.413 299.5 338.734 325.547C332.56 309.914 337.423 295.91 337.599 290.529C337.775 285.148 331.849 286.158 325.8 299.616C320.286 311.884 311.529 325.464 306.72 322.027C301.712 329.556 293.64 336.381 277.667 352.398C261.695 368.414 242.535 379.084 228.795 376.422C213.231 369.754 210.231 342.884 208.138 326.321C206.046 309.757 204.719 288.756 207.39 278.706C195.857 282.091 203.021 256.21 206.27 245.766C208.144 239.742 205.026 234.414 197.24 244.774C189.455 255.134 180.159 260.343 176.515 263.265C189.203 234.751 199.271 226.304 206.149 220.414C213.219 214.36 229.261 210.908 229.184 222.946C229.139 230.003 227.405 236.459 227.109 241.827C237.022 231.993 246.288 230.732 254.019 231.862Z" fill="white"/>
<path d="M319.157 273.132C320.153 281.134 319.294 292.67 316.044 301.452C314.271 306.242 312.28 313.668 306.72 322.027M319.157 273.132C320.23 265.482 316.777 258.258 309.156 252.94C301.102 247.319 283.018 241.513 279.037 242.46C277.848 239.422 263.176 233.202 254.019 231.862C246.288 230.732 237.022 231.993 227.109 241.827M319.157 273.132C321.898 269.002 326.552 264.058 334.101 261.897C343.536 259.196 348.605 265.006 349.53 276.471C350.409 287.368 347.413 299.5 338.734 325.547C332.56 309.914 337.423 295.91 337.599 290.529C337.775 285.148 331.849 286.158 325.8 299.616C320.286 311.884 311.529 325.464 306.72 322.027M306.72 322.027C301.712 329.556 293.64 336.381 277.667 352.398C261.695 368.414 242.535 379.084 228.795 376.422C213.231 369.754 210.231 342.884 208.138 326.321C206.046 309.757 204.719 288.756 207.39 278.706M207.39 278.706C208.259 275.436 209.232 272.343 210.31 269.473C215.077 256.781 220.953 247.932 227.109 241.827M207.39 278.706C195.857 282.091 203.021 256.21 206.27 245.766C208.144 239.742 205.026 234.414 197.24 244.774C189.455 255.134 180.159 260.343 176.515 263.265C189.203 234.751 199.271 226.304 206.149 220.414C213.219 214.36 229.261 210.908 229.184 222.946C229.139 230.003 227.405 236.459 227.109 241.827M271.585 261.897C263.789 282.465 256.302 302.964 235.511 358.5L271.585 261.897Z" stroke="black" stroke-width="2"/>
<rect x="1" y="1" width="455" height="455" stroke="black" stroke-width="2"/>
</g>
</svg>
