<svg width="457" height="457" viewBox="0 0 457 457" fill="none" xmlns="http://www.w3.org/2000/svg">
<mask id="mask0_76_196" style="mask-type:alpha" maskUnits="userSpaceOnUse" x="0" y="0" width="457" height="457">
<rect x="1" y="1" width="455" height="455" fill="#FFE7E7" stroke="black" stroke-width="2"/>
</mask>
<g mask="url(#mask0_76_196)">
<rect width="457" height="457" fill="#FFE7E7"/>
<rect x="-60.5144" y="147.374" width="512.553" height="342.655" rx="31" transform="rotate(-17.5946 -60.5144 147.374)" fill="#D9D9D9" stroke="black" stroke-width="2"/>
<path d="M343.944 161.359C361.834 185.506 377.821 199.809 377.355 219.3C377.138 228.374 372.135 236.007 365.17 243.775C358.205 251.543 348.04 262.221 337.696 273.441C337.696 273.441 284.252 308.773 261.728 316.506C239.204 324.239 178.257 334.584 178.257 334.584C171.488 333.799 164.792 332.963 158.379 331.863C145.022 329.57 132.898 326.132 123.923 319.628C117.941 315.293 113.359 309.598 110.741 301.974C102.31 277.415 107.753 261.648 104.722 232.413C101.691 203.178 90.3676 190.604 85.8319 177.392C81.2962 164.181 107.771 154.571 110.933 168.774C114.096 182.978 114.437 189.941 123.923 206.608C133.408 223.275 150.021 227.937 162.969 246.295C172.4 231.776 194.213 216.361 211.299 208.164C214.343 206.704 218.988 204.562 221.395 203.736C223.801 202.909 230.826 202.233 234.002 201.741C251.837 198.973 277.065 200.228 293.761 201.391C290.94 182.422 306.79 156.379 303.353 142.066C299.916 127.753 299.395 120.838 294.246 105.839C289.097 90.8404 321.233 84.4542 323.533 101.908C325.833 119.362 326.054 137.212 343.944 161.359Z" fill="white"/>
<path d="M377.355 219.3C377.821 199.809 361.834 185.506 343.944 161.359C326.054 137.212 325.833 119.362 323.533 101.908C321.233 84.4542 289.097 90.8404 294.246 105.839C299.395 120.838 299.916 127.753 303.353 142.066C306.79 156.379 290.94 182.422 293.761 201.391M377.355 219.3C377.138 228.374 372.135 236.007 365.17 243.775C358.205 251.543 348.04 262.221 337.696 273.441C337.696 273.441 284.252 308.773 261.728 316.506C239.204 324.239 178.257 334.584 178.257 334.584C171.488 333.799 164.792 332.963 158.379 331.863C136.121 328.043 117.287 321.039 110.741 301.974C102.31 277.415 107.753 261.648 104.722 232.413C101.691 203.178 90.3676 190.604 85.8319 177.392C81.2962 164.181 107.771 154.571 110.933 168.775C114.096 182.978 114.437 189.941 123.923 206.608C133.408 223.275 150.021 227.937 162.969 246.295M377.355 219.3C329.369 219.3 293.761 201.391 293.761 201.391M293.761 201.391C277.065 200.228 251.837 198.973 234.002 201.741C230.826 202.233 223.801 202.909 221.395 203.736C218.988 204.562 214.343 206.704 211.299 208.164C194.213 216.361 172.4 231.776 162.969 246.295M162.969 246.295C168.279 252.742 143.59 301.974 123.923 319.628" stroke="black" stroke-width="2"/>
<line x1="198.697" y1="137.565" x2="267.669" y2="366.754" stroke="black" stroke-width="2" stroke-linecap="round" stroke-dasharray="13 13"/>
<path d="M147.913 268.145C145.358 285.728 125.867 309.518 105.369 323.256C84.8713 336.994 73.484 334.72 73.484 334.72L50.6041 513.414L2.36194 510.12C2.36194 510.12 34.2759 341.406 33.018 328.841C31.7601 316.276 27.8974 308.904 20.8767 289.311C13.856 269.717 18.7146 202.321 23.7479 193.147C28.7813 183.972 39.802 252.437 39.802 252.437C39.802 252.437 47.8067 171.878 56.0987 169.987C64.3908 168.096 59.9219 249.789 59.9219 249.789C59.9219 249.789 84.8131 150.633 92.9036 158.619C100.994 166.604 79.249 252.597 79.249 252.597C79.249 252.597 118.056 176.513 129.62 177.574C141.183 178.635 104.666 268.672 103.08 279.586C112.705 293.986 150.467 250.562 147.913 268.145Z" fill="white" stroke="black" stroke-width="2"/>
<path d="M303.451 350.456L250.72 147.818L315.872 109.959L374.326 325.418L405.741 444.192L379.183 452.954L346.446 335.584L303.451 350.456Z" fill="white"/>
<path d="M374.326 325.418L315.872 109.959L250.72 147.818L303.451 350.456L346.446 335.584M374.326 325.418L405.741 444.192L379.183 452.954L346.446 335.584M374.326 325.418L346.446 335.584" stroke="black" stroke-width="2"/>
<path d="M340.859 349.607C341.855 342.749 353.634 338.159 364.915 336.997C371.135 336.357 375.932 336.787 380.092 337.697C383.476 338.438 386.437 339.496 389.399 340.555C396.001 342.914 406.796 368.99 415.006 384.187C423.215 399.383 427.525 417.514 427.525 417.514L467.094 498.885L456.035 575L395.509 446.692L404.754 443.609L393.988 400.942C393.988 400.942 372.573 385.671 376.49 362.486C376.483 360.384 339.863 356.464 340.859 349.607Z" fill="white"/>
<path d="M328.63 371.637C327.686 363.797 352.668 358.108 352.668 358.108L354.392 365.36C354.392 365.36 374.597 375.515 373.401 383.743C372.255 391.629 351.96 386.443 350.272 385.998C360.781 388.81 381.271 396.496 380.034 405.013C379.796 410.231 367.984 409.039 362.097 408.117C370.605 409.895 383.581 414.469 385.804 422.656C386.49 425.72 384.307 426.73 381.051 426.699C383.981 428.07 386.349 429.803 387.229 431.965C390.3 439.512 386.332 438.137 386.332 438.137C386.332 438.137 351.148 436.526 348.064 429.076C344.979 421.625 362.966 422.106 362.966 422.106C362.966 422.106 340.036 417.406 340.833 411.921C341.63 406.435 357.473 407.336 357.473 407.336C357.473 407.336 335.427 401.332 334.383 394.179C333.339 387.025 350.16 385.968 350.16 385.968C350.16 385.968 329.574 379.476 328.63 371.637Z" fill="white"/>
<path d="M393.988 400.942C393.988 400.942 372.573 385.671 376.49 362.486C376.483 360.384 339.863 356.464 340.859 349.607C341.855 342.749 353.634 338.159 364.915 336.997C371.135 336.357 375.932 336.787 380.092 337.697C383.476 338.438 386.437 339.496 389.399 340.555C396.001 342.914 406.796 368.99 415.006 384.187C423.215 399.383 427.525 417.514 427.525 417.514L467.094 498.885L456.035 575L395.509 446.692L404.754 443.609L393.988 400.942ZM393.988 400.942L405.648 404.533M350.16 385.968C350.16 385.968 329.574 379.476 328.63 371.637C327.686 363.797 352.668 358.108 352.668 358.108L354.392 365.36C354.392 365.36 374.597 375.515 373.401 383.743C372.206 391.972 350.16 385.968 350.16 385.968ZM350.16 385.968C350.16 385.968 333.339 387.025 334.383 394.179C335.427 401.332 357.473 407.336 357.473 407.336M350.16 385.968C360.635 388.755 381.275 396.466 380.034 405.013C379.717 411.969 358.833 407.534 358.833 407.534M357.473 407.336C357.473 407.336 341.63 406.435 340.833 411.92C340.036 417.406 362.966 422.106 362.966 422.106M357.473 407.336L358.833 407.534M358.833 407.534C366.768 408.687 383.27 413.325 385.804 422.656C387.909 432.064 362.966 422.106 362.966 422.106M362.966 422.106C362.966 422.106 344.979 421.625 348.064 429.076C351.148 436.526 386.332 438.137 386.332 438.137C386.332 438.137 390.3 439.512 387.229 431.965C384.159 424.419 362.966 422.106 362.966 422.106Z" stroke="black" stroke-width="2"/>
<rect x="1" y="1" width="455" height="455" stroke="black" stroke-width="2"/>
<circle cx="398" cy="127" r="27" fill="black"/>
<path d="M398.625 114.973L391.281 138H384.484L395.012 109.562H399.309L398.625 114.973ZM404.719 138L397.355 114.973L396.594 109.562H400.949L411.516 138H404.719ZM404.406 127.414V132.336H389.582V127.414H404.406Z" fill="white"/>
</g>
</svg>
