<svg width="457" height="457" viewBox="0 0 457 457" fill="none" xmlns="http://www.w3.org/2000/svg">
<mask id="mask0_81_240" style="mask-type:alpha" maskUnits="userSpaceOnUse" x="0" y="0" width="457" height="457">
<rect x="1" y="1" width="455" height="455" fill="#FFE7E7" stroke="black" stroke-width="2"/>
</mask>
<g mask="url(#mask0_81_240)">
<rect width="457" height="457" fill="#FFE7E7"/>
<rect x="40.7945" y="-5.7285" width="512.553" height="342.655" rx="31" transform="rotate(17.0526 40.7945 -5.7285)" fill="#D9D9D9" stroke="black" stroke-width="2"/>
<path fill-rule="evenodd" clip-rule="evenodd" d="M255.534 110.97C251.238 111.413 246.547 111.898 241.409 111.426C238.792 111.186 235.912 110.742 232.836 110.268C220.931 108.432 206.093 106.143 192.193 113.491C192.484 112.267 192.736 110.615 192.955 108.382C195.064 86.9022 154.952 109.248 146.679 118.382C131.083 135.604 126.586 143.101 126.586 154.414C126.586 160.973 132.518 159.671 145.828 156.75C149.076 156.038 152.763 155.229 156.911 154.414L184.888 146.742L174.079 154.414C156.911 169.88 142.719 247.825 143.635 274.609C144.658 304.523 148.96 337.649 167.99 344.631C187.02 351.613 233.467 336.113 247.146 326.973C247.146 326.973 293.712 282.308 320.103 249.644C314.641 269.811 320.326 267.586 333.788 262.318C336.136 261.399 338.721 260.388 341.524 259.386C349.671 268.745 361.595 279.479 369.533 269.737C382.928 253.297 394.282 226.621 394.497 207.022C394.723 186.401 389.626 175.969 378.666 180.231C374.413 181.885 370.265 182.588 366.456 183.233C360.449 184.252 355.283 185.127 351.875 189.364C355.044 175.883 342.632 127.866 320.103 127.866C310.003 127.866 299.194 123.317 290.442 119.633C283.937 116.894 278.567 114.634 275.47 115.077C269.949 109.483 263.406 110.158 255.534 110.97ZM203.074 216.798C217.14 218.923 240.529 222.457 251.408 233.204C265.893 247.513 280.341 272.173 275.47 280.697C273.279 284.532 270.833 288.758 266.63 295.92C242.515 293.484 150.333 282.524 148.899 233.204C151.321 219.596 155.252 207.665 162.51 205.804C173.765 202.919 180.711 207.521 186.412 211.298C188.73 212.834 190.843 214.233 192.955 214.937C194.774 215.544 198.412 216.093 203.074 216.798Z" fill="white"/>
<path d="M275.47 280.697C280.341 272.173 265.893 247.513 251.408 233.204C240.529 222.457 217.14 218.923 203.074 216.798C198.412 216.093 194.774 215.544 192.955 214.937C190.843 214.233 188.73 212.834 186.412 211.298C180.711 207.521 173.765 202.919 162.51 205.804C155.252 207.665 151.321 219.596 148.899 233.204C150.333 282.524 242.515 293.484 266.63 295.92C270.833 288.758 273.279 284.532 275.47 280.697Z" fill="#EEEEEE"/>
<path d="M275.47 115.077L274.759 115.779L275.113 116.138L275.612 116.067L275.47 115.077ZM241.409 111.426L241.318 112.422L241.318 112.422L241.409 111.426ZM320.103 127.866L320.103 126.866L320.103 126.866L320.103 127.866ZM351.875 189.364L350.901 189.135L352.654 189.991L351.875 189.364ZM378.666 180.231L378.303 179.299L378.303 179.299L378.666 180.231ZM394.497 207.022L395.497 207.033L394.497 207.022ZM369.533 269.737L368.757 269.106L368.757 269.106L369.533 269.737ZM156.911 154.414L157.103 155.395L157.14 155.388L157.175 155.378L156.911 154.414ZM126.586 154.414L127.586 154.414L127.586 154.414L126.586 154.414ZM146.679 118.382L145.938 117.711L145.938 117.711L146.679 118.382ZM192.955 108.382L191.96 108.284L191.96 108.284L192.955 108.382ZM184.888 118.383L184.251 117.611L185.474 119.192L184.888 118.383ZM247.146 326.973L247.702 327.804L247.775 327.756L247.838 327.695L247.146 326.973ZM192.955 214.937L193.271 213.989L193.271 213.989L192.955 214.937ZM320.103 249.644L321.068 249.905L319.325 249.016L320.103 249.644ZM341.524 259.386L342.278 258.73L342.278 258.73L341.524 259.386ZM184.888 146.742L185.466 147.557L184.623 145.777L184.888 146.742ZM174.079 154.414L173.5 153.598L173.453 153.632L173.41 153.671L174.079 154.414ZM251.408 233.204L250.705 233.915L250.705 233.915L251.408 233.204ZM162.51 205.804L162.262 204.835L162.262 204.835L162.51 205.804ZM275.47 280.697L276.339 281.194L275.47 280.697ZM148.899 233.204L147.915 233.029L148.899 233.204ZM266.63 295.92L267.493 296.426L267.493 296.426L266.63 295.92ZM255.534 110.97L255.431 109.975L255.431 109.975L255.534 110.97ZM232.836 110.268L232.684 111.256L232.684 111.256L232.836 110.268ZM145.828 156.75L145.613 155.774L145.613 155.774L145.828 156.75ZM333.788 262.318L333.424 261.387L333.424 261.387L333.788 262.318ZM366.456 183.233L366.623 184.219L366.623 184.219L366.456 183.233ZM290.442 119.633L290.83 118.711L290.83 118.711L290.442 119.633ZM203.074 216.798L202.925 217.787L202.925 217.787L203.074 216.798ZM186.412 211.298L186.964 210.464L186.964 210.464L186.412 211.298ZM352.848 189.593C353.687 186.023 353.477 180.333 352.402 173.903C351.32 167.437 349.343 160.101 346.553 153.186C343.766 146.279 340.147 139.738 335.757 134.907C331.367 130.077 326.119 126.866 320.103 126.866L320.103 128.866C325.351 128.866 330.102 131.658 334.277 136.252C338.451 140.846 341.962 147.152 344.698 153.934C347.431 160.708 349.371 167.904 350.429 174.233C351.494 180.598 351.647 185.965 350.901 189.135L352.848 189.593ZM379.028 181.163C381.619 180.155 383.739 180.063 385.467 180.663C387.191 181.263 388.68 182.607 389.905 184.785C392.384 189.195 393.61 196.731 393.497 207.011L395.497 207.033C395.611 196.692 394.401 188.701 391.648 183.805C390.257 181.33 388.431 179.577 386.124 178.774C383.82 177.973 381.193 178.175 378.303 179.299L379.028 181.163ZM393.497 207.011C393.391 216.643 390.542 228.084 386.031 239.188C381.522 250.285 375.383 260.975 368.757 269.106L370.308 270.369C377.078 262.06 383.313 251.192 387.884 239.941C392.452 228.697 395.388 217 395.497 207.033L393.497 207.011ZM330.127 236.842C327.412 233.447 324.184 230.151 320.913 226.799C317.63 223.434 314.295 220.004 311.296 216.292C305.311 208.883 300.725 200.423 300.725 189.364L298.725 189.364C298.725 201.047 303.593 209.94 309.74 217.548C312.807 221.345 316.207 224.839 319.482 228.195C322.77 231.565 325.923 234.788 328.565 238.091L330.127 236.842ZM127.586 154.414C127.586 143.518 131.824 136.275 147.42 119.054L145.938 117.711C130.342 134.932 125.586 142.685 125.586 154.414L127.586 154.414ZM147.42 119.054C149.394 116.875 153.357 113.824 158.225 110.795C163.074 107.777 168.738 104.831 174.061 102.838C179.436 100.826 184.274 99.8581 187.565 100.575C189.166 100.924 190.333 101.656 191.069 102.808C191.818 103.981 192.21 105.731 191.96 108.284L193.95 108.48C194.227 105.662 193.827 103.412 192.754 101.732C191.668 100.03 189.982 99.0551 187.99 98.621C184.095 97.7722 178.783 98.9346 173.36 100.965C167.885 103.015 162.101 106.027 157.168 109.097C152.254 112.155 148.101 115.323 145.938 117.711L147.42 119.054ZM247.146 326.973C247.838 327.695 247.838 327.694 247.839 327.694C247.839 327.693 247.84 327.693 247.841 327.692C247.843 327.69 247.846 327.687 247.849 327.684C247.857 327.677 247.868 327.666 247.882 327.653C247.911 327.625 247.954 327.583 248.011 327.528C248.125 327.419 248.294 327.256 248.516 327.042C248.959 326.614 249.612 325.983 250.451 325.168C252.128 323.538 254.549 321.174 257.524 318.237C263.474 312.363 271.643 304.195 280.517 295.016C298.247 276.677 318.85 254.248 330.166 238.039L328.526 236.894C317.313 252.956 296.816 275.28 279.079 293.626C270.219 302.791 262.061 310.948 256.119 316.814C253.148 319.747 250.731 322.107 249.057 323.733C248.22 324.547 247.569 325.176 247.127 325.603C246.906 325.816 246.738 325.978 246.625 326.087C246.568 326.142 246.525 326.183 246.497 326.21C246.482 326.224 246.472 326.234 246.464 326.241C246.461 326.245 246.458 326.247 246.456 326.249C246.455 326.25 246.455 326.25 246.454 326.251C246.454 326.251 246.454 326.251 247.146 326.973ZM142.635 274.643C143.148 289.618 144.481 305.475 148.097 318.487C151.697 331.447 157.651 341.903 167.646 345.57L168.335 343.692C159.3 340.377 153.587 330.779 150.024 317.952C146.474 305.177 145.145 289.514 144.634 274.575L142.635 274.643ZM246.59 326.141C239.885 330.622 224.977 336.747 209.32 340.881C201.506 342.943 193.549 344.498 186.379 345.106C179.186 345.716 172.888 345.363 168.335 343.692L167.646 345.57C172.608 347.39 179.252 347.717 186.548 347.099C193.866 346.479 201.943 344.897 209.83 342.814C225.574 338.658 240.728 332.464 247.702 327.804L246.59 326.141ZM368.757 269.106C366.92 271.36 364.922 272.36 362.861 272.55C360.763 272.743 358.473 272.107 356.074 270.84C351.257 268.297 346.342 263.398 342.278 258.73L340.769 260.043C344.853 264.734 349.973 269.881 355.14 272.609C357.732 273.978 360.42 274.783 363.045 274.542C365.707 274.297 368.176 272.986 370.308 270.369L368.757 269.106ZM342.278 258.73C339.587 255.638 337.686 251.653 335.883 247.649C334.111 243.715 332.409 239.695 330.127 236.842L328.565 238.091C330.648 240.696 332.234 244.418 334.059 248.471C335.853 252.454 337.859 256.7 340.769 260.043L342.278 258.73ZM157.175 155.378L185.152 147.706L184.623 145.777L156.646 153.449L157.175 155.378ZM173.41 153.671C168.922 157.713 164.748 165.692 161.015 175.6C157.262 185.559 153.895 197.637 151.1 210.047C145.513 234.845 142.173 261.125 142.635 274.643L144.634 274.575C144.18 261.309 147.478 235.224 153.051 210.487C155.834 198.13 159.178 186.148 162.886 176.305C166.614 166.412 170.652 158.847 174.749 155.157L173.41 153.671ZM184.309 145.926L173.5 153.598L174.658 155.229L185.466 147.557L184.309 145.926ZM276.339 281.194C277.752 278.72 277.687 275.26 276.775 271.459C275.852 267.613 274.009 263.201 271.58 258.649C266.72 249.543 259.426 239.719 252.111 232.493L250.705 233.915C257.875 240.998 265.048 250.659 269.815 259.591C272.2 264.058 273.961 268.304 274.83 271.926C275.71 275.593 275.624 278.412 274.602 280.201L276.339 281.194ZM174.963 337.792L196.883 296.387L195.116 295.452L173.196 336.856L174.963 337.792ZM162.262 204.835C158.167 205.885 155.199 209.711 152.978 214.692C150.735 219.719 149.13 226.198 147.915 233.029L149.884 233.379C151.09 226.602 152.661 220.311 154.804 215.506C156.968 210.654 159.595 207.584 162.759 206.773L162.262 204.835ZM147.915 233.029C146.477 241.106 145.57 249.762 144.818 257.236C144.061 264.76 143.466 270.999 142.662 274.377L144.608 274.84C145.452 271.294 146.06 264.867 146.808 257.437C147.561 249.957 148.461 241.372 149.884 233.379L147.915 233.029ZM247.965 327.546C255.025 317.461 262.354 305.185 267.493 296.426L265.768 295.414C260.629 304.172 253.336 316.386 246.327 326.399L247.965 327.546ZM267.493 296.426C271.696 289.262 274.145 285.032 276.339 281.194L274.602 280.201C272.413 284.031 269.969 288.254 265.768 295.414L267.493 296.426ZM147.9 233.233C148.268 245.913 154.481 256.09 163.853 264.223C173.208 272.341 185.751 278.462 198.928 283.087C225.287 292.338 254.462 295.696 266.53 296.915L266.731 294.925C254.683 293.708 225.71 290.367 199.59 281.2C186.529 276.615 174.25 270.597 165.164 262.712C156.095 254.843 150.247 245.155 149.899 233.175L147.9 233.233ZM319.325 249.016C306.161 265.309 287.949 284.613 273.013 299.858C265.549 307.477 258.908 314.076 254.133 318.771C251.746 321.118 249.825 322.988 248.502 324.272C247.84 324.914 247.328 325.409 246.981 325.744C246.808 325.911 246.676 326.038 246.587 326.123C246.543 326.166 246.509 326.198 246.487 326.219C246.476 326.23 246.468 326.238 246.462 326.243C246.459 326.246 246.457 326.248 246.456 326.249C246.455 326.25 246.455 326.25 246.454 326.251C246.454 326.251 246.454 326.251 247.146 326.973C247.838 327.695 247.838 327.694 247.839 327.694C247.839 327.694 247.84 327.693 247.84 327.692C247.842 327.691 247.844 327.689 247.847 327.686C247.853 327.681 247.861 327.673 247.873 327.662C247.895 327.64 247.929 327.608 247.974 327.565C248.063 327.479 248.195 327.351 248.37 327.183C248.718 326.847 249.232 326.351 249.895 325.708C251.221 324.421 253.145 322.547 255.535 320.197C260.317 315.496 266.967 308.887 274.442 301.257C289.387 286.003 307.654 266.643 320.881 250.273L319.325 249.016ZM191.96 108.284C191.742 110.498 191.496 112.099 191.22 113.26L193.165 113.723C193.472 112.435 193.729 110.733 193.95 108.48L191.96 108.284ZM255.431 109.975C251.128 110.42 246.528 110.892 241.501 110.431L241.318 112.422C246.565 112.904 251.349 112.407 255.636 111.965L255.431 109.975ZM241.501 110.431C238.92 110.194 236.072 109.755 232.989 109.28L232.684 111.256C235.752 111.729 238.664 112.179 241.318 112.422L241.501 110.431ZM232.989 109.28C221.125 107.45 205.959 105.083 191.725 112.607L192.66 114.376C206.227 107.203 220.737 109.413 232.684 111.256L232.989 109.28ZM125.586 154.414C125.586 156.185 125.985 157.648 127.018 158.668C128.04 159.678 129.496 160.067 131.174 160.136C132.86 160.205 134.937 159.957 137.38 159.524C139.833 159.09 142.721 158.456 146.042 157.727L145.613 155.774C142.279 156.505 139.435 157.129 137.031 157.555C134.619 157.983 132.717 158.198 131.257 158.138C129.788 158.077 128.929 157.745 128.423 157.245C127.928 156.756 127.586 155.922 127.586 154.414L125.586 154.414ZM146.042 157.727C149.29 157.014 152.968 156.207 157.103 155.395L156.718 153.433C152.558 154.25 148.861 155.061 145.613 155.774L146.042 157.727ZM319.138 249.383C317.768 254.439 317.07 258.184 317.044 260.864C317.018 263.509 317.653 265.471 319.374 266.399C320.19 266.839 321.139 266.977 322.139 266.94C323.14 266.903 324.258 266.688 325.464 266.361C327.869 265.71 330.806 264.559 334.153 263.249L333.424 261.387C330.039 262.711 327.217 263.814 324.941 264.431C323.807 264.738 322.853 264.912 322.065 264.941C321.276 264.97 320.719 264.852 320.324 264.639C319.624 264.262 319.02 263.327 319.044 260.883C319.067 258.472 319.707 254.933 321.068 249.905L319.138 249.383ZM334.153 263.249C336.502 262.33 339.073 261.324 341.86 260.328L341.187 258.445C338.368 259.452 335.77 260.468 333.424 261.387L334.153 263.249ZM378.303 179.299C374.159 180.911 370.107 181.6 366.289 182.247L366.623 184.219C370.423 183.575 374.667 182.859 379.028 181.163L378.303 179.299ZM366.289 182.247C360.372 183.25 354.783 184.153 351.096 188.737L352.654 189.991C355.783 186.101 360.525 185.253 366.623 184.219L366.289 182.247ZM320.103 126.866C310.243 126.866 299.628 122.414 290.83 118.711L290.054 120.554C298.76 124.219 309.763 128.866 320.103 128.866L320.103 126.866ZM290.83 118.711C287.589 117.346 284.582 116.08 281.996 115.213C279.448 114.36 277.132 113.829 275.329 114.087L275.612 116.067C276.906 115.881 278.822 116.259 281.36 117.11C283.86 117.947 286.79 119.18 290.054 120.554L290.83 118.711ZM276.182 114.374C270.276 108.39 263.22 109.172 255.431 109.975L255.636 111.965C263.593 111.144 269.623 110.575 274.759 115.779L276.182 114.374ZM202.925 217.787C209.965 218.85 219.27 220.257 228.168 222.731C237.094 225.213 245.454 228.728 250.705 233.915L252.111 232.493C246.483 226.933 237.709 223.308 228.704 220.804C219.672 218.293 210.249 216.871 203.223 215.809L202.925 217.787ZM162.759 206.773C173.565 204.002 180.183 208.371 185.86 212.132L186.964 210.464C181.239 206.671 173.965 201.835 162.262 204.835L162.759 206.773ZM185.86 212.132C188.146 213.646 190.375 215.132 192.639 215.886L193.271 213.989C191.31 213.335 189.315 212.022 186.964 210.464L185.86 212.132ZM192.639 215.886C194.562 216.527 198.318 217.091 202.925 217.787L203.223 215.809C198.505 215.096 194.985 214.56 193.271 213.989L192.639 215.886ZM191.22 113.26C190.895 114.626 190.552 115.278 190.262 115.605C190.019 115.879 189.757 115.991 189.298 116.057C188.328 116.198 186.44 116.023 184.301 117.573L185.474 119.192C187.09 118.022 188.179 118.241 189.586 118.037C190.314 117.931 191.09 117.685 191.757 116.933C192.377 116.236 192.815 115.197 193.165 113.723L191.22 113.26ZM191.725 112.607C189.193 113.946 186.694 115.595 184.251 117.611L185.524 119.154C187.863 117.224 190.248 115.65 192.66 114.376L191.725 112.607Z" fill="black"/>
<line x1="280.434" y1="83.3461" x2="141.346" y2="354.566" stroke="black" stroke-width="2" stroke-linecap="round" stroke-dasharray="13 13"/>
<path d="M152.143 181.514C138.312 184.602 115.045 176.829 98.9855 165.451C82.9256 154.074 81.3869 144.941 81.3869 144.941L-58.303 178.626L-69.5453 141.732C-69.5453 141.732 65.2709 117.614 74.2793 113.109C83.2877 108.604 87.6853 103.631 100.296 92.8349C112.907 82.0385 164.522 66.5232 172.789 67.6699C181.057 68.8166 133.154 96.4714 133.154 96.4714C133.154 96.4714 195.474 79.5634 199.238 85.2072C203.001 90.851 140.841 110.716 140.841 110.716C140.841 110.716 221.817 101.115 218.162 109.412C214.507 117.71 144.236 125.919 144.236 125.919C144.236 125.919 211.966 133.241 214.458 142.162C216.951 151.082 139.471 149.428 130.886 151.345C122.886 162.609 165.975 178.426 152.143 181.514Z" fill="white" stroke="black" stroke-width="2"/>
<path d="M234.812 138.19L140.483 328.259L137.468 288.662L66.7793 419.836L61.9892 392.76L135.035 261.47L234.812 71L234.812 138.19Z" fill="white"/>
<path d="M135.035 261.47L234.812 71L234.812 138.19L140.483 328.259L137.468 288.662M135.035 261.47L61.9892 392.76L66.7793 419.836L137.468 288.662M135.035 261.47L137.468 288.662" stroke="black" stroke-width="2"/>
<path d="M108.744 291.937C108.744 291.937 128.434 288.957 135.326 288.957C142.217 288.957 156 294.917 156 300.877C156 306.837 145.171 305.845 145.171 305.845C145.171 305.845 152.499 310.811 149.411 318.758C146.323 326.706 138.279 324.72 138.279 324.72C138.279 324.72 141.233 338.627 135.326 341.608C132.393 343.087 128.976 343.832 126.278 344.207C128.151 344.637 129.964 346.007 130.403 349.555C131.388 357.502 117.605 363.462 117.605 363.462H103.822L19 525H-50L39.8294 392.27C39.8294 392.27 63.4783 361.474 67.3953 352.534C71.3123 343.594 75.2922 318.758 79.2093 307.832C83.1263 296.905 96.9302 282.996 103.822 279.023C110.713 275.05 127.45 270.053 121.543 279.023C115.636 287.993 108.744 291.937 108.744 291.937Z" fill="white"/>
<path d="M108.744 291.937C108.744 291.937 128.434 288.957 135.326 288.957C142.217 288.957 156 294.917 156 300.877C156 306.837 145.171 305.845 145.171 305.845M108.744 291.937C108.744 291.937 115.636 287.993 121.543 279.023C127.45 270.053 110.713 275.05 103.822 279.023C96.9302 282.996 83.1263 296.905 79.2093 307.832C75.2922 318.758 71.3123 343.594 67.3953 352.534C63.4783 361.474 39.8294 392.27 39.8294 392.27L-50 525H19L103.822 363.462H117.605C117.605 363.462 131.388 357.502 130.403 349.555C129.419 341.608 121.543 344.588 121.543 344.588C121.543 344.588 129.419 344.588 135.326 341.608C141.233 338.627 138.279 324.72 138.279 324.72M108.744 291.937L103.822 296.904M135.326 305.845H145.171M145.171 305.845C145.171 305.845 152.499 310.811 149.411 318.758C146.323 326.706 138.279 324.72 138.279 324.72M130.403 324.72H138.279" stroke="black" stroke-width="2"/>
<rect x="1" y="1" width="455" height="455" stroke="black" stroke-width="2"/>
<circle cx="398" cy="127" r="27" fill="black"/>
<path d="M398.859 128.715H391.555L391.516 124.457H397.551C398.618 124.457 399.484 124.327 400.148 124.066C400.826 123.806 401.32 123.428 401.633 122.934C401.945 122.426 402.102 121.801 402.102 121.059C402.102 120.212 401.945 119.529 401.633 119.008C401.32 118.487 400.826 118.109 400.148 117.875C399.484 117.628 398.625 117.504 397.57 117.504H393.859V141H387.492V112.562H397.57C399.276 112.562 400.799 112.719 402.141 113.031C403.482 113.344 404.621 113.826 405.559 114.477C406.509 115.128 407.232 115.941 407.727 116.918C408.221 117.895 408.469 119.047 408.469 120.375C408.469 121.534 408.208 122.615 407.688 123.617C407.18 124.62 406.359 125.434 405.227 126.059C404.094 126.684 402.577 127.022 400.676 127.074L398.859 128.715ZM398.605 141H389.934L392.238 136.078H398.605C399.582 136.078 400.376 135.922 400.988 135.609C401.6 135.297 402.049 134.874 402.336 134.34C402.622 133.806 402.766 133.207 402.766 132.543C402.766 131.762 402.629 131.085 402.355 130.512C402.095 129.939 401.678 129.496 401.105 129.184C400.546 128.871 399.797 128.715 398.859 128.715H393.156L393.195 124.457H400.168L401.652 126.137C403.462 126.098 404.908 126.391 405.988 127.016C407.082 127.628 407.87 128.435 408.352 129.438C408.833 130.44 409.074 131.501 409.074 132.621C409.074 134.47 408.677 136.02 407.883 137.27C407.089 138.507 405.91 139.438 404.348 140.062C402.798 140.688 400.884 141 398.605 141Z" fill="white"/>
</g>
</svg>
