<svg width="841" height="457" viewBox="0 0 841 457" fill="none" xmlns="http://www.w3.org/2000/svg">
<mask id="mask0_87_14" style="mask-type:alpha" maskUnits="userSpaceOnUse" x="0" y="0" width="841" height="457">
<rect x="1" y="1" width="839" height="455" fill="#FFE7E7" stroke="black" stroke-width="2"/>
</mask>
<g mask="url(#mask0_87_14)">
<rect width="841" height="457" fill="#FFE7E7"/>
<rect x="153.507" y="416.347" width="369.933" height="549.228" rx="7" transform="rotate(-92.2605 153.507 416.347)" fill="#D9D9D9" stroke="black" stroke-width="2"/>
<path d="M379.831 259.869C425.536 264.678 426.522 317.114 414.388 330.643C402.254 344.173 390.615 351.959 350.764 356.716C310.913 361.473 234.881 353.537 257.962 329.481C281.043 305.425 334.127 255.06 379.831 259.869Z" fill="white"/>
<path d="M389.486 286.951C387.212 293.939 377.283 296.058 372.602 296.244C400.646 296.422 408.763 302.972 411.818 316.298C414.872 329.623 392.248 338.536 379.03 343.248C365.813 347.96 348.773 358.966 349.691 353.707C350.609 348.447 356.431 339.316 368.604 334.977C385.244 331.706 382.562 324.183 382.562 324.183C382.562 324.183 356.58 321.718 346.35 310.103C341.131 304.177 343.629 297.375 347.655 293.446C350.453 290.841 357.147 287.712 357.146 280.18M414.388 330.643C426.522 317.114 425.536 264.678 379.831 259.869C334.127 255.06 281.043 305.425 257.962 329.481C234.881 353.537 310.913 361.473 350.764 356.716C390.615 351.959 402.254 344.173 414.388 330.643Z" stroke="black" stroke-width="2"/>
<path d="M559.11 61.7391C527.677 28.2128 485.286 59.0909 481.83 76.9331C478.373 94.7752 479.195 108.755 499.468 143.391C519.742 178.028 571.981 233.84 577.218 200.916C582.454 167.992 590.543 95.2655 559.11 61.7391Z" fill="white"/>
<path d="M531.693 70.398C527.497 76.4306 531.804 85.6244 534.482 89.4673C517.405 67.2216 507.282 64.707 494.816 70.3191C482.351 75.9312 488.908 99.3469 493.134 112.728C497.36 126.109 498.877 146.337 502.515 142.429C506.152 138.521 509.915 128.367 506.023 116.044C498.582 100.805 506.198 98.4 506.198 98.4C506.198 98.4 526.343 118.912 541.778 120.051C549.653 120.633 553.567 114.534 554.267 108.953C554.654 105.149 553.106 97.9247 559.11 93.3771M481.83 76.9331C485.286 59.0909 527.677 28.2128 559.11 61.7391C590.543 95.2655 582.454 167.992 577.218 200.916C571.981 233.84 519.742 178.028 499.468 143.391C479.195 108.755 478.373 94.7752 481.83 76.9331Z" stroke="black" stroke-width="2"/>
<path d="M268.593 186.186C255.055 166.946 242.818 155.446 243.555 140.202C243.899 133.105 247.96 127.227 253.559 121.281C259.986 114.456 266.162 106.525 276.936 96.7213C287.709 86.9176 318.129 71.9629 335.904 66.3421C361.823 95.8116 360.149 159.952 362.843 159.513C348.833 161.338 321.676 157.047 308.633 155.817C310.477 170.716 297.575 190.794 299.991 202.061C302.407 213.328 302.681 218.75 306.424 230.586C310.167 242.423 284.895 246.805 283.429 233.102C281.963 219.399 282.132 205.426 268.593 186.186Z" fill="white"/>
<path d="M308.633 155.817C310.477 170.716 297.575 190.794 299.991 202.061C302.407 213.328 302.681 218.75 306.424 230.586C310.167 242.423 284.895 246.805 283.429 233.102C281.963 219.399 282.132 205.426 268.593 186.186C255.055 166.946 242.818 155.446 243.555 140.202C243.899 133.105 247.96 127.227 253.559 121.281M308.633 155.817C308.633 155.817 311.565 145.142 304.512 142.785M308.633 155.817C321.676 157.047 348.833 161.338 362.843 159.513C360.149 159.952 361.823 95.8116 335.904 66.3421C318.129 71.9629 287.709 86.9176 276.936 96.7213C266.162 106.525 259.986 114.456 253.559 121.281M279.419 110.58C269.475 105.559 253.559 121.281 253.559 121.281" stroke="black" stroke-width="2"/>
<path d="M547.143 346.707C565.711 332.26 580.773 324.836 584.519 310.041C586.264 303.153 584.097 296.345 580.478 289.023C576.324 280.618 572.139 269.562 565.635 259.254C559.13 248.945 533.126 222.997 517.768 212.43C484.372 233.045 467.24 294.878 464.792 293.672C477.658 299.508 504.885 303.336 517.719 305.969C511.604 319.68 518.079 342.651 512.478 352.721C506.877 362.791 505.031 367.896 497.995 378.123C490.958 388.351 513.848 399.923 519.252 387.245C524.657 374.568 528.576 361.154 547.143 346.707Z" fill="white"/>
<path d="M517.719 305.969C511.604 319.68 518.079 342.651 512.478 352.721C506.877 362.791 505.031 367.896 497.995 378.123C490.958 388.351 513.848 399.923 519.252 387.245C524.657 374.568 528.576 361.154 547.143 346.707C565.711 332.26 580.773 324.836 584.519 310.041C586.264 303.153 584.097 296.345 580.478 289.023M517.719 305.969C517.719 305.969 518.032 294.903 525.466 294.709M517.719 305.969C504.885 303.336 477.658 299.508 464.792 293.672C467.24 294.878 484.372 233.045 517.768 212.43C533.126 222.997 559.13 248.945 565.635 259.254C572.139 269.562 576.324 280.618 580.478 289.023M558.87 271.236C569.847 269.338 580.478 289.023 580.478 289.023" stroke="black" stroke-width="2"/>
<rect x="1" y="1" width="839" height="455" stroke="black" stroke-width="2"/>
</g>
</svg>
