<svg width="457" height="457" viewBox="0 0 457 457" fill="none" xmlns="http://www.w3.org/2000/svg">
<mask id="mask0_87_14" style="mask-type:alpha" maskUnits="userSpaceOnUse" x="0" y="0" width="457" height="457">
<rect x="1" y="1" width="455" height="455" fill="#FFE7E7" stroke="black" stroke-width="2"/>
</mask>
<g mask="url(#mask0_87_14)">
<rect width="457" height="457" fill="#FFE7E7"/>
<rect x="8.81496" y="404.188" width="329.495" height="489.297" rx="7" transform="rotate(-94.5151 8.81496 404.188)" fill="#D9D9D9" stroke="black" stroke-width="2"/>
<path d="M204.79 257.013C245.662 259.693 248.379 306.357 238.047 318.832C227.715 331.306 217.622 338.649 182.298 344.282C146.974 349.916 78.9827 345.514 98.6949 323.281C118.407 301.048 163.917 254.332 204.79 257.013Z" fill="white"/>
<path d="M214.337 280.793C212.557 287.097 203.789 289.332 199.627 289.661C224.608 288.836 232.067 294.385 235.255 306.146C238.442 317.906 218.606 326.637 207 331.297C195.393 335.956 180.604 346.356 181.237 341.64C181.871 336.924 186.735 328.588 197.424 324.296C212.129 320.8 209.477 314.194 209.477 314.194C209.477 314.194 186.251 312.91 176.733 302.924C171.877 297.83 173.863 291.684 177.311 288.044C179.712 285.626 185.563 282.605 185.298 275.897M238.047 318.832C248.379 306.357 245.662 259.693 204.79 257.013C163.917 254.332 118.407 301.048 98.6949 323.281C78.9827 345.514 146.974 349.916 182.298 344.282C217.622 338.649 227.715 331.306 238.047 318.832Z" stroke="black" stroke-width="2"/>
<path d="M357.506 74.2748C328.336 45.5189 291.666 74.5049 289.213 90.516C286.76 106.527 287.983 118.948 307.253 149.084C326.522 179.221 375.002 227.094 378.512 197.589C382.021 168.083 386.675 103.031 357.506 74.2748Z" fill="white"/>
<path d="M333.392 82.9477C329.866 88.4673 334.024 96.5042 336.544 99.8327C320.556 80.6197 311.453 78.7352 300.547 84.1704C289.642 89.6055 296.304 110.229 300.536 121.998C304.769 133.767 306.829 151.729 309.932 148.121C313.034 144.513 316.029 135.337 312.131 124.499C304.97 111.189 311.668 108.78 311.668 108.78C311.668 108.78 330.328 126.341 344.115 126.815C351.149 127.056 354.42 121.488 354.848 116.492C355.059 113.091 353.427 106.712 358.615 102.451M289.213 90.516C291.666 74.5049 328.336 45.5189 357.506 74.2748C386.675 103.031 382.021 168.083 378.512 197.589C375.002 227.094 326.522 179.221 307.253 149.084C287.983 118.948 286.76 106.527 289.213 90.516Z" stroke="black" stroke-width="2"/>
<path d="M103.139 195.291C90.4072 178.631 79.1056 168.819 79.2281 155.217C79.2851 148.884 82.6955 143.507 87.4738 138.015C92.9587 131.712 98.1808 124.432 107.432 115.323C116.682 106.214 143.25 91.8293 158.883 86.2003C182.999 111.537 183.758 168.718 186.141 168.233C173.728 170.349 149.392 167.479 137.733 166.842C139.897 180.046 129.111 198.38 131.658 208.329C134.204 218.279 134.639 223.097 138.387 233.507C142.136 243.918 119.783 248.707 117.997 236.554C116.21 224.402 115.871 211.951 103.139 195.291Z" fill="white"/>
<path d="M137.733 166.842C139.897 180.046 129.111 198.38 131.658 208.329C134.204 218.279 134.639 223.097 138.387 233.507C142.136 243.918 119.783 248.707 117.997 236.554C116.21 224.402 115.871 211.951 103.139 195.291C90.4072 178.631 79.1056 168.819 79.2281 155.217C79.2851 148.884 82.6955 143.507 87.4738 138.015M137.733 166.842C137.733 166.842 139.97 157.232 133.606 155.38M137.733 166.842C149.392 167.479 173.728 170.349 186.141 168.233C183.758 168.718 182.999 111.537 158.883 86.2003C143.25 91.8293 116.682 106.214 107.432 115.323C98.1808 124.432 92.9587 131.712 87.4738 138.015M110.13 127.579C101.097 123.455 87.4738 138.015 87.4738 138.015" stroke="black" stroke-width="2"/>
<path d="M356.84 328.483C372.869 314.966 386.023 307.826 388.841 294.518C390.153 288.323 387.984 282.336 384.505 275.942C380.51 268.602 376.396 258.903 370.242 249.95C364.088 240.997 340.019 218.8 325.97 209.928C296.952 229.458 283.862 285.126 281.64 284.138C293.303 288.885 317.684 291.339 329.206 293.234C324.241 305.659 330.814 325.89 326.179 335.054C321.543 344.219 320.078 348.83 314.17 358.185C308.262 367.54 329.053 377.044 333.422 365.564C337.791 354.084 340.811 342 356.84 328.483Z" fill="white"/>
<path d="M329.206 293.234C324.241 305.659 330.814 325.89 326.179 335.054C321.543 344.219 320.078 348.83 314.17 358.185C308.262 367.54 329.053 377.044 333.422 365.564C337.791 354.084 340.811 342 356.84 328.483C372.869 314.966 386.023 307.826 388.841 294.518C390.153 288.323 387.984 282.336 384.505 275.942M329.206 293.234C329.206 293.234 329.098 283.368 335.711 282.934M329.206 293.234C317.684 291.339 293.303 288.885 281.64 284.138C283.862 285.126 296.952 229.458 325.97 209.928C340.019 218.8 364.088 240.997 370.242 249.95C376.396 258.903 380.51 268.602 384.505 275.942M364.637 260.859C374.347 258.783 384.505 275.942 384.505 275.942" stroke="black" stroke-width="2"/>
<rect x="1" y="1" width="455" height="455" stroke="black" stroke-width="2"/>
</g>
</svg>
