<svg width="457" height="457" viewBox="0 0 457 457" fill="none" xmlns="http://www.w3.org/2000/svg">
<mask id="mask0_125_83" style="mask-type:alpha" maskUnits="userSpaceOnUse" x="0" y="0" width="457" height="457">
<rect x="1" y="1" width="455" height="455" fill="#FFE7E7" stroke="black" stroke-width="2"/>
</mask>
<g mask="url(#mask0_125_83)">
<rect width="457" height="457" fill="#FFE7E7"/>
<path d="M187.177 90.4791L595.864 215.838C621.696 223.761 625.733 258.637 602.394 272.252L350.034 419.466C342.558 423.827 333.598 424.864 325.323 422.326L-83.3642 296.967C-109.196 289.043 -113.232 254.167 -89.8937 240.553L162.466 93.3393C169.942 88.9779 178.902 87.9408 187.177 90.4791Z" fill="#D9D9D9" stroke="black" stroke-width="2"/>
<path d="M180.038 265.654C138.773 254.151 132.917 214.223 144.168 196.169C140.837 195.228 137.003 194.408 132.475 193.96C111.553 191.89 94.0364 187.289 101.387 171.694C107.267 159.217 123.937 151.261 131.537 148.842C126.018 149.714 112.771 152.042 103.936 154.38C95.1013 156.719 89.1499 150.687 87.2785 147.379C93.4866 145.261 110.303 140.661 127.902 139.21C149.901 137.395 164.944 141.632 159.733 152.994C155.565 162.084 136.577 171.822 127.604 175.554C130.407 175.967 139.302 175.053 152.456 168.095C160.57 163.803 168.285 165.709 174.04 169.098C197.96 164.534 285.667 186.7 311.125 202.578C331.492 215.281 393.697 256.179 393.697 256.179C389.386 255.713 374.563 265.996 330.143 269.058C285.723 272.119 226.157 278.51 180.038 265.654Z" fill="white"/>
<path d="M174.04 169.098C197.96 164.534 285.667 186.7 311.125 202.578C331.492 215.281 393.697 256.179 393.697 256.179C389.386 255.713 374.563 265.996 330.143 269.058C285.723 272.119 226.157 278.51 180.038 265.654C138.773 254.151 132.917 214.223 144.168 196.169M182.121 176.001C177.713 170.467 165.61 161.137 152.456 168.095C139.302 175.053 130.407 175.967 127.604 175.554C136.577 171.822 155.565 162.084 159.733 152.994C164.944 141.632 149.901 137.395 127.902 139.21C110.303 140.661 93.4866 145.261 87.2785 147.379C89.1499 150.687 95.1013 156.719 103.936 154.38C112.771 152.042 126.018 149.714 131.537 148.842C123.937 151.261 107.267 159.217 101.387 171.694C94.0364 187.289 111.553 191.89 132.475 193.96C153.396 196.03 159.505 206.027 169.575 199.423" stroke="black" stroke-width="2"/>
<line x1="264.806" y1="140.401" x2="69.4008" y2="288.194" stroke="black" stroke-width="2" stroke-linecap="round" stroke-dasharray="13 13"/>
<path d="M395.973 175.193L295.499 362.086L293.777 322.412L218.85 451.212L214.945 423.994L292.231 295.155L398.163 108.038L395.973 175.193Z" fill="white"/>
<path d="M292.231 295.155L398.163 108.038L395.973 175.193L295.499 362.086L293.777 322.412M292.231 295.155L214.945 423.994L218.85 451.212L293.777 322.412M292.231 295.155L293.777 322.412" stroke="black" stroke-width="2"/>
<path d="M264.961 324.75C264.961 324.75 284.738 322.413 291.626 322.637C298.513 322.862 312.095 329.268 311.9 335.225C311.706 341.182 300.915 339.837 300.915 339.837C300.915 339.837 308.078 345.039 304.732 352.882C301.387 360.724 293.412 358.477 293.412 358.477C293.412 358.477 295.91 372.473 289.909 375.26C286.931 376.643 283.491 377.276 280.782 377.563C282.64 378.053 284.407 379.482 284.731 383.042C285.456 391.017 271.486 396.525 271.486 396.525L257.71 396.076L167.668 554.763L98.7049 552.514L192.813 422.783C192.813 422.783 217.453 392.774 221.659 383.966C225.866 375.158 230.653 350.466 234.924 339.672C239.195 328.879 253.445 315.428 260.462 311.681C267.48 307.935 284.37 303.486 278.174 312.259C271.978 321.032 264.961 324.75 264.961 324.75Z" fill="white"/>
<path d="M264.961 324.75C264.961 324.75 284.738 322.413 291.626 322.637C298.513 322.862 312.095 329.268 311.9 335.225C311.706 341.182 300.915 339.837 300.915 339.837M264.961 324.75C264.961 324.75 271.978 321.032 278.174 312.259C284.37 303.486 267.48 307.935 260.462 311.681C253.445 315.428 239.195 328.879 234.924 339.672C230.653 350.466 225.866 375.158 221.659 383.966C217.453 392.774 192.813 422.783 192.813 422.783L98.7049 552.514L167.668 554.763L257.71 396.076L271.486 396.525C271.486 396.525 285.456 391.017 284.731 383.042C284.006 375.067 276.037 377.789 276.037 377.789C276.037 377.789 283.908 378.046 289.909 375.26C295.91 372.473 293.412 358.477 293.412 358.477M264.961 324.75L259.879 329.553M291.075 339.516L300.915 339.837M300.915 339.837C300.915 339.837 308.078 345.039 304.732 352.882C301.387 360.724 293.412 358.477 293.412 358.477M285.54 358.22L293.412 358.477" stroke="black" stroke-width="2"/>
<rect x="1" y="1" width="455" height="455" stroke="black" stroke-width="2"/>
<path d="M127.185 156C122.685 166.5 84.5 172.068 77 175.068C69.5 178.068 50 180.068 42 185.068C34 190.068 -13 239.568 -13 239.568L-7.5 183.568C-7.5 183.568 14.5 174.068 24.5 167.568C34.5 161.068 58.5 144.068 73 134.568C87.5 125.068 130 119.069 137 121.569C144 124.069 148 133.491 146 138.991H132.5H96C94.5045 139.43 93.2986 139.802 92.5 140.068C86.5 142.069 80 156 80 156C80 156 131.685 145.5 127.185 156Z" fill="white"/>
<path d="M132.5 138.991C131.171 136.005 130.291 134.255 129.5 133.068C127.766 130.468 105.741 136.134 96 138.991M132.5 138.991H96M132.5 138.991H146C148 133.491 144 124.069 137 121.569C130 119.069 87.5 125.068 73 134.568C58.5 144.068 34.5 161.068 24.5 167.568C14.5 174.068 -7.5 183.568 -7.5 183.568L-13 239.568C-13 239.568 34 190.068 42 185.068C50 180.068 69.5 178.068 77 175.068C84.5 172.068 122.685 166.5 127.185 156C131.685 145.5 80 156 80 156C80 156 86.5 142.069 92.5 140.068C93.2986 139.802 94.5045 139.43 96 138.991" stroke="black" stroke-width="2"/>
</g>
</svg>
