<svg width="457" height="457" viewBox="0 0 457 457" fill="none" xmlns="http://www.w3.org/2000/svg">
<mask id="mask0_125_99" style="mask-type:alpha" maskUnits="userSpaceOnUse" x="0" y="0" width="457" height="457">
<rect x="1" y="1" width="455" height="455" fill="#FFE7E7" stroke="black" stroke-width="2"/>
</mask>
<g mask="url(#mask0_125_99)">
<rect width="457" height="457" fill="#FFE7E7"/>
<rect x="-34.3339" y="58.2917" width="512.553" height="342.655" rx="31" transform="rotate(-0.130475 -34.3339 58.2917)" fill="#D9D9D9" stroke="black" stroke-width="2"/>
<path d="M143.533 212.283C159.845 205.659 177.063 200.949 195.924 177.552C203.654 167.964 209.864 159.101 215.808 151.673C224.368 140.976 232.377 133.253 243.578 130.621C252.414 128.545 261.062 131.463 270.334 136.246C279.606 141.029 292.501 148.176 305.965 155.36C305.965 155.36 353.622 198.178 366.78 218.028L267.809 285.472C266.403 283.351 263.979 276.723 262.702 273.773C255.531 257.211 250.389 232.481 247.308 216.031C241.845 218.355 235.276 219.119 228.424 219.271C213.139 219.611 196.445 216.908 187.48 221.695C174.494 228.627 167.934 230.872 154.716 239.635C141.499 248.397 127.222 218.906 143.533 212.283Z" fill="white"/>
<path d="M243.578 130.621C252.414 128.545 261.062 131.463 270.334 136.246C279.606 141.029 292.501 148.176 305.965 155.36C305.965 155.36 353.622 198.178 366.78 218.028L267.809 285.472C266.403 283.351 263.979 276.723 262.702 273.773C255.531 257.211 250.389 232.481 247.308 216.031M243.578 130.621C255.668 177.059 247.308 216.031 247.308 216.031M243.578 130.621C232.377 133.253 224.368 140.976 215.808 151.673M247.308 216.031C241.845 218.355 235.276 219.119 228.424 219.271M215.808 151.673C209.864 159.101 203.654 167.964 195.924 177.552C177.063 200.949 159.845 205.659 143.533 212.283C127.222 218.906 141.499 248.397 154.716 239.635C167.934 230.872 174.494 228.627 187.48 221.695C196.445 216.908 213.139 219.611 228.424 219.271M215.808 151.673L228.424 219.271" stroke="black" stroke-width="2"/>
<line x1="243.43" y1="102.689" x2="251.925" y2="341.881" stroke="black" stroke-width="2" stroke-linecap="round" stroke-dasharray="13 13"/>
<path d="M168.494 248.927C161.557 265.284 136.662 283.343 113.347 291.424C90.0326 299.504 79.5963 294.413 79.5963 294.413L12.0774 461.435L-33.7457 445.994C-33.7457 445.994 39.976 290.92 41.9509 278.448C43.9259 265.975 42.0622 257.864 40.2486 237.13C38.4351 216.396 60.2534 152.444 67.452 144.849C74.6506 137.254 67.9193 206.273 67.9193 206.273C67.9193 206.273 96.1241 130.389 104.624 130.667C113.125 130.944 88.0521 208.822 88.0521 208.822C88.0521 208.822 137.313 119.241 143.11 129.02C148.907 138.799 106.032 216.447 106.032 216.447C106.032 216.447 162.892 152.716 173.807 156.679C184.722 160.643 126.532 238.451 122.226 248.604C127.878 264.977 175.431 232.569 168.494 248.927Z" fill="white" stroke="black" stroke-width="2"/>
<path d="M332.347 325.778L329.347 116.413L401.636 95.1445L407.143 318.324L409.394 441.162L381.515 443.352L377.645 321.564L332.347 325.778Z" fill="white"/>
<path d="M407.143 318.324L401.636 95.1445L329.347 116.413L332.347 325.778L377.645 321.564M407.143 318.324L409.394 441.162L381.515 443.352L377.645 321.564M407.143 318.324L377.645 321.564" stroke="black" stroke-width="2"/>
<path d="M373.103 373C373.103 373 362.602 364.02 361.123 356.512C361.082 356.47 361.041 356.427 361 356.382C356.236 351.182 367.96 339.557 372.556 338.5C377.516 337.36 388.17 337.693 394 338.5C400.194 339.358 404.751 342.126 408.574 344C408.574 344 420.5 358.5 422.5 374C424.5 389.5 416.5 422 421 435L455.972 508.882L427.119 580.18L387 442L391.5 432C391.5 432 395.5 423.032 387 402.5C384.764 397.1 383.784 391.653 383.414 386.459C383.346 387.27 383.205 388.115 383 389C381.5 395.5 376.5 394.395 376.5 394.395C383.933 397.402 386 402.619 384.5 406.5C383 410.381 376.5 409.5 376.5 409.5C376.5 409.5 383.314 410.94 384.5 419C385.687 427.06 377.5 422.5 377.5 422.5C377.5 422.5 367.223 419.97 366 412C364.777 404.03 376.5 409.5 376.5 409.5C376.5 409.5 362.421 399.533 364.5 394.395C366.58 389.256 375.5 393.5 375.5 393.5C375.5 393.5 361.312 383.197 362 376C362.688 368.803 373.103 373 373.103 373Z" fill="white"/>
<path d="M373.103 373C373.103 373 360.052 361.839 361 354C361.948 346.161 375.5 352.761 375.5 352.761L378.278 352.376C378.278 352.376 386.119 360.792 383 368.5C379.881 376.208 373.103 373 373.103 373ZM373.103 373C373.103 373 362.688 368.803 362 376C361.312 383.197 375.5 393.5 375.5 393.5M373.103 373C382.614 378.2 384.5 382.5 383 389C381.5 395.5 376.5 394.395 376.5 394.395M375.5 393.5C375.5 393.5 366.58 389.256 364.5 394.395C362.421 399.533 376.5 409.5 376.5 409.5M375.5 393.5L376.5 394.395M376.5 394.395C383.933 397.402 386 402.619 384.5 406.5C383 410.381 376.5 409.5 376.5 409.5M376.5 409.5C376.5 409.5 364.777 404.03 366 412C367.223 419.97 377.5 422.5 377.5 422.5C377.5 422.5 385.687 427.06 384.5 419C383.314 410.94 376.5 409.5 376.5 409.5ZM394 338.5C400.194 339.358 404.751 342.126 408.574 344C408.574 344 420.5 358.5 422.5 374C424.5 389.5 416.5 422 421 435L455.972 508.882L427.119 580.18L387 442L391.5 432C391.5 432 395.5 423.032 387 402.5C378.5 381.968 388.144 360.767 380.5 355.299C375.601 351.795 365.764 361.583 361 356.382C356.236 351.182 367.96 339.557 372.556 338.5C377.516 337.36 388.17 337.693 394 338.5Z" stroke="black" stroke-width="2"/>
<rect x="1" y="1" width="455" height="455" stroke="black" stroke-width="2"/>
</g>
</svg>
