<svg width="841" height="457" viewBox="0 0 841 457" fill="none" xmlns="http://www.w3.org/2000/svg">
<mask id="mask0_125_111" style="mask-type:alpha" maskUnits="userSpaceOnUse" x="0" y="0" width="841" height="457">
<rect x="1" y="1" width="839" height="455" fill="#FFE7E7" stroke="black" stroke-width="2"/>
</mask>
<g mask="url(#mask0_125_111)">
<rect width="841" height="457" fill="#FFE7E7"/>
<rect x="153.507" y="416.347" width="369.933" height="549.228" rx="7" transform="rotate(-92.2605 153.507 416.347)" fill="#D9D9D9" stroke="black" stroke-width="2"/>
<path d="M300.714 255.525C315.1 274.616 337.543 293.342 344.714 311.525C332.58 325.055 313.065 330.769 273.214 335.525C233.363 340.282 161.877 342.101 184.958 318.045C208.039 293.989 249.1 268.616 300.714 255.525Z" fill="white" stroke="black" stroke-width="2"/>
<path d="M465.861 50.5249C451.475 69.6165 429.031 88.3422 421.861 106.525C433.995 120.055 453.51 125.769 493.361 130.525C533.211 135.282 604.697 137.101 581.616 113.045C558.535 88.989 517.475 63.6165 465.861 50.5249Z" fill="white" stroke="black" stroke-width="2"/>
<path d="M389.604 382.644C390.523 377.385 391.514 369.889 400.127 363.766C408.74 357.644 411.354 351.25 411.354 351.25C411.354 351.25 384.47 350.508 374.24 338.893C369.021 332.967 378.578 328.072 382.604 324.144C370.104 307.75 385.468 291.644 411.354 295.144C437.24 298.644 450.373 327.735 421.009 330.263C431.636 333.462 434.818 339.278 436.104 345.144C438.004 353.807 426.604 360.267 416.104 366.644C405.604 373.022 388.686 387.903 389.604 382.644Z" fill="white"/>
<path d="M421.009 330.263C450.373 327.735 437.24 298.644 411.354 295.144C385.468 291.644 370.104 307.75 382.604 324.144M382.604 324.144C378.578 328.072 369.021 332.967 374.24 338.893C384.47 350.508 411.354 351.25 411.354 351.25C411.354 351.25 408.74 357.644 400.127 363.766C391.514 369.889 390.523 377.385 389.604 382.644C388.686 387.903 405.604 373.022 416.104 366.644C426.604 360.267 438.004 353.807 436.104 345.144C434.205 336.481 428.171 327.928 400.127 327.75C404.807 327.564 418.735 322.729 421.009 315.741M382.604 324.144C385.402 321.538 393.242 315.282 393.24 307.75" stroke="black" stroke-width="2"/>
<path d="M621.409 229.644C620.491 224.385 619.5 216.889 610.886 210.766C602.273 204.644 599.659 198.25 599.659 198.25C599.659 198.25 626.543 197.508 636.773 185.893C641.992 179.967 632.436 175.072 628.409 171.144C640.909 154.75 625.545 138.644 599.659 142.144C573.773 145.644 560.64 174.735 590.004 177.263C579.377 180.462 576.195 186.278 574.909 192.144C573.009 200.807 584.409 207.267 594.909 213.644C605.409 220.022 622.327 234.903 621.409 229.644Z" fill="white"/>
<path d="M590.004 177.263C560.64 174.735 573.773 145.644 599.659 142.144C625.545 138.644 640.909 154.75 628.409 171.144M628.409 171.144C632.436 175.072 641.992 179.967 636.773 185.893C626.543 197.508 599.659 198.25 599.659 198.25C599.659 198.25 602.273 204.644 610.886 210.766C619.5 216.889 620.491 224.385 621.409 229.644C622.327 234.903 605.409 220.022 594.909 213.644C584.409 207.267 573.009 200.807 574.909 192.144C576.809 183.481 582.843 174.928 610.886 174.75C606.206 174.564 592.279 169.729 590.004 162.741M628.409 171.144C625.611 168.538 617.772 162.282 617.773 154.75" stroke="black" stroke-width="2"/>
<path d="M491.789 194.437C507.147 205.004 533.151 230.952 539.656 241.261C546.16 251.57 508.021 281.007 491.74 287.976C478.906 285.343 451.68 281.515 438.813 275.679C441.262 276.885 458.393 215.053 491.789 194.437Z" fill="white" stroke="black" stroke-width="2"/>
<path d="M222.862 68.4374C207.503 79.0045 181.499 104.952 174.995 115.261C168.491 125.57 206.63 155.007 222.911 161.976C235.745 159.343 262.971 155.515 275.837 149.679C273.389 150.885 256.257 89.0525 222.862 68.4374Z" fill="white" stroke="black" stroke-width="2"/>
<path d="M622.5 325.5C641.067 311.053 654.592 296.684 658.634 286.232C662.675 275.781 659.876 267.732 655.835 262.263C651.793 256.793 637.767 243.732 619.634 249.232C601.5 254.732 593.075 279.209 593.075 279.209C586.96 292.92 596.101 315.43 590.5 325.5C584.899 335.57 580.388 341.136 573.351 351.363C566.315 361.59 589.205 373.163 594.609 360.485C600.013 347.807 603.933 339.947 622.5 325.5Z" fill="white" stroke="black" stroke-width="2"/>
<path d="M335.155 196.5C316.588 182.053 303.063 167.684 299.021 157.232C294.98 146.781 297.779 138.732 301.82 133.263C305.862 127.793 319.888 114.732 338.021 120.232C356.155 125.732 364.579 150.209 364.579 150.209C370.694 163.92 361.554 186.43 367.155 196.5C372.756 206.57 377.267 212.136 384.303 222.363C391.34 232.59 368.45 244.163 363.046 231.485C357.641 218.807 353.722 210.947 335.155 196.5Z" fill="white" stroke="black" stroke-width="2"/>
<rect x="1" y="1" width="839" height="455" stroke="black" stroke-width="2"/>
</g>
</svg>
