<svg width="286" height="410" viewBox="0 0 286 410" fill="none" xmlns="http://www.w3.org/2000/svg">
<path d="M69.7287 50.9327C61.8826 60.4008 55.6711 89.1319 55.3442 96.6412C55.0173 104.15 55.3442 111.66 55.3442 111.66L67.2012 230.828C67.2012 230.828 67.7672 265.436 70.3825 270.66C72.9979 275.884 77.9017 282.952 77.9017 282.952C64.1711 295.473 60.575 297.759 52.402 313.104C44.229 328.449 49.4596 344.12 44.229 361.098C38.9983 378.075 28.2099 378.728 10.2292 366.321C-7.75142 353.915 4.67162 338.243 12.8446 328.449C21.0177 318.654 20.0368 306.574 18.0753 295.473C16.1138 284.373 16.7676 260.865 22.9791 238.011C29.1906 215.157 40.9597 193.406 51.4212 188.509C51.4212 188.509 46.8443 165.53 46.8443 160.96C44.229 160.96 42.9968 165.08 40.9598 165.53C38.9227 165.981 32.3843 165.53 29.8445 162.266C27.3046 159.001 35.9804 154.227 37.3636 149.532C38.7468 144.838 37.3636 135.493 40.9598 125.699C44.5559 115.904 55.3442 111.66 55.3442 111.66C55.3442 111.66 55.0173 104.15 55.3442 96.6412C55.6711 89.1319 61.8826 60.4008 69.7287 50.9327C77.5748 41.4645 93.9208 33.6287 102.094 33.6287C108.816 33.6287 120.845 35.0626 125.632 36.8431C130.138 25.5715 130.399 11 133.805 5.99997C137.211 0.999974 150.003 -0.5 154 3.5C157.997 7.5 153 27.3454 151 32.2681C163.23 29.9454 178.264 25.6319 188.728 27.4254C202.785 29.835 218.804 41.7908 229.92 53.8711C241.035 65.9514 248.554 81.2961 248.881 87.4995C249.208 93.7028 247.573 97.9471 250.516 101.865C253.458 105.783 280.265 132.229 282.554 135.493C284.842 138.758 285.823 157.042 284.188 163.898C282.554 170.754 276.669 179.243 269.804 184.14C262.938 189.038 249.862 187.732 236.131 183.487C222.4 179.243 211.537 168.593 205.727 166.51C199.918 164.427 184.805 158.348 180.555 163.898C176.305 169.448 173.035 192.956 164.535 206.015C156.036 219.075 124.797 263.804 120.401 260.865C116.005 257.927 129.153 217.24 133.805 202.424C138.457 187.608 145.901 168.142 147.209 159.327C139.036 168.142 125.959 167.489 125.632 162.266C125.632 158.348 132.497 154.554 136.093 149.532C139.69 144.511 153.093 120.475 157.997 113.619C162.901 106.762 197.228 91.5564 203.439 87.173C203.439 87.173 208.185 80.4385 208.016 74.7664C207.833 68.6064 200.497 63.9922 202.785 62.3598C205.074 60.7273 215.862 67.5836 217.17 69.5425C218.477 71.5015 216.516 78.0313 213.247 81.9492C209.977 85.867 203.439 87.173 203.439 87.173C197.228 91.5564 162.901 106.762 157.997 113.619C153.093 120.475 139.69 144.511 136.093 149.532C132.497 154.554 125.632 158.348 125.632 162.266C125.959 167.489 139.036 168.142 147.209 159.327C145.901 168.142 138.457 187.608 133.805 202.424C129.153 217.24 116.005 257.927 120.401 260.865C124.797 263.804 156.036 219.075 164.535 206.015C173.035 192.956 176.305 169.448 180.555 163.898C184.805 158.348 199.918 164.427 205.727 166.51C211.537 168.593 222.4 179.243 236.131 183.487C249.862 187.732 262.938 189.038 269.804 184.14C276.669 179.243 282.554 170.754 284.188 163.898C285.823 157.042 284.842 138.758 282.554 135.493C280.265 132.229 253.458 105.783 250.516 101.865C247.573 97.9471 249.208 93.7028 248.881 87.4995C248.554 81.2961 241.035 65.9514 229.92 53.8711C218.804 41.7908 202.785 29.835 188.728 27.4254C178.264 25.6319 163.23 29.9454 151 32.2681C153 27.3454 157.997 7.5 154 3.5C150.003 -0.5 137.211 0.999974 133.805 5.99997C130.399 11 130.138 25.5715 125.632 36.8431C120.845 35.0626 108.816 33.6287 102.094 33.6287C93.9208 33.6287 77.5748 41.4645 69.7287 50.9327Z" fill="white"/>
<path d="M245.285 185.879C245.285 185.879 251.169 190.017 253.458 195.241C254.376 197.336 255.092 210.912 256.727 216.463C258.362 222.013 268.496 232.461 267.188 245.194C265.881 257.927 252.477 271.64 249.862 276.863C247.246 282.087 241.035 314.083 230.9 323.225C220.766 332.367 212.266 337.917 212.266 337.917M182.843 335.305C182.843 335.305 185.131 349.018 188.074 350.324C191.016 351.629 212.266 337.917 212.266 337.917M212.266 337.917C214.554 351.303 209.977 363.709 203.112 371.545C196.247 379.381 185.458 371.545 175.978 365.668C166.497 359.792 163.555 344.447 163.555 344.447M226.323 295.8C221.301 305.96 204.747 319.96 190.362 330.081C178.048 336.284 149.497 348.567 132.497 362.73C115.498 376.893 115.171 384.605 110.267 393.42C105.363 402.235 109.613 412.03 93.2669 408.112C76.9209 404.194 74.6325 386.564 66.1326 383.625C57.6326 380.687 73.3248 361.424 81.8247 360.445C90.3246 359.465 106.998 344.447 115.497 333.02C123.997 321.592 127.594 311.798 127.594 311.798M149.824 245.847C140.997 260.212 127.594 311.798 127.594 311.798M127.594 311.798C127.594 311.798 122.69 317.348 111.574 314.41C100.459 311.471 77.9017 282.952 77.9017 282.952M127.594 38.0338C127.361 37.628 126.665 37.2275 125.632 36.8431M80.844 58.1155C97.4414 63.7899 127.015 33.6287 139.69 33.6287C142.93 33.6287 146.8 33.0658 151 32.2681M203.439 87.173C197.228 91.5565 162.901 106.762 157.997 113.619C153.093 120.475 139.69 144.511 136.093 149.532C132.497 154.554 125.632 158.348 125.632 162.266C125.959 167.489 139.036 168.142 147.209 159.327C145.901 168.142 138.457 187.608 133.805 202.424C129.153 217.24 116.005 257.927 120.401 260.865C124.797 263.804 156.036 219.075 164.535 206.015C173.035 192.956 176.305 169.448 180.555 163.898C184.805 158.348 199.918 164.427 205.727 166.51C211.537 168.593 222.4 179.243 236.131 183.487C249.862 187.732 262.938 189.038 269.804 184.14C276.669 179.243 282.554 170.754 284.188 163.898C285.823 157.042 284.842 138.758 282.554 135.493C280.265 132.229 253.458 105.783 250.516 101.865C247.573 97.9471 249.208 93.7028 248.881 87.4995C248.554 81.2961 241.035 65.9514 229.92 53.8711C218.804 41.7908 202.785 29.835 188.728 27.4254C178.264 25.6319 163.23 29.9454 151 32.2681M203.439 87.173C203.439 87.173 209.977 85.867 213.247 81.9492C216.516 78.0313 218.477 71.5015 217.17 69.5425C215.862 67.5836 205.074 60.7273 202.785 62.3598C200.497 63.9922 207.833 68.6064 208.016 74.7664C208.185 80.4385 203.439 87.173 203.439 87.173ZM55.3442 111.66C55.3442 111.66 55.0173 104.15 55.3442 96.6412C55.6711 89.1319 61.8826 60.4008 69.7287 50.9327C77.5748 41.4645 93.9208 33.6287 102.094 33.6287C108.816 33.6287 120.845 35.0626 125.632 36.8431M55.3442 111.66C55.3442 111.66 44.5559 115.904 40.9598 125.699C37.3636 135.493 38.7468 144.838 37.3636 149.532C35.9804 154.227 27.3046 159.001 29.8445 162.266C32.3843 165.53 38.9227 165.981 40.9598 165.53C42.9968 165.08 44.229 160.96 46.8443 160.96C46.8443 165.53 51.4212 188.509 51.4212 188.509M55.3442 111.66L67.2012 230.828M67.2012 230.828C67.2012 230.828 67.7672 265.436 70.3825 270.66C72.9979 275.884 77.9017 282.952 77.9017 282.952M67.2012 230.828C67.2012 230.828 52.5141 254.662 51.4212 246.5C50.3282 238.338 53.9243 224.299 55.0173 219.401C56.1103 214.504 53.3072 202.874 51.4212 188.509M51.4212 188.509C40.9597 193.406 29.1906 215.157 22.9791 238.011C16.7676 260.865 16.1138 284.373 18.0753 295.473C20.0368 306.574 21.0177 318.654 12.8446 328.449C4.67162 338.243 -7.75142 353.915 10.2292 366.321C28.2099 378.728 38.9983 378.075 44.229 361.098C49.4596 344.12 44.229 328.449 52.402 313.104C60.575 297.759 64.1711 295.473 77.9017 282.952M151 32.2681C153 27.3454 157.997 7.5 154 3.5C150.003 -0.5 137.211 0.999974 133.805 5.99997C130.399 11 130.138 25.5715 125.632 36.8431" stroke="black"/>
<g style="mix-blend-mode:darken">
<path d="M250.485 104.615C234 95.7685 208.939 91.4619 200 92.5C191.061 93.5381 163.386 106.666 158.482 113.522C153.578 120.378 140.174 144.414 136.578 149.436C132.982 154.457 126.117 158.251 126.117 162.169C126.444 167.393 139.521 168.046 147.694 159.231C146.386 168.046 138.942 187.511 134.29 202.327C129.638 217.143 116.49 257.831 120.886 260.769C125.282 263.707 156.52 218.978 165.02 205.919C173.52 192.859 176.79 169.352 181.039 163.801C185.289 158.251 200.403 164.33 206.212 166.413C212.021 168.496 222.885 179.146 236.616 183.391C250.347 187.635 263.423 188.941 270.289 184.044C277.154 179.146 283.039 170.658 284.673 163.801C286.308 156.945 285.327 138.662 283.039 135.397C280.75 132.132 266.969 113.461 250.485 104.615Z" fill="#F5F5F5"/>
</g>
<g style="mix-blend-mode:darken">
<path d="M111.375 314.49C122.491 317.429 127.395 311.878 127.395 311.878C185.194 257.948 204.301 124.792 203.24 87.2537C202.179 49.7157 200.012 38.552 185.301 32.3487C170.59 26.1455 163.031 30.0261 150.801 32.3488C146.601 33.1465 142.731 33.7094 139.491 33.7094C136.48 33.7094 132.517 35.4108 128 37.9295C127.768 37.5237 126.467 37.3082 125.433 36.9238C120.646 35.1433 108.617 33.7094 101.895 33.7094C93.7219 33.7094 77.3758 41.5451 69.5297 51.0133C61.6836 60.4815 55.4722 89.2126 55.1453 96.7218C54.8184 104.231 55.1453 111.74 55.1453 111.74L67.0022 230.909C67.0022 230.909 67.5682 265.517 70.1836 270.741C72.7989 275.965 77.7028 283.033 77.7028 283.033C77.7028 283.033 100.26 311.552 111.375 314.49Z" fill="#F5F5F5"/>
</g>
<g style="mix-blend-mode:darken">
<path d="M93.5826 408.084C109.929 412.002 105.679 402.207 110.582 393.392C115.486 384.577 115.813 376.865 132.813 362.702C149.813 348.539 178.364 336.256 190.678 330.053C205.062 319.932 221.793 307.632 226.816 297.472C235.708 282.372 252.316 245.819 220.316 228.472C188.316 211.125 159.865 232.703 150.14 245.819C141.313 260.184 127.909 311.77 127.909 311.77C127.909 311.77 124.313 321.564 115.813 332.991C107.313 344.419 90.6403 359.437 82.1404 360.417C73.6405 361.396 57.9483 380.659 66.4482 383.597C74.9482 386.536 77.2366 404.166 93.5826 408.084Z" fill="#F5F5F5"/>
</g>
</svg>
