<svg width="281" height="383" viewBox="0 0 281 383" fill="none" xmlns="http://www.w3.org/2000/svg">
<path d="M152.179 111.505C152.179 111.505 164.626 124.259 171.178 138.322C177.729 152.384 174.781 162.195 175.763 170.044C176.746 177.892 184.608 183.11 187.883 190.32C191.159 197.529 218.346 188.684 232.104 176.257C241.904 167.405 248.213 154.736 252.216 146.17M252.216 146.17C253.833 142.711 255.073 139.921 256.016 138.322C259.291 132.762 253.395 123.278 250.775 116.084C248.154 108.889 242.913 103.33 233.414 104.965C234.724 87.6975 229.374 73.5697 226.535 68.6643C218.346 53.6209 205.899 44.7911 180.677 37.2694C162.688 31.9047 151.697 36.3552 142 38.5183C141.2 24.1331 151.652 11.5 148.576 6.99999C145.5 2.5 133.448 -2.10003 127 3.49997C120.552 9.09997 112.98 23.0359 113.5 30.5C113.5 30.5 107 28.5 100 28.5C93 28.5 82.0812 36.6153 68.9788 42.8289C55.8764 49.0425 48.3425 54.929 41.1362 66.7021C40.0443 71.7166 36.4193 84.9504 30.6543 97.77C23.448 113.794 13.9487 132.108 8.05262 138.322C2.15653 144.535 -0.791511 146.497 2.15653 155.327C5.10457 164.157 4.44942 171.679 11.3282 174.949C18.207 178.219 35.2401 171.679 35.2401 171.679C39.957 167.562 41.3546 167.672 41.4638 168.242M252.216 146.17C251.299 149.986 249.399 158.14 249.137 160.233C248.809 162.849 247.827 173.314 245.534 178.219C243.699 182.144 236.69 199.04 233.414 206.998M148.576 210.268C155.673 205.145 174.912 195.487 195.09 197.841C201.75 199.476 219.395 203.859 236.69 208.306C258.309 213.866 275.669 218.771 279.273 247.55C282.876 276.329 272.394 292.026 263.222 300.856C254.05 309.686 254.706 316.226 256.998 325.383C259.291 334.54 259.619 341.408 248.154 347.621C236.69 353.835 230.466 351.873 224.242 343.043C218.019 334.213 219.657 328.653 224.242 325.383C228.828 322.113 224.57 312.302 221.622 308.378C219.263 305.238 217.582 302.055 217.036 300.856M217.036 300.856L224.242 302.491M217.036 300.856C213.324 299.657 205.375 296.343 203.279 292.68M203.279 292.68L208.847 289.083M203.279 292.68C199.675 293.552 190.242 297.389 181.332 305.761C170.195 316.226 165.282 326.037 150.869 336.175C136.456 346.313 124.992 350.237 119.096 345.332C113.199 340.426 109.269 340.754 107.631 349.91C105.993 359.067 106.976 368.551 92.2356 377.381C77.4954 386.211 67.341 381.959 62.1001 368.224C56.8591 354.489 60.7898 349.91 62.1001 343.043C63.4103 336.175 53.2559 329.634 42.774 316.88C32.2921 304.126 17.5519 288.756 15.5865 278.291C13.6211 267.826 13.2936 258.669 11.3282 253.436C9.36284 248.204 9.0353 230.544 11.3282 223.023C13.6211 215.501 14.9314 201.112 20.1723 194.244C24.3651 188.75 36.1136 181.272 41.4638 178.219M33.2748 191.955C36.8779 187.376 43.8222 177.238 42.774 173.314C42.3632 171.776 41.8558 170.045 41.4638 168.242M41.4638 168.242C42.774 138.322 51.509 116.193 54.8937 106.6" stroke="black"/>
<g style="mix-blend-mode:darken">
<path d="M92.7842 377.749C107.524 368.92 106.542 359.436 108.18 350.279C109.082 345.233 95.9536 336.115 83.5486 334.287C73.442 332.798 63.8157 337.295 62.6487 343.412C61.3385 350.279 57.4077 354.857 62.6487 368.593C67.8897 382.328 78.044 386.579 92.7842 377.749Z" fill="#F5F5F5"/>
</g>
<g style="mix-blend-mode:darken">
<path d="M226.468 68.4252C218.279 53.3818 197.823 39.1488 179 40C160.177 40.8512 157.89 44.5821 148.433 63.179C138.976 81.7759 145.224 104.032 152.112 111.266C159 118.5 164.559 124.02 171.111 138.083C177.662 152.145 174.714 161.956 175.696 169.805C176.679 177.653 184.541 182.871 187.816 190.08C191.092 197.29 218.933 190.08 222.433 177.679C225.933 165.278 210.933 142.679 233.347 104.726C234.657 87.4584 229.307 73.3307 226.468 68.4252Z" fill="#F5F5F5"/>
</g>
<g style="mix-blend-mode:darken">
<path d="M218 204.5C205.5 201 185.361 189 149.5 209.5C121.5 227.5 102.5 187.5 97.5 214.5C92.4998 241.5 90.4998 287.5 125 344.5C130.896 349.405 138.587 344.138 153 334C167.413 323.862 172.863 313.965 184 303.5C192.909 295.128 199.586 295.398 207.307 288.636C215.029 281.875 226.189 211.077 218 204.5Z" fill="#F5F5F5"/>
</g>
<g style="mix-blend-mode:darken">
<path d="M126.5 3.99998C120.5 10 114.887 18.0818 113.5 29.4999C112.113 40.9181 109.5 75.9999 114.5 81.4999C119.5 86.9999 136.887 87.9999 138.887 81.4999C140.887 74.9999 141.5 53.9999 141.5 38.4999C141.5 22.9999 151.039 11.5818 147.963 7.08176C144.887 2.58177 132.539 -2.039 126.5 3.99998Z" fill="#F5F5F5"/>
</g>
</svg>
