<svg width="237" height="269" viewBox="0 0 237 269" fill="none" xmlns="http://www.w3.org/2000/svg">
<path d="M137.276 20.2159C135.334 16.2974 110.952 11.0917 99.5 13C89.1704 14.7212 81 17.0585 68.6239 31.6835M137.276 20.2159C142.481 18.4871 163.527 23.5462 175 30C183.338 34.6899 190.737 45.0737 193 55.6422M137.276 20.2159C102.878 43.3855 110.502 94.8314 79.5 221M79.5 221C71 217 65.5 204.5 63.5 197.11C61.5 189.72 58.316 171.86 57.5 168M79.5 221C90.5 222 101.5 216.639 108.867 210.5C116.233 204.361 124.764 197.11 129.975 192M193 55.6422C195.263 66.2107 196.316 75.3956 193 87.5C191.169 94.1849 188.949 109.19 182.5 121M193 55.6422C196.178 49.8086 202.482 47.1513 212.309 43.3855C224.593 38.6782 232.144 40.4414 234.716 55.6422C237.288 70.8431 235.987 86.6391 227.436 122.43C217.369 102.276 222.228 83.0098 221.836 75.8046C221.444 68.5994 213.648 70.6392 207.141 89.3151C201.209 106.338 189.321 125.028 182.5 121M182.5 121C176.692 131.637 164.833 152.262 156.5 163.5M50 85.4733C50.7791 81.0051 52.3953 68.4316 53.5 64.4733C58.3846 46.9703 61.1174 40.554 68.6239 31.6835M50 85.4733C50 101.09 49.4345 111 51.2515 126M50 85.4733C44.2701 90.6521 42.3376 57.2787 45.4574 42.9556C47.2573 34.6923 42.237 24.7591 33.05 39.5C23.863 54.2409 18.8158 56.2882 14.2903 60.6155C27.9076 21.0629 32.3689 19.3305 40.8665 10.6634C49.6002 1.75555 67.3231 -5.41929 68.6239 10.6634C69.3865 20.0913 68.3933 24.4819 68.6239 31.6835M51.2515 126C47.4882 120.934 23.971 121.641 14.2903 130.409C3.55483 140.133 -2.09861 156.232 3.56884 181.27C9.23629 206.308 21.2597 228.124 21.1236 234.21C20.9874 240.296 37.8781 235.983 36.653 232.897C30.8886 218.375 31.7825 204.278 33.05 197.11C34.3175 189.942 43.9888 173.898 57.5 168M51.2515 126C53.0685 141 55.809 160 57.5 168M156.5 163.5C164.438 162.94 183.093 164.074 187.817 181.27C192.541 198.466 181.777 214.142 165.41 228.169C149.042 242.195 130.532 253.647 124.764 264.035C118.996 274.424 105.259 260.831 108.867 257.037C114.536 251.074 127.901 230.415 129.975 225.25C133.101 217.462 131.998 200.551 129.975 192M156.5 163.5C148.522 174.259 139.912 182.255 129.975 192" stroke="black"/>
</svg>
