<svg width="16" height="16" viewBox="0 0 16 16" fill="none" xmlns="http://www.w3.org/2000/svg">
<path d="M8.707 0.293031C8.51947 0.105559 8.26517 0.000244141 8 0.000244141C7.73484 0.000244141 7.48053 0.105559 7.293 0.293031L0.293003 7.29303C0.110845 7.48163 0.0100503 7.73423 0.0123288 7.99643C0.0146072 8.25863 0.119776 8.50944 0.305184 8.69485C0.490592 8.88026 0.741405 8.98543 1.0036 8.9877C1.2658 8.98998 1.5184 8.88919 1.707 8.70703L2 8.41403V15C2 15.2652 2.10536 15.5196 2.2929 15.7071C2.48043 15.8947 2.73479 16 3 16H5C5.26522 16 5.51957 15.8947 5.70711 15.7071C5.89465 15.5196 6 15.2652 6 15V13C6 12.7348 6.10536 12.4805 6.2929 12.2929C6.48043 12.1054 6.73479 12 7 12H9C9.26522 12 9.51957 12.1054 9.70711 12.2929C9.89465 12.4805 10 12.7348 10 13V15C10 15.2652 10.1054 15.5196 10.2929 15.7071C10.4804 15.8947 10.7348 16 11 16H13C13.2652 16 13.5196 15.8947 13.7071 15.7071C13.8946 15.5196 14 15.2652 14 15V8.41403L14.293 8.70703C14.4816 8.88919 14.7342 8.98998 14.9964 8.9877C15.2586 8.98543 15.5094 8.88026 15.6948 8.69485C15.8802 8.50944 15.9854 8.25863 15.9877 7.99643C15.99 7.73423 15.8892 7.48163 15.707 7.29303L8.707 0.293031Z" fill="black"/>
</svg>
