<svg width="108" height="84" viewBox="0 0 108 84" fill="none" xmlns="http://www.w3.org/2000/svg">
<path d="M56.7266 44.6581C62.882 52.6676 78.5491 56.1915 82.7147 62.731C86.8802 69.2705 89.3098 71.9976 93.1086 79.4368C96.9074 86.876 111.086 77.0364 105.314 69.7784C99.5427 62.5203 92.8603 55.9055 90.2569 40.2915C87.6535 24.6775 88.0838 13.3866 80.5284 6.43166C77.0108 3.19361 72.2882 2.29588 66.7964 2.09257M56.7266 44.6581C56.7266 44.6581 50.2785 40.9287 52.544 36.4673M56.7266 44.6581C51.0582 51.4094 40.0744 66.2953 32.5003 72.0401C33.9981 70.9776 2.89386 41.0384 1.38905 14.6743C12.5607 8.96944 36.2434 1.89084 44.4265 1.34297C52.6097 0.795097 60.4924 1.85918 66.7964 2.09257M49.3511 9.18337C51.743 2.07923 66.7964 2.09257 66.7964 2.09257" stroke="black" stroke-width="2"/>
</svg>
