<svg width="94" height="98" viewBox="0 0 94 98" fill="none" xmlns="http://www.w3.org/2000/svg">
<path d="M62.2863 16.9727C63.436 21.7819 58.4823 26.4858 55.8616 28.2367C72.0176 18.4872 78.9771 19.3949 85.4111 25.969C91.845 32.5431 81.9924 45.6057 76.0623 52.953C70.1322 60.3002 64.2199 72.6024 62.8993 69.2616C61.5787 65.9209 61.7122 58.6354 67.1735 51.869C75.5737 44.1466 71.392 40.7714 71.392 40.7714C71.392 40.7714 55.6154 48.4841 45.6645 45.4119C40.5877 43.8445 39.6314 39.0635 40.5623 35.3947C41.2527 32.9164 43.9947 28.7697 41.3481 24.4475M91.9257 33.2986C94.1364 21.2716 75.1504 -8.47359 47.232 4.82211C19.3135 18.1178 6.54241 65.669 1.74737 87.5824C-3.04768 109.496 43.3734 87.3407 64.572 70.6117C85.7707 53.8827 89.715 45.3256 91.9257 33.2986Z" stroke="black" stroke-width="2"/>
</svg>
