<svg width="841" height="319" viewBox="0 0 841 319" fill="none" xmlns="http://www.w3.org/2000/svg">
<mask id="mask0_129_171" style="mask-type:alpha" maskUnits="userSpaceOnUse" x="0" y="0" width="841" height="319">
<rect x="1" y="1" width="839" height="317" fill="#FFE7E7" stroke="black" stroke-width="2"/>
</mask>
<g mask="url(#mask0_129_171)">
<rect width="841" height="319" fill="#FFE7E7"/>
<rect x="329.081" y="319.999" width="305.313" height="453.458" rx="7" transform="rotate(-92.2605 329.081 319.999)" fill="#D9D9D9" stroke="black" stroke-width="2"/>
<path d="M439.804 159.207C451.691 174.981 470.235 190.454 476.159 205.477C466.133 216.656 450.009 221.378 417.082 225.308L387.573 179.222C402.791 171.155 420.395 164.13 439.804 159.207Z" fill="white" stroke="black" stroke-width="2"/>
<path d="M641.532 10.9948C629.646 26.7694 611.102 42.2417 605.177 57.2654C615.203 68.4445 631.327 73.1656 664.254 77.0959L693.763 31.0106C678.545 22.9429 660.942 15.9179 641.532 10.9948Z" fill="white" stroke="black" stroke-width="2"/>
<path d="M369.774 272.834C388.845 252.958 404.511 248.422 421.862 240.986L447.063 285.604C414.136 289.534 350.703 292.711 369.774 272.834Z" fill="white" stroke="black" stroke-width="2"/>
<path d="M749.605 121.615C730.534 101.738 714.867 97.2029 697.516 89.7666L672.315 134.385C705.242 138.315 768.676 141.492 749.605 121.615Z" fill="white" stroke="black" stroke-width="2"/>
<path d="M523.992 292.333C524.75 287.987 525.569 281.794 532.686 276.735C539.803 271.676 541.963 266.393 541.963 266.393C541.963 266.393 519.749 265.78 511.297 256.183C506.985 251.286 514.881 247.242 518.208 243.997C507.88 230.451 520.574 217.143 541.963 220.035C563.351 222.927 574.202 246.964 549.94 249.053C558.721 251.696 561.35 256.501 562.413 261.348C563.983 268.506 554.563 273.843 545.888 279.113C537.212 284.382 523.233 296.678 523.992 292.333Z" fill="white"/>
<path d="M549.94 249.053C574.202 246.964 563.351 222.927 541.963 220.035C520.574 217.143 507.88 230.451 518.208 243.997M518.208 243.997C514.881 247.242 506.985 251.286 511.297 256.183C519.749 265.78 541.963 266.393 541.963 266.393C541.963 266.393 539.803 271.676 532.686 276.735C525.569 281.794 524.75 287.987 523.992 292.333C523.233 296.678 537.212 284.382 545.888 279.113C554.563 273.843 563.983 268.506 562.413 261.348C560.843 254.19 555.857 247.123 532.686 246.976C536.553 246.823 548.061 242.828 549.94 237.054M518.208 243.997C520.52 241.844 526.997 236.675 526.996 230.451" stroke="black" stroke-width="2"/>
<path d="M587.452 136.996C586.693 132.651 585.875 126.457 578.758 121.399C571.641 116.34 569.481 111.057 569.481 111.057C569.481 111.057 591.694 110.444 600.147 100.846C604.459 95.95 596.563 91.906 593.236 88.6603C603.564 75.1146 590.87 61.8069 569.481 64.6988C548.092 67.5907 537.242 91.6276 561.504 93.7165C552.723 96.3598 550.094 101.165 549.031 106.012C547.461 113.17 556.881 118.507 565.556 123.777C574.232 129.046 588.211 141.342 587.452 136.996Z" fill="white"/>
<path d="M561.504 93.7165C537.242 91.6276 548.092 67.5907 569.481 64.6988C590.87 61.8069 603.564 75.1146 593.236 88.6603M593.236 88.6603C596.563 91.906 604.459 95.95 600.147 100.846C591.694 110.444 569.481 111.057 569.481 111.057C569.481 111.057 571.641 116.34 578.758 121.399C585.875 126.457 586.693 132.651 587.452 136.996C588.211 141.342 574.232 129.046 565.556 123.777C556.881 118.507 547.461 113.17 549.031 106.012C550.601 98.8539 555.586 91.7867 578.758 91.6399C574.891 91.4863 563.383 87.4911 561.504 81.7172M593.236 88.6603C590.924 86.5074 584.447 81.3382 584.448 75.1146" stroke="black" stroke-width="2"/>
<path d="M608.423 136.825C621.113 145.557 642.599 166.996 647.973 175.514C653.347 184.031 633.617 191.436 620.165 197.194C608.423 189.345 592.072 175.514 581.331 167.449C583.354 168.445 580.829 153.859 608.423 136.825Z" fill="white" stroke="black" stroke-width="2"/>
<path d="M491.502 24.1355C478.812 32.8666 457.326 54.3064 451.952 62.8239C446.578 71.3415 466.308 78.746 479.76 84.5043C491.502 76.6549 507.853 62.8239 518.594 54.7588C516.571 55.7555 519.096 41.169 491.502 24.1355Z" fill="white" stroke="black" stroke-width="2"/>
<path d="M580.618 247.009C591.249 251.831 613.745 254.994 624.349 257.17C630.415 254.573 639.042 250.16 647.414 243.165C633.368 232.707 613.125 219.9 597.607 211.224C586.692 230.139 581.874 247.628 580.618 247.009Z" fill="white" stroke="black" stroke-width="2"/>
<path d="M519.306 134.319C508.676 139.141 486.18 142.304 475.575 144.48C469.509 141.883 460.883 137.47 452.511 130.475C466.557 120.017 486.8 107.21 502.318 98.5345C513.233 117.449 518.051 134.938 519.306 134.319Z" fill="white" stroke="black" stroke-width="2"/>
<path d="M716.424 245.117C731.765 233.18 742.94 221.308 746.28 212.672C749.619 204.036 747.306 197.386 743.967 192.867C740.627 188.348 729.038 177.556 714.055 182.1C699.072 186.645 692.112 206.869 692.112 206.869C687.059 218.198 694.612 236.796 689.984 245.117C685.356 253.438 681.628 258.036 675.814 266.487C670 274.937 688.913 284.499 693.379 274.024C697.844 263.549 701.082 257.054 716.424 245.117Z" fill="white" stroke="black" stroke-width="2"/>
<path d="M390.592 100.522C375.251 88.5848 364.076 76.7124 360.737 68.0767C357.397 59.441 359.71 52.7909 363.05 48.2717C366.389 43.7525 377.978 32.9607 392.961 37.5051C407.944 42.0496 414.905 62.2736 414.905 62.2736C419.957 73.6023 412.405 92.2013 417.033 100.522C421.661 108.843 425.388 113.441 431.202 121.892C437.016 130.342 418.103 139.904 413.638 129.429C409.172 118.954 405.934 112.459 390.592 100.522Z" fill="white" stroke="black" stroke-width="2"/>
<rect x="1" y="1" width="839" height="317" stroke="black" stroke-width="2"/>
</g>
</svg>
