<svg width="457" height="457" viewBox="0 0 457 457" fill="none" xmlns="http://www.w3.org/2000/svg">
<mask id="mask0_129_150" style="mask-type:alpha" maskUnits="userSpaceOnUse" x="0" y="0" width="457" height="457">
<rect x="1" y="1" width="455" height="455" fill="#FFE7E7" stroke="black" stroke-width="2"/>
</mask>
<g mask="url(#mask0_129_150)">
<rect width="457" height="457" fill="#FFE7E7"/>
<path d="M187.177 90.4791L595.864 215.838C621.696 223.761 625.733 258.637 602.394 272.252L350.034 419.466C342.558 423.827 333.598 424.864 325.323 422.326L-83.3642 296.967C-109.196 289.043 -113.232 254.167 -89.8937 240.553L162.466 93.3393C169.942 88.9779 178.902 87.9408 187.177 90.4791Z" fill="#D9D9D9" stroke="black" stroke-width="2"/>
<circle cx="238" cy="131" r="20" fill="black"/>
<circle cx="310" cy="150" r="20" fill="black"/>
<path d="M242.062 119.234V142H237.172V124.797L231.891 126.406V122.625L241.578 119.234H242.062Z" fill="white"/>
<path d="M318.469 157.203V161H302.75V157.781L310.094 150C310.781 149.208 311.328 148.51 311.734 147.906C312.151 147.302 312.453 146.755 312.641 146.266C312.828 145.766 312.922 145.307 312.922 144.891C312.922 144.214 312.812 143.641 312.594 143.172C312.385 142.703 312.078 142.344 311.672 142.094C311.266 141.844 310.771 141.719 310.188 141.719C309.562 141.719 309.026 141.88 308.578 142.203C308.13 142.526 307.786 142.974 307.547 143.547C307.307 144.109 307.188 144.75 307.188 145.469H302.281C302.281 144.083 302.615 142.823 303.281 141.688C303.948 140.542 304.88 139.63 306.078 138.953C307.276 138.266 308.677 137.922 310.281 137.922C311.927 137.922 313.307 138.182 314.422 138.703C315.536 139.224 316.38 139.969 316.953 140.938C317.526 141.906 317.812 143.073 317.812 144.438C317.812 145.208 317.688 145.953 317.438 146.672C317.198 147.391 316.849 148.104 316.391 148.812C315.932 149.521 315.38 150.245 314.734 150.984C314.089 151.714 313.359 152.484 312.547 153.297L309.109 157.203H318.469Z" fill="white"/>
<path d="M180.038 265.654C138.773 254.151 132.917 214.223 144.168 196.169C140.837 195.228 137.003 194.408 132.475 193.96C111.553 191.89 94.0364 187.289 101.387 171.694C107.267 159.217 123.937 151.261 131.537 148.842C126.018 149.714 112.771 152.042 103.936 154.38C95.1013 156.719 89.1499 150.687 87.2785 147.379C93.4866 145.261 110.303 140.661 127.902 139.21C149.901 137.395 164.944 141.632 159.733 152.994C155.565 162.084 136.577 171.822 127.604 175.554C130.407 175.967 139.302 175.053 152.456 168.095C160.57 163.803 168.285 165.709 174.04 169.098C197.96 164.534 285.667 186.7 311.125 202.578C331.492 215.281 393.697 256.179 393.697 256.179C389.386 255.713 374.563 265.996 330.143 269.058C285.723 272.119 226.157 278.51 180.038 265.654Z" fill="white"/>
<path d="M174.04 169.098C197.96 164.534 285.667 186.7 311.125 202.578C331.492 215.281 393.697 256.179 393.697 256.179C389.386 255.713 374.563 265.996 330.143 269.058C285.723 272.119 226.157 278.51 180.038 265.654C138.773 254.151 132.917 214.223 144.168 196.169M182.121 176.001C177.713 170.467 165.61 161.137 152.456 168.095C139.302 175.053 130.407 175.967 127.604 175.554C136.577 171.822 155.565 162.084 159.733 152.994C164.944 141.632 149.901 137.395 127.902 139.21C110.303 140.661 93.4866 145.261 87.2785 147.379C89.1499 150.687 95.1013 156.719 103.936 154.38C112.771 152.042 126.018 149.714 131.537 148.842C123.937 151.261 107.267 159.217 101.387 171.694C94.0364 187.289 111.553 191.89 132.475 193.96C153.396 196.03 159.505 206.027 169.575 199.423" stroke="black" stroke-width="2"/>
<line x1="262.761" y1="144.394" x2="59.3939" y2="288.239" stroke="black" stroke-width="2" stroke-linecap="round" stroke-dasharray="13 13"/>
<line x1="333.779" y1="166.397" x2="134.397" y2="311.221" stroke="black" stroke-width="2" stroke-linecap="round" stroke-dasharray="13 13"/>
<path d="M439.268 204.154L338.794 391.047L337.072 351.374L262.145 480.174L258.24 452.956L335.527 324.117L441.458 137L439.268 204.154Z" fill="white"/>
<path d="M335.527 324.117L441.458 137L439.268 204.154L338.794 391.047L337.072 351.374M335.527 324.117L258.24 452.956L262.145 480.174L337.072 351.374M335.527 324.117L337.072 351.374" stroke="black" stroke-width="2"/>
<path d="M308.256 353.711C308.256 353.711 328.033 351.375 334.921 351.599C341.808 351.824 355.39 358.23 355.196 364.187C355.001 370.144 344.21 368.799 344.21 368.799C344.21 368.799 351.373 374.001 348.027 381.844C344.682 389.686 336.707 387.439 336.707 387.439C336.707 387.439 339.206 401.435 333.205 404.222C330.226 405.605 326.786 406.238 324.077 406.525C325.935 407.015 327.702 408.444 328.026 412.004C328.751 419.979 314.781 425.487 314.781 425.487L301.005 425.038L210.963 583.725L142 581.476L236.108 451.745C236.108 451.745 260.748 421.736 264.954 412.928C269.161 404.12 273.948 379.428 278.219 368.634C282.49 357.841 296.74 344.39 303.757 340.643C310.775 336.897 327.665 332.448 321.469 341.221C315.273 349.993 308.256 353.711 308.256 353.711Z" fill="white"/>
<path d="M308.256 353.711C308.256 353.711 328.033 351.375 334.921 351.599C341.808 351.824 355.39 358.23 355.196 364.187C355.001 370.144 344.21 368.799 344.21 368.799M308.256 353.711C308.256 353.711 315.273 349.993 321.469 341.221C327.665 332.448 310.775 336.897 303.757 340.643C296.74 344.39 282.49 357.841 278.219 368.634C273.948 379.428 269.161 404.12 264.954 412.928C260.748 421.736 236.108 451.745 236.108 451.745L142 581.476L210.963 583.725L301.005 425.038L314.781 425.487C314.781 425.487 328.751 419.979 328.026 412.004C327.301 404.029 319.332 406.751 319.332 406.751C319.332 406.751 327.204 407.008 333.205 404.222C339.206 401.435 336.707 387.439 336.707 387.439M308.256 353.711L303.175 358.515M334.37 368.478L344.21 368.799M344.21 368.799C344.21 368.799 351.373 374.001 348.027 381.844C344.682 389.686 336.707 387.439 336.707 387.439M328.835 387.182L336.707 387.439" stroke="black" stroke-width="2"/>
<rect x="1" y="1" width="455" height="455" stroke="black" stroke-width="2"/>
<path d="M127.185 156C122.685 166.5 84.5 172.068 77 175.068C69.5 178.068 50 180.068 42 185.068C34 190.068 -13 239.568 -13 239.568L-7.5 183.568C-7.5 183.568 14.5 174.068 24.5 167.568C34.5 161.068 58.5 144.068 73 134.568C87.5 125.068 130 119.069 137 121.569C144 124.069 148 133.491 146 138.991H132.5H96C94.5045 139.43 93.2986 139.802 92.5 140.068C86.5 142.069 80 156 80 156C80 156 131.685 145.5 127.185 156Z" fill="white"/>
<path d="M132.5 138.991C131.171 136.005 130.291 134.255 129.5 133.068C127.766 130.468 105.741 136.134 96 138.991M132.5 138.991H96M132.5 138.991H146C148 133.491 144 124.069 137 121.569C130 119.069 87.5 125.068 73 134.568C58.5 144.068 34.5 161.068 24.5 167.568C14.5 174.068 -7.5 183.568 -7.5 183.568L-13 239.568C-13 239.568 34 190.068 42 185.068C50 180.068 69.5 178.068 77 175.068C84.5 172.068 122.685 166.5 127.185 156C131.685 145.5 80 156 80 156C80 156 86.5 142.069 92.5 140.068C93.2986 139.802 94.5045 139.43 96 138.991" stroke="black" stroke-width="2"/>
</g>
</svg>
