<svg width="841" height="457" viewBox="0 0 841 457" fill="none" xmlns="http://www.w3.org/2000/svg">
<mask id="mask0_129_171" style="mask-type:alpha" maskUnits="userSpaceOnUse" x="0" y="0" width="841" height="457">
<rect x="1" y="1" width="839" height="455" fill="#FFE7E7" stroke="black" stroke-width="2"/>
</mask>
<g mask="url(#mask0_129_171)">
<rect width="841" height="457" fill="#FFE7E7"/>
<rect x="153.507" y="416.346" width="369.933" height="549.228" rx="7" transform="rotate(-92.2605 153.507 416.346)" fill="#D9D9D9" stroke="black" stroke-width="2"/>
<path d="M287.714 221.525C302.1 240.616 324.543 259.342 331.714 277.525C319.58 291.055 300.065 296.769 260.214 301.525L224.5 245.749C242.919 235.985 264.223 227.483 287.714 221.525Z" fill="white" stroke="black" stroke-width="2"/>
<path d="M531.86 42.1479C517.474 61.2395 495.031 79.9652 487.86 98.1481C499.995 111.678 519.51 117.392 559.36 122.148L595.075 66.3725C576.656 56.6084 555.351 48.1062 531.86 42.1479Z" fill="white" stroke="black" stroke-width="2"/>
<path d="M202.958 359.045C226.039 334.989 245 329.5 266 320.5L296.5 374.5C256.649 379.256 179.877 383.101 202.958 359.045Z" fill="white" stroke="black" stroke-width="2"/>
<path d="M662.658 176.028C639.577 151.972 620.616 146.483 599.616 137.483L569.116 191.483C608.967 196.24 685.739 200.084 662.658 176.028Z" fill="white" stroke="black" stroke-width="2"/>
<path d="M389.604 382.644C390.523 377.385 391.514 369.889 400.127 363.766C408.74 357.644 411.354 351.25 411.354 351.25C411.354 351.25 384.47 350.508 374.24 338.893C369.021 332.967 378.578 328.072 382.604 324.144C370.104 307.75 385.468 291.644 411.354 295.144C437.24 298.644 450.373 327.735 421.009 330.263C431.636 333.462 434.818 339.278 436.104 345.144C438.004 353.807 426.604 360.267 416.104 366.644C405.604 373.022 388.686 387.903 389.604 382.644Z" fill="white"/>
<path d="M421.009 330.263C450.373 327.735 437.24 298.644 411.354 295.144C385.468 291.644 370.104 307.75 382.604 324.144M382.604 324.144C378.578 328.072 369.021 332.967 374.24 338.893C384.47 350.508 411.354 351.25 411.354 351.25C411.354 351.25 408.74 357.644 400.127 363.766C391.514 369.889 390.523 377.385 389.604 382.644C388.686 387.903 405.604 373.022 416.104 366.644C426.604 360.267 438.004 353.807 436.104 345.144C434.205 336.481 428.171 327.928 400.127 327.75C404.807 327.564 418.735 322.729 421.009 315.741M382.604 324.144C385.402 321.538 393.242 315.282 393.24 307.75" stroke="black" stroke-width="2"/>
<path d="M466.409 194.644C465.491 189.385 464.5 181.889 455.886 175.766C447.273 169.644 444.659 163.25 444.659 163.25C444.659 163.25 471.543 162.508 481.773 150.893C486.992 144.967 477.436 140.072 473.409 136.144C485.909 119.75 470.545 103.644 444.659 107.144C418.773 110.644 405.64 139.735 435.004 142.263C424.377 145.462 421.195 151.278 419.909 157.144C418.009 165.807 429.409 172.267 439.909 178.644C450.409 185.022 467.327 199.903 466.409 194.644Z" fill="white"/>
<path d="M435.004 142.263C405.64 139.735 418.773 110.644 444.659 107.144C470.545 103.644 485.909 119.75 473.409 136.144M473.409 136.144C477.436 140.072 486.992 144.967 481.773 150.893C471.543 162.508 444.659 163.25 444.659 163.25C444.659 163.25 447.273 169.644 455.886 175.766C464.5 181.889 465.491 189.385 466.409 194.644C467.327 199.903 450.409 185.022 439.909 178.644C429.409 172.267 418.009 165.807 419.909 157.144C421.809 148.481 427.843 139.928 455.886 139.75C451.206 139.564 437.279 134.729 435.004 127.741M473.409 136.144C470.611 133.538 462.772 127.282 462.773 119.75" stroke="black" stroke-width="2"/>
<path d="M491.789 194.437C507.148 205.004 533.151 230.952 539.656 241.261C546.16 251.569 522.281 260.531 506 267.5C491.789 258 472 241.261 459 231.5C461.448 232.706 458.393 215.052 491.789 194.437Z" fill="white" stroke="black" stroke-width="2"/>
<path d="M350.283 58.0514C334.925 68.6185 308.921 94.5665 302.416 104.875C295.912 115.184 319.791 124.145 336.072 131.114C350.283 121.614 370.072 104.875 383.072 95.114C380.624 96.3203 383.679 78.6666 350.283 58.0514Z" fill="white" stroke="black" stroke-width="2"/>
<path d="M458.138 327.789C471.005 333.626 498.231 337.453 511.065 340.087C518.406 336.944 528.847 331.603 538.98 323.138C521.98 310.48 497.48 294.98 478.699 284.48C465.488 307.373 459.658 328.538 458.138 327.789Z" fill="white" stroke="black" stroke-width="2"/>
<path d="M383.934 191.404C371.068 197.24 343.841 201.067 331.007 203.701C323.666 200.559 313.226 195.217 303.093 186.752C320.093 174.095 344.593 158.595 363.374 148.094C376.584 170.987 382.414 192.152 383.934 191.404Z" fill="white" stroke="black" stroke-width="2"/>
<path d="M622.5 325.5C641.067 311.053 654.592 296.684 658.634 286.232C662.675 275.781 659.876 267.732 655.835 262.263C651.793 256.793 637.767 243.732 619.634 249.232C601.5 254.732 593.075 279.209 593.075 279.209C586.96 292.92 596.101 315.43 590.5 325.5C584.899 335.57 580.388 341.136 573.351 351.363C566.315 361.59 589.205 373.163 594.609 360.485C600.013 347.807 603.933 339.947 622.5 325.5Z" fill="white" stroke="black" stroke-width="2"/>
<path d="M228.155 150.5C209.588 136.053 196.063 121.684 192.021 111.232C187.98 100.781 190.779 92.7324 194.82 87.2629C198.862 81.7934 212.888 68.7324 231.021 74.2324C249.155 79.7324 257.579 104.209 257.579 104.209C263.694 117.92 254.554 140.43 260.155 150.5C265.756 160.57 270.267 166.136 277.303 176.363C284.34 186.59 261.45 198.163 256.046 185.485C250.641 172.807 246.722 164.947 228.155 150.5Z" fill="white" stroke="black" stroke-width="2"/>
<rect x="1" y="1" width="839" height="455" stroke="black" stroke-width="2"/>
</g>
</svg>
