<svg width="841" height="319" viewBox="0 0 841 319" fill="none" xmlns="http://www.w3.org/2000/svg">
<mask id="mask0_129_207" style="mask-type:alpha" maskUnits="userSpaceOnUse" x="0" y="0" width="841" height="319">
<rect x="1" y="1" width="839" height="317" fill="#FFE7E7" stroke="black" stroke-width="2"/>
</mask>
<g mask="url(#mask0_129_207)">
<rect width="841" height="319" fill="#FFE7E7"/>
<rect x="312.952" y="333.346" width="327.386" height="486.171" rx="7" transform="rotate(-92.2605 312.952 333.346)" fill="#D9D9D9" stroke="black" stroke-width="2"/>
<path d="M475.945 162.275C486.424 180.671 504.02 199.656 508.263 216.437C498.234 222.158 488.176 223.989 464.108 225.156L439.043 172.128C448.505 167.987 461.92 164.356 475.945 162.275Z" fill="white" stroke="black" stroke-width="2"/>
<path d="M707.892 0.209793C697.414 18.6053 679.817 37.5901 675.574 54.3718C685.604 60.0923 695.661 61.9231 719.729 63.0908L744.794 10.0624C735.332 5.922 721.918 2.29086 707.892 0.209793Z" fill="white" stroke="black" stroke-width="2"/>
<path d="M362.321 183.014C380.809 193.328 417.2 212.981 417.2 212.981C407.961 223.841 405.39 227.882 387.381 239.715L338.484 207.321L338.56 207.233C343.5 201.424 353.316 189.883 362.321 183.014Z" fill="white" stroke="black" stroke-width="2"/>
<path d="M664.24 73.1992C645.753 83.5135 609.361 103.166 609.361 103.166C618.601 114.027 621.172 118.068 639.18 129.901L688.077 97.5067L688.002 97.4181C683.062 91.6097 673.246 80.0685 664.24 73.1992Z" fill="white" stroke="black" stroke-width="2"/>
<path d="M336.704 278.502C357.145 257.197 376.099 251.244 376.099 251.244L403.11 299.067C367.818 303.279 316.263 299.806 336.704 278.502Z" fill="white" stroke="black" stroke-width="2"/>
<path d="M777.17 115.549C756.73 94.2453 737.776 88.2919 737.776 88.2919L710.765 136.115C746.057 140.327 797.611 136.854 777.17 115.549Z" fill="white" stroke="black" stroke-width="2"/>
<path d="M495.363 313.36C496.176 308.702 497.054 302.064 504.682 296.642C512.31 291.22 514.625 285.557 514.625 285.557C514.625 285.557 490.816 284.9 481.756 274.614C477.134 269.365 485.597 265.031 489.163 261.552C478.093 247.033 491.7 232.77 514.625 235.87C537.549 238.969 549.18 264.733 523.175 266.971C532.586 269.805 535.404 274.955 536.543 280.15C538.226 287.822 528.13 293.543 518.831 299.191C509.532 304.839 494.549 318.018 495.363 313.36Z" fill="white"/>
<path d="M523.175 266.971C549.18 264.733 537.549 238.969 514.625 235.87C491.7 232.77 478.093 247.033 489.163 261.552M489.163 261.552C485.597 265.031 477.134 269.365 481.756 274.614C490.816 284.9 514.625 285.557 514.625 285.557C514.625 285.557 512.31 291.22 504.682 296.642C497.054 302.064 496.176 308.702 495.363 313.36C494.549 318.018 509.532 304.839 518.831 299.191C528.13 293.543 538.226 287.822 536.543 280.15C534.861 272.478 529.517 264.903 504.682 264.746C508.827 264.581 521.161 260.299 523.175 254.11M489.163 261.552C491.641 259.245 498.584 253.704 498.583 247.033" stroke="black" stroke-width="2"/>
<path d="M588.178 106.128C587.365 101.47 586.487 94.8313 578.859 89.4094C571.231 83.9875 568.916 78.3249 568.916 78.3249C568.916 78.3249 592.725 77.6677 601.785 67.3811C606.407 62.133 597.943 57.7985 594.377 54.3197C605.448 39.8011 591.841 25.5375 568.916 28.6372C545.991 31.7368 534.361 57.5002 560.366 59.7391C550.955 62.5722 548.137 67.7226 546.998 72.9174C545.315 80.5894 555.411 86.3102 564.71 91.9582C574.009 97.6062 588.991 110.785 588.178 106.128Z" fill="white"/>
<path d="M560.366 59.7391C534.361 57.5001 545.991 31.7368 568.916 28.6372C591.841 25.5375 605.448 39.8011 594.377 54.3197M594.377 54.3197C597.943 57.7985 606.407 62.133 601.785 67.3811C592.725 77.6677 568.916 78.3249 568.916 78.3249C568.916 78.3249 571.231 83.9875 578.859 89.4094C586.487 94.8313 587.365 101.47 588.178 106.128C588.991 110.785 574.009 97.6062 564.71 91.9582C555.411 86.3102 545.315 80.5894 546.998 72.9174C548.68 65.2455 554.024 57.6707 578.859 57.5133C574.714 57.3487 562.38 53.0666 560.366 46.8779M594.377 54.3197C591.899 52.0122 584.957 46.4717 584.958 39.8011" stroke="black" stroke-width="2"/>
<path d="M612.426 136.941C626.028 146.3 649.057 169.279 654.817 178.409C660.578 187.538 639.43 195.474 625.012 201.646C612.426 193.233 594.901 178.409 583.388 169.764C585.556 170.833 582.851 155.198 612.426 136.941Z" fill="white" stroke="black" stroke-width="2"/>
<path d="M500.392 8.18657C486.79 17.5448 463.761 40.5245 458.001 49.6538C452.24 58.7831 473.388 66.7195 487.807 72.8914C500.392 64.4782 517.917 49.6538 529.43 41.0094C527.262 42.0777 529.967 26.4434 500.392 8.18657Z" fill="white" stroke="black" stroke-width="2"/>
<path d="M582.625 255.038C594.019 260.207 618.131 263.597 629.497 265.929C635.999 263.146 645.245 258.416 654.218 250.919C639.163 239.709 617.466 225.983 600.833 216.684C589.134 236.957 583.971 255.702 582.625 255.038Z" fill="white" stroke="black" stroke-width="2"/>
<path d="M516.909 134.254C505.515 139.423 481.403 142.813 470.037 145.145C463.535 142.362 454.289 137.632 445.316 130.135C460.371 118.925 482.068 105.198 498.701 95.8995C510.4 116.173 515.563 134.917 516.909 134.254Z" fill="white" stroke="black" stroke-width="2"/>
<path d="M728.185 253.011C744.628 240.216 756.605 227.491 760.185 218.235C763.764 208.979 761.285 201.851 757.706 197.008C754.127 192.164 741.705 180.597 725.646 185.468C709.587 190.339 702.126 212.015 702.126 212.015C696.711 224.158 704.806 244.092 699.845 253.011C694.885 261.929 690.89 266.858 684.658 275.915C678.427 284.973 698.698 295.221 703.484 283.994C708.27 272.766 711.741 265.805 728.185 253.011Z" fill="white" stroke="black" stroke-width="2"/>
<path d="M378.95 98.0303C362.507 85.2358 350.529 72.5107 346.95 63.2547C343.371 53.9987 345.85 46.871 349.429 42.0272C353.008 37.1833 365.429 25.6164 381.489 30.4873C397.548 35.3581 405.009 57.0347 405.009 57.0347C410.424 69.1772 402.329 89.112 407.29 98.0303C412.25 106.949 416.245 111.877 422.476 120.935C428.708 129.992 408.437 140.241 403.651 129.013C398.864 117.786 395.393 110.825 378.95 98.0303Z" fill="white" stroke="black" stroke-width="2"/>
<rect x="1" y="1" width="839" height="317" stroke="black" stroke-width="2"/>
</g>
</svg>
