<svg width="841" height="457" viewBox="0 0 841 457" fill="none" xmlns="http://www.w3.org/2000/svg">
<mask id="mask0_129_207" style="mask-type:alpha" maskUnits="userSpaceOnUse" x="0" y="0" width="841" height="457">
<rect x="1" y="1" width="839" height="455" fill="#FFE7E7" stroke="black" stroke-width="2"/>
</mask>
<g mask="url(#mask0_129_207)">
<rect width="841" height="457" fill="#FFE7E7"/>
<rect x="153.507" y="416.346" width="369.933" height="549.228" rx="7" transform="rotate(-92.2605 153.507 416.346)" fill="#D9D9D9" stroke="black" stroke-width="2"/>
<path d="M337.679 223.044C349.511 243.816 369.38 265.253 374.171 284.202C362.846 290.661 351.489 292.729 324.313 294.047L296.01 234.169C306.694 229.494 321.841 225.394 337.679 223.044Z" fill="white" stroke="black" stroke-width="2"/>
<path d="M599.586 40.0439C587.754 60.8155 567.885 82.2527 563.094 101.202C574.419 107.661 585.776 109.729 612.952 111.047L641.255 51.1691C630.571 46.4939 615.424 42.3938 599.586 40.0439Z" fill="white" stroke="black" stroke-width="2"/>
<path d="M209.378 246.461C230.254 258.108 271.346 280.299 271.346 280.299C260.913 292.563 258.01 297.126 237.675 310.487L182.462 273.909L182.547 273.809C188.126 267.25 199.209 254.218 209.378 246.461Z" fill="white" stroke="black" stroke-width="2"/>
<path d="M550.296 122.461C529.42 134.108 488.328 156.299 488.328 156.299C498.762 168.563 501.665 173.126 521.999 186.487L577.212 149.909L577.127 149.809C571.549 143.25 560.465 130.218 550.296 122.461Z" fill="white" stroke="black" stroke-width="2"/>
<path d="M180.452 354.283C203.533 330.227 224.935 323.505 224.935 323.505L255.435 377.504C215.584 382.261 157.371 378.339 180.452 354.283Z" fill="white" stroke="black" stroke-width="2"/>
<path d="M677.813 170.283C654.732 146.227 633.33 139.505 633.33 139.505L602.83 193.504C642.681 198.261 700.894 194.339 677.813 170.283Z" fill="white" stroke="black" stroke-width="2"/>
<path d="M359.604 393.644C360.523 388.385 361.514 380.889 370.127 374.766C378.74 368.644 381.354 362.25 381.354 362.25C381.354 362.25 354.47 361.508 344.24 349.893C339.021 343.967 348.578 339.072 352.604 335.144C340.104 318.75 355.468 302.644 381.354 306.144C407.24 309.644 420.373 338.735 391.009 341.263C401.636 344.462 404.818 350.278 406.104 356.144C408.004 364.807 396.604 371.267 386.104 377.644C375.604 384.022 358.686 398.903 359.604 393.644Z" fill="white"/>
<path d="M391.009 341.263C420.373 338.735 407.24 309.644 381.354 306.144C355.468 302.644 340.104 318.75 352.604 335.144M352.604 335.144C348.578 339.072 339.021 343.967 344.24 349.893C354.47 361.508 381.354 362.25 381.354 362.25C381.354 362.25 378.74 368.644 370.127 374.766C361.514 380.889 360.523 388.385 359.604 393.644C358.686 398.903 375.604 384.022 386.104 377.644C396.604 371.267 408.004 364.807 406.104 356.144C404.205 347.481 398.171 338.928 370.127 338.75C374.807 338.564 388.735 333.729 391.009 326.741M352.604 335.144C355.402 332.538 363.242 326.282 363.24 318.75" stroke="black" stroke-width="2"/>
<path d="M464.409 159.644C463.491 154.385 462.5 146.889 453.886 140.766C445.273 134.644 442.659 128.25 442.659 128.25C442.659 128.25 469.543 127.508 479.773 115.893C484.992 109.967 475.435 105.072 471.409 101.144C483.909 84.75 468.545 68.644 442.659 72.144C416.773 75.644 403.64 104.735 433.004 107.263C422.377 110.462 419.195 116.278 417.909 122.144C416.009 130.807 427.409 137.267 437.909 143.644C448.409 150.022 465.327 164.903 464.409 159.644Z" fill="white"/>
<path d="M433.004 107.263C403.64 104.735 416.773 75.644 442.659 72.144C468.545 68.644 483.909 84.75 471.409 101.144M471.409 101.144C475.435 105.072 484.992 109.967 479.773 115.893C469.543 127.508 442.659 128.25 442.659 128.25C442.659 128.25 445.273 134.644 453.886 140.766C462.5 146.889 463.491 154.385 464.409 159.644C465.327 164.903 448.409 150.022 437.909 143.644C427.409 137.267 416.009 130.807 417.909 122.144C419.809 113.481 425.843 104.928 453.886 104.75C449.206 104.564 435.279 99.729 433.004 92.7409M471.409 101.144C468.611 98.5384 460.772 92.2822 460.773 84.75" stroke="black" stroke-width="2"/>
<path d="M491.789 194.437C507.148 205.004 533.151 230.952 539.656 241.261C546.16 251.569 522.281 260.531 506 267.5C491.789 258 472 241.261 459 231.5C461.448 232.706 458.393 215.052 491.789 194.437Z" fill="white" stroke="black" stroke-width="2"/>
<path d="M365.283 49.0514C349.925 59.6185 323.921 85.5665 317.416 95.875C310.912 106.184 334.791 115.145 351.072 122.114C365.283 112.614 385.072 95.875 398.072 86.114C395.624 87.3203 398.679 69.6666 365.283 49.0514Z" fill="white" stroke="black" stroke-width="2"/>
<path d="M458.138 327.789C471.005 333.626 498.231 337.453 511.065 340.087C518.406 336.944 528.847 331.603 538.98 323.138C521.98 310.48 497.48 294.98 478.699 284.48C465.488 307.373 459.658 328.538 458.138 327.789Z" fill="white" stroke="black" stroke-width="2"/>
<path d="M383.934 191.404C371.068 197.24 343.841 201.067 331.007 203.701C323.666 200.559 313.226 195.217 303.093 186.752C320.093 174.095 344.593 158.595 363.374 148.094C376.584 170.987 382.414 192.152 383.934 191.404Z" fill="white" stroke="black" stroke-width="2"/>
<path d="M622.5 325.5C641.067 311.053 654.592 296.684 658.634 286.232C662.675 275.781 659.876 267.732 655.835 262.263C651.793 256.793 637.767 243.732 619.634 249.232C601.5 254.732 593.075 279.209 593.075 279.209C586.96 292.92 596.101 315.43 590.5 325.5C584.899 335.57 580.388 341.136 573.351 351.363C566.315 361.59 589.205 373.163 594.609 360.485C600.013 347.807 603.933 339.947 622.5 325.5Z" fill="white" stroke="black" stroke-width="2"/>
<path d="M228.155 150.5C209.588 136.053 196.063 121.684 192.021 111.232C187.98 100.781 190.779 92.7324 194.82 87.2629C198.862 81.7934 212.888 68.7324 231.021 74.2324C249.155 79.7324 257.579 104.209 257.579 104.209C263.694 117.92 254.554 140.43 260.155 150.5C265.756 160.57 270.267 166.136 277.303 176.363C284.34 186.59 261.45 198.163 256.046 185.485C250.641 172.807 246.722 164.947 228.155 150.5Z" fill="white" stroke="black" stroke-width="2"/>
<rect x="1" y="1" width="839" height="455" stroke="black" stroke-width="2"/>
</g>
</svg>
