<svg width="457" height="457" viewBox="0 0 457 457" fill="none" xmlns="http://www.w3.org/2000/svg">
<mask id="mask0_129_235" style="mask-type:alpha" maskUnits="userSpaceOnUse" x="0" y="0" width="457" height="457">
<rect x="1" y="1" width="455" height="455" fill="#FFE7E7" stroke="black" stroke-width="2"/>
</mask>
<g mask="url(#mask0_129_235)">
<rect width="457" height="457" fill="#FFE7E7"/>
<path d="M187.177 90.4791L595.864 215.838C621.696 223.761 625.733 258.637 602.394 272.252L350.034 419.466C342.558 423.827 333.598 424.864 325.323 422.326L-83.3642 296.967C-109.196 289.043 -113.232 254.167 -89.8937 240.553L162.466 93.3393C169.942 88.9779 178.902 87.9408 187.177 90.4791Z" fill="#D9D9D9" stroke="black" stroke-width="2"/>
<circle cx="235" cy="129" r="20" fill="black"/>
<circle cx="298" cy="145" r="20" fill="black"/>
<circle cx="362" cy="159" r="20" fill="black"/>
<path d="M239.062 117.234V140H234.172V122.797L228.891 124.406V120.625L238.578 117.234H239.062Z" fill="white"/>
<path d="M306.469 152.203V156H290.75V152.781L298.094 145C298.781 144.208 299.328 143.51 299.734 142.906C300.151 142.302 300.453 141.755 300.641 141.266C300.828 140.766 300.922 140.307 300.922 139.891C300.922 139.214 300.812 138.641 300.594 138.172C300.385 137.703 300.078 137.344 299.672 137.094C299.266 136.844 298.771 136.719 298.188 136.719C297.562 136.719 297.026 136.88 296.578 137.203C296.13 137.526 295.786 137.974 295.547 138.547C295.307 139.109 295.188 139.75 295.188 140.469H290.281C290.281 139.083 290.615 137.823 291.281 136.688C291.948 135.542 292.88 134.63 294.078 133.953C295.276 133.266 296.677 132.922 298.281 132.922C299.927 132.922 301.307 133.182 302.422 133.703C303.536 134.224 304.38 134.969 304.953 135.938C305.526 136.906 305.812 138.073 305.812 139.438C305.812 140.208 305.688 140.953 305.438 141.672C305.198 142.391 304.849 143.104 304.391 143.812C303.932 144.521 303.38 145.245 302.734 145.984C302.089 146.714 301.359 147.484 300.547 148.297L297.109 152.203H306.469Z" fill="white"/>
<path d="M359.453 156.547H361.938C362.646 156.547 363.229 156.422 363.688 156.172C364.156 155.922 364.5 155.568 364.719 155.109C364.948 154.651 365.062 154.115 365.062 153.5C365.062 152.969 364.958 152.495 364.75 152.078C364.542 151.661 364.224 151.333 363.797 151.094C363.38 150.844 362.839 150.719 362.172 150.719C361.693 150.719 361.234 150.818 360.797 151.016C360.37 151.203 360.021 151.479 359.75 151.844C359.479 152.198 359.344 152.625 359.344 153.125H354.453C354.453 151.854 354.797 150.755 355.484 149.828C356.182 148.901 357.104 148.188 358.25 147.688C359.406 147.177 360.667 146.922 362.031 146.922C363.604 146.922 364.984 147.172 366.172 147.672C367.37 148.161 368.297 148.891 368.953 149.859C369.62 150.818 369.953 152.005 369.953 153.422C369.953 154.161 369.776 154.875 369.422 155.562C369.078 156.24 368.583 156.844 367.938 157.375C367.302 157.896 366.542 158.312 365.656 158.625C364.781 158.927 363.807 159.078 362.734 159.078H359.453V156.547ZM359.453 160.219V157.734H362.734C363.922 157.734 364.984 157.87 365.922 158.141C366.859 158.411 367.656 158.802 368.312 159.312C368.969 159.823 369.469 160.443 369.812 161.172C370.156 161.901 370.328 162.714 370.328 163.609C370.328 164.672 370.12 165.62 369.703 166.453C369.286 167.286 368.703 167.99 367.953 168.562C367.203 169.135 366.323 169.573 365.312 169.875C364.302 170.167 363.208 170.312 362.031 170.312C361.083 170.312 360.141 170.182 359.203 169.922C358.266 169.661 357.417 169.266 356.656 168.734C355.896 168.193 355.286 167.51 354.828 166.688C354.37 165.854 354.141 164.865 354.141 163.719H359.031C359.031 164.25 359.167 164.729 359.438 165.156C359.719 165.573 360.099 165.906 360.578 166.156C361.068 166.396 361.599 166.516 362.172 166.516C362.859 166.516 363.443 166.391 363.922 166.141C364.411 165.88 364.781 165.526 365.031 165.078C365.292 164.63 365.422 164.115 365.422 163.531C365.422 162.74 365.281 162.104 365 161.625C364.729 161.135 364.333 160.781 363.812 160.562C363.292 160.333 362.667 160.219 361.938 160.219H359.453Z" fill="white"/>
<path d="M180.038 265.654C138.773 254.151 132.917 214.223 144.168 196.169C140.837 195.228 137.003 194.408 132.475 193.96C111.553 191.89 94.0364 187.289 101.387 171.694C107.267 159.217 123.937 151.261 131.537 148.842C126.018 149.714 112.771 152.042 103.936 154.38C95.1013 156.719 89.1499 150.687 87.2785 147.379C93.4866 145.261 110.303 140.661 127.902 139.21C149.901 137.395 164.944 141.632 159.733 152.994C155.565 162.084 136.577 171.822 127.604 175.554C130.407 175.967 139.302 175.053 152.456 168.095C160.57 163.803 168.285 165.709 174.04 169.098C197.96 164.534 285.667 186.7 311.125 202.578C331.492 215.281 393.697 256.179 393.697 256.179C389.386 255.713 374.563 265.996 330.143 269.058C285.723 272.119 226.157 278.51 180.038 265.654Z" fill="white"/>
<path d="M174.04 169.098C197.96 164.534 285.667 186.7 311.125 202.578C331.492 215.281 393.697 256.179 393.697 256.179C389.386 255.713 374.563 265.996 330.143 269.058C285.723 272.119 226.157 278.51 180.038 265.654C138.773 254.151 132.917 214.223 144.168 196.169M182.121 176.001C177.713 170.467 165.61 161.137 152.456 168.095C139.302 175.053 130.407 175.967 127.604 175.554C136.577 171.822 155.565 162.084 159.733 152.994C164.944 141.632 149.901 137.395 127.902 139.21C110.303 140.661 93.4866 145.261 87.2785 147.379C89.1499 150.687 95.1013 156.719 103.936 154.38C112.771 152.042 126.018 149.714 131.537 148.842C123.937 151.261 107.267 159.217 101.387 171.694C94.0364 187.289 111.553 191.89 132.475 193.96C153.396 196.03 159.505 206.027 169.575 199.423" stroke="black" stroke-width="2"/>
<line x1="262.761" y1="144.394" x2="59.3939" y2="288.239" stroke="black" stroke-width="2" stroke-linecap="round" stroke-dasharray="13 13"/>
<line x1="316.779" y1="163.397" x2="117.397" y2="308.221" stroke="black" stroke-width="2" stroke-linecap="round" stroke-dasharray="13 13"/>
<line x1="376.779" y1="178.397" x2="177.397" y2="323.221" stroke="black" stroke-width="2" stroke-linecap="round" stroke-dasharray="13 13"/>
<path d="M439.268 204.154L338.794 391.047L337.072 351.374L262.145 480.174L258.24 452.956L335.527 324.117L441.458 137L439.268 204.154Z" fill="white"/>
<path d="M335.527 324.117L441.458 137L439.268 204.154L338.794 391.047L337.072 351.374M335.527 324.117L258.24 452.956L262.145 480.174L337.072 351.374M335.527 324.117L337.072 351.374" stroke="black" stroke-width="2"/>
<path d="M308.256 353.711C308.256 353.711 328.033 351.375 334.921 351.599C341.808 351.824 355.39 358.23 355.196 364.187C355.001 370.144 344.21 368.799 344.21 368.799C344.21 368.799 351.373 374.001 348.027 381.844C344.682 389.686 336.707 387.439 336.707 387.439C336.707 387.439 339.206 401.435 333.205 404.222C330.226 405.605 326.786 406.238 324.077 406.525C325.935 407.015 327.702 408.444 328.026 412.004C328.751 419.979 314.781 425.487 314.781 425.487L301.005 425.038L210.963 583.725L142 581.476L236.108 451.745C236.108 451.745 260.748 421.736 264.954 412.928C269.161 404.12 273.948 379.428 278.219 368.634C282.49 357.841 296.74 344.39 303.757 340.643C310.775 336.897 327.665 332.448 321.469 341.221C315.273 349.993 308.256 353.711 308.256 353.711Z" fill="white"/>
<path d="M308.256 353.711C308.256 353.711 328.033 351.375 334.921 351.599C341.808 351.824 355.39 358.23 355.196 364.187C355.001 370.144 344.21 368.799 344.21 368.799M308.256 353.711C308.256 353.711 315.273 349.993 321.469 341.221C327.665 332.448 310.775 336.897 303.757 340.643C296.74 344.39 282.49 357.841 278.219 368.634C273.948 379.428 269.161 404.12 264.954 412.928C260.748 421.736 236.108 451.745 236.108 451.745L142 581.476L210.963 583.725L301.005 425.038L314.781 425.487C314.781 425.487 328.751 419.979 328.026 412.004C327.301 404.029 319.332 406.751 319.332 406.751C319.332 406.751 327.204 407.008 333.205 404.222C339.206 401.435 336.707 387.439 336.707 387.439M308.256 353.711L303.175 358.515M334.37 368.478L344.21 368.799M344.21 368.799C344.21 368.799 351.373 374.001 348.027 381.844C344.682 389.686 336.707 387.439 336.707 387.439M328.835 387.182L336.707 387.439" stroke="black" stroke-width="2"/>
<rect x="1" y="1" width="455" height="455" stroke="black" stroke-width="2"/>
<path d="M127.185 156C122.685 166.5 84.5 172.068 77 175.068C69.5 178.068 50 180.068 42 185.068C34 190.068 -13 239.568 -13 239.568L-7.5 183.568C-7.5 183.568 14.5 174.068 24.5 167.568C34.5 161.068 58.5 144.068 73 134.568C87.5 125.068 130 119.069 137 121.569C144 124.069 148 133.491 146 138.991H132.5H96C94.5045 139.43 93.2986 139.802 92.5 140.068C86.5 142.069 80 156 80 156C80 156 131.685 145.5 127.185 156Z" fill="white"/>
<path d="M132.5 138.991C131.171 136.005 130.291 134.255 129.5 133.068C127.766 130.468 105.741 136.134 96 138.991M132.5 138.991H96M132.5 138.991H146C148 133.491 144 124.069 137 121.569C130 119.069 87.5 125.068 73 134.568C58.5 144.068 34.5 161.068 24.5 167.568C14.5 174.068 -7.5 183.568 -7.5 183.568L-13 239.568C-13 239.568 34 190.068 42 185.068C50 180.068 69.5 178.068 77 175.068C84.5 172.068 122.685 166.5 127.185 156C131.685 145.5 80 156 80 156C80 156 86.5 142.069 92.5 140.068C93.2986 139.802 94.5045 139.43 96 138.991" stroke="black" stroke-width="2"/>
</g>
</svg>
