<svg width="457" height="457" viewBox="0 0 457 457" fill="none" xmlns="http://www.w3.org/2000/svg">
<mask id="mask0_129_224" style="mask-type:alpha" maskUnits="userSpaceOnUse" x="0" y="0" width="457" height="457">
<rect x="1" y="1" width="455" height="455" fill="#FFE7E7" stroke="black" stroke-width="2"/>
</mask>
<g mask="url(#mask0_129_224)">
<rect width="457" height="457" fill="#FFE7E7"/>
<rect x="-34.3339" y="58.2917" width="512.553" height="342.655" rx="31" transform="rotate(-0.130475 -34.3339 58.2917)" fill="#D9D9D9" stroke="black" stroke-width="2"/>
<circle cx="162" cy="118" r="20" fill="black"/>
<circle cx="283" cy="124" r="20" fill="black"/>
<path d="M166.062 106.234V129H161.172V111.797L155.891 113.406V109.625L165.578 106.234H166.062Z" fill="white"/>
<path d="M291.469 131.203V135H275.75V131.781L283.094 124C283.781 123.208 284.328 122.51 284.734 121.906C285.151 121.302 285.453 120.755 285.641 120.266C285.828 119.766 285.922 119.307 285.922 118.891C285.922 118.214 285.812 117.641 285.594 117.172C285.385 116.703 285.078 116.344 284.672 116.094C284.266 115.844 283.771 115.719 283.188 115.719C282.562 115.719 282.026 115.88 281.578 116.203C281.13 116.526 280.786 116.974 280.547 117.547C280.307 118.109 280.188 118.75 280.188 119.469H275.281C275.281 118.083 275.615 116.823 276.281 115.688C276.948 114.542 277.88 113.63 279.078 112.953C280.276 112.266 281.677 111.922 283.281 111.922C284.927 111.922 286.307 112.182 287.422 112.703C288.536 113.224 289.38 113.969 289.953 114.938C290.526 115.906 290.812 117.073 290.812 118.438C290.812 119.208 290.688 119.953 290.438 120.672C290.198 121.391 289.849 122.104 289.391 122.812C288.932 123.521 288.38 124.245 287.734 124.984C287.089 125.714 286.359 126.484 285.547 127.297L282.109 131.203H291.469Z" fill="white"/>
<path d="M109.533 264.226C125.281 252.316 142.567 242.215 156.208 211.393C161.799 198.762 165.954 187.359 170.237 177.586C176.405 163.512 182.84 152.821 194.211 146.719C203.18 141.905 213.395 142.555 224.829 145.046C236.262 147.536 252.306 151.535 268.977 155.41C268.977 155.41 333.035 187.962 353.052 205.646L265.411 307.44C263.272 305.55 258.722 299.074 256.482 296.249C243.906 280.389 231.157 255.09 223.044 238.163C217.801 242.267 210.906 245.001 203.526 247.155C187.067 251.96 168.197 253.878 159.874 261.666C147.819 272.945 141.363 277.282 129.588 290.611C117.812 303.94 93.7851 276.137 109.533 264.226Z" fill="white"/>
<path d="M170.237 177.586C176.405 163.512 182.84 152.821 194.211 146.719C203.18 141.905 213.395 142.555 224.829 145.046C236.262 147.536 252.306 151.535 268.977 155.41C268.977 155.41 333.035 187.962 353.052 205.646L265.411 307.44C263.272 305.55 258.722 299.074 256.482 296.249C243.906 280.389 231.157 255.09 223.044 238.163C217.801 242.267 210.906 245.001 203.526 247.155M170.237 177.586C165.954 187.359 161.799 198.762 156.208 211.393C142.567 242.215 125.281 252.316 109.533 264.226C93.7851 276.137 117.812 303.94 129.588 290.611C141.363 277.282 147.819 272.945 159.874 261.666C168.197 253.878 187.067 251.96 203.526 247.155M170.237 177.586L203.526 247.155" stroke="black" stroke-width="2"/>
<line x1="176.796" y1="75.2245" x2="264.811" y2="361.551" stroke="black" stroke-width="2" stroke-linecap="round" stroke-dasharray="13 13"/>
<line x1="325.024" y1="112.953" x2="172.44" y2="354.638" stroke="black" stroke-width="2" stroke-linecap="round" stroke-dasharray="13 13"/>
<path d="M139.471 300.509C131.69 318.855 103.77 339.108 77.6208 348.171C51.472 357.234 39.7671 351.524 39.7671 351.524L-35.9587 538.847L-87.3516 521.53C-87.3516 521.53 -4.66899 347.606 -2.45401 333.618C-0.239029 319.629 -2.32923 310.533 -4.36323 287.278C-6.39723 264.024 18.0731 192.299 26.1467 183.781C34.2203 175.262 26.6709 252.671 26.6709 252.671C26.6709 252.671 58.3039 167.563 67.8375 167.874C77.3711 168.185 49.2508 255.529 49.2508 255.529C49.2508 255.529 104.5 155.059 111.001 166.027C117.502 176.994 69.4162 264.081 69.4162 264.081C69.4162 264.081 133.188 192.603 145.429 197.049C157.671 201.494 92.4078 288.76 87.5786 300.147C93.9178 318.51 147.251 282.163 139.471 300.509Z" fill="white" stroke="black" stroke-width="2"/>
<path d="M344.515 320.575L365.109 86.6418L448.195 71.1789L428.818 320.811L417.283 458.12L385.927 457.375L395.537 321.053L344.515 320.575Z" fill="white"/>
<path d="M428.818 320.811L448.195 71.1789L365.109 86.6418L344.515 320.575L395.537 321.053M428.818 320.811L417.283 458.12L385.927 457.375L395.537 321.053M428.818 320.811L395.537 321.053" stroke="black" stroke-width="2"/>
<path d="M384.587 377.921C384.587 377.921 373.898 366.701 373.106 358.156C373.065 358.104 373.024 358.051 372.984 357.997C368.263 351.649 382.673 340.02 387.922 339.367C393.586 338.662 405.435 340.251 411.847 341.819C418.659 343.484 423.427 347.094 427.479 349.622C427.479 349.622 439.126 367.163 439.585 384.685C440.044 402.208 427.402 437.553 430.936 452.572L461.506 539.002L421.162 615.249L392.202 456.494L398.366 445.852C398.366 445.852 403.854 436.303 396.719 412.423C394.842 406.143 394.371 399.954 394.552 394.116C394.383 395.014 394.129 395.94 393.8 396.904C391.383 403.985 385.931 402.179 385.931 402.179C393.879 406.385 395.59 412.442 393.472 416.601C391.355 420.759 384.203 419.033 384.203 419.033C384.203 419.033 391.641 421.419 392.043 430.547C392.445 439.675 383.833 433.651 383.833 433.651C383.833 433.651 372.656 429.653 372.203 420.621C371.749 411.589 384.203 419.033 384.203 419.033C384.203 419.033 369.635 406.303 372.542 400.807C375.45 395.312 384.917 401.067 384.917 401.067C384.917 401.067 370.266 387.949 371.856 379.999C373.447 372.048 384.587 377.921 384.587 377.921Z" fill="white"/>
<path d="M384.587 377.921C384.587 377.921 371.302 363.976 373.256 355.339C375.21 346.701 389.576 355.614 389.576 355.614L392.72 355.502C392.72 355.502 400.506 365.789 396.144 374.032C391.782 382.275 384.587 377.921 384.587 377.921ZM384.587 377.921C384.587 377.921 373.447 372.048 371.856 379.999C370.266 387.949 384.917 401.067 384.917 401.067M384.587 377.921C394.605 384.81 396.217 389.824 393.8 396.904C391.383 403.985 385.931 402.179 385.931 402.179M384.917 401.067C384.917 401.067 375.45 395.312 372.542 400.807C369.635 406.303 384.203 419.033 384.203 419.033M384.917 401.067L385.931 402.179M385.931 402.179C393.879 406.385 395.59 412.442 393.472 416.601C391.355 420.759 384.203 419.033 384.203 419.033M384.203 419.033C384.203 419.033 371.749 411.589 372.203 420.621C372.656 429.653 383.833 433.651 383.833 433.651C383.833 433.651 392.445 439.675 392.043 430.547C391.641 421.419 384.203 419.033 384.203 419.033ZM411.847 341.819C418.659 343.484 423.427 347.094 427.479 349.622C427.479 349.622 439.126 367.163 439.585 384.685C440.044 402.208 427.402 437.553 430.936 452.572L461.506 539.002L421.162 615.249L392.202 456.494L398.366 445.852C398.366 445.852 403.854 436.303 396.719 412.423C389.583 388.544 402.767 365.992 394.864 359.018C389.799 354.548 377.705 364.344 372.984 357.997C368.263 351.649 382.673 340.02 387.922 339.367C393.586 338.662 405.435 340.251 411.847 341.819Z" stroke="black" stroke-width="2"/>
<rect x="1" y="1" width="455" height="455" stroke="black" stroke-width="2"/>
</g>
</svg>
