<svg width="416" height="379" viewBox="0 0 416 379" fill="none" xmlns="http://www.w3.org/2000/svg">
<rect x="122.903" y="17.0902" width="257.255" height="299.822" transform="rotate(15.9282 122.903 17.0902)" fill="white"/>
<path d="M220.649 56.6577C198.103 48.7135 173.471 32.978 153.971 31.6371C146.175 44.8602 145.285 61.4177 149.721 90C161 92 219.226 107.047 219.226 107.047C221.079 91.2211 221.683 74.2886 220.649 56.6577Z" fill="white" stroke="black"/>
<path d="M263.245 73.4299C286.505 78.9484 315.734 79.0434 332.858 88.4667C332.26 103.805 324.049 118.211 304.854 139.848C294.286 135.427 237.178 116.576 237.178 116.576C244.183 102.264 252.836 87.6975 263.245 73.4299Z" fill="white" stroke="black"/>
<path d="M156 138L212.5 151C215.5 141.5 218.769 122.94 219.459 117.05C219.459 117.05 182.232 106.003 149.428 96.5031C149.428 108 152.5 126 156 138Z" fill="white" stroke="black"/>
<path d="M273.601 176.817L219.052 157.178C221.669 147.566 228.962 130.189 231.57 124.862C231.57 124.862 268.853 135.715 301.581 145.475C295.36 155.144 283.037 168.619 273.601 176.817Z" fill="white" stroke="black"/>
<path d="M157.074 146.262C161.81 185.796 171.823 231.878 187.472 209.775C201.417 190.079 206.216 174.342 209.651 158.685L157.074 146.262Z" fill="white" stroke="black"/>
<path d="M268.227 183.184C242.853 213.868 209.499 247.204 208.298 220.148C207.227 196.04 211.707 180.208 217.289 165.183L268.227 183.184Z" fill="white" stroke="black"/>
<path d="M407.901 160.942C403.231 158.355 396.47 154.969 393.499 144.828C390.527 134.687 385.338 130.127 385.338 130.127C385.338 130.127 375.852 155.293 361.531 161.166C354.225 164.162 352.722 153.531 350.326 148.441C330.747 154.898 320.546 135.115 332.312 111.793C344.079 88.4721 375.865 85.5669 368.659 114.145C375.155 105.147 381.691 104.04 387.655 104.741C396.463 105.776 398.843 118.661 401.44 130.668C404.036 142.676 412.572 163.528 407.901 160.942Z" fill="white"/>
<path d="M368.659 114.145C375.865 85.5669 344.079 88.4721 332.312 111.793C320.546 135.115 330.747 154.898 350.326 148.441M350.326 148.441C352.722 153.531 354.225 164.162 361.531 161.166C375.852 155.293 385.338 130.127 385.338 130.127C385.338 130.127 390.527 134.687 393.499 144.828C396.47 154.969 403.231 158.355 407.901 160.942C412.572 163.528 404.036 142.676 401.44 130.668C398.843 118.661 396.463 105.776 387.655 104.741C378.847 103.705 368.791 106.613 359.46 133.059C360.813 128.575 360.795 113.832 354.933 109.399M350.326 148.441C348.777 144.946 345.426 135.492 338.307 133.032" stroke="black"/>
<path d="M50.4933 55.0975C55.8227 55.4147 63.3456 56.176 71.2863 49.2035C79.2271 42.2309 86.0512 41.1592 86.0512 41.1592C86.0512 41.1592 80.584 67.4922 89.5322 80.1212C94.0975 86.5643 101.061 78.3914 105.81 75.3773C118.886 91.3158 138.096 80.0725 140.65 54.076C143.204 28.0795 117.917 8.6025 108.697 36.5957C108.03 25.5175 103.103 21.0821 97.6911 18.4797C89.6983 14.6365 80.7875 24.243 72.164 32.9927C63.5404 41.7424 45.1638 54.7803 50.4933 55.0975Z" fill="white"/>
<path d="M108.697 36.5957C117.917 8.6025 143.204 28.0795 140.65 54.076C138.096 80.0725 118.886 91.3158 105.81 75.3773M105.81 75.3773C101.061 78.3914 94.0975 86.5643 89.5322 80.1212C80.584 67.4922 86.0512 41.1592 86.0512 41.1592C86.0512 41.1592 79.2271 42.2309 71.2863 49.2035C63.3456 56.176 55.8227 55.4147 50.4933 55.0975C45.1638 54.7803 63.5404 41.7424 72.164 32.9927C80.7875 24.243 89.6983 14.6365 97.6911 18.4797C105.684 22.3229 112.618 30.164 106.335 57.4951C107.593 52.9834 115.505 40.5433 122.829 39.939M105.81 75.3773C108.99 73.2543 116.883 67.0661 124.212 68.8012" stroke="black"/>
<path d="M300.783 157.267C316.829 166.759 344.546 190.868 351.74 200.708C358.934 210.548 335.723 221.121 319.957 229.187C305.129 220.681 284.242 205.334 270.605 196.485C273.131 197.521 268.876 180.117 300.783 157.267Z" fill="white" stroke="black"/>
<path d="M142.921 109.364C124.287 108.787 87.9683 114.302 76.6232 118.758C65.2781 123.215 79.216 144.575 88.2107 159.831C105.288 160.589 131.146 158.815 147.402 158.646C144.715 158.168 157.629 145.75 142.921 109.364Z" fill="white" stroke="black"/>
<path d="M240.547 247.419C253.413 253.256 280.64 257.083 293.474 259.717C300.815 256.574 311.255 251.233 321.388 242.768C304.388 230.11 279.888 214.61 261.107 204.11C247.897 227.003 242.067 248.168 240.547 247.419Z" fill="white" stroke="black"/>
<path d="M145.506 217.758C131.515 215.796 106.473 204.446 94.2243 199.797C89.7076 193.211 83.7514 183.109 79.7282 170.533C100.863 168.949 129.855 168.981 151.339 170.172C150.234 196.579 143.822 217.576 145.506 217.758Z" fill="white" stroke="black"/>
<path d="M325.5 332.5C344.067 318.053 357.592 303.684 361.633 293.233C365.675 282.781 362.876 274.733 358.834 269.263C354.793 263.794 340.767 250.733 322.634 256.233C304.5 261.733 296.075 286.209 296.075 286.209C289.96 299.92 299.101 322.43 293.5 332.5C287.899 342.57 283.388 348.136 276.351 358.363C269.315 368.591 292.205 380.163 297.609 367.485C303.013 354.808 306.933 346.947 325.5 332.5Z" fill="white" stroke="black"/>
<path d="M28.1975 244.108C20.2553 221.964 16.5295 202.586 18.714 191.595C20.8986 180.604 27.5729 175.307 33.9153 172.852C40.2577 170.398 59.0975 166.88 71.4653 181.237C83.8332 195.593 77.8385 220.775 77.8385 220.775C75.6594 235.629 55.8843 249.743 55.221 261.247C54.5577 272.751 55.3864 279.867 55.8511 292.272C56.3158 304.678 30.7878 302.191 33.0138 288.591C35.2397 274.99 36.1397 266.253 28.1975 244.108Z" fill="white" stroke="black"/>
</svg>
