<svg width="841" height="319" viewBox="0 0 841 319" fill="none" xmlns="http://www.w3.org/2000/svg">
<mask id="mask0_129_207" style="mask-type:alpha" maskUnits="userSpaceOnUse" x="0" y="0" width="841" height="319">
<rect x="1" y="1" width="839" height="317" fill="#FFE7E7" stroke="black" stroke-width="2"/>
</mask>
<g mask="url(#mask0_129_207)">
<rect width="841" height="319" fill="#FFE7E7"/>
<rect x="333.919" y="317.961" width="298.294" height="443.056" rx="7" transform="rotate(-92.2605 333.919 317.961)" fill="#D9D9D9" stroke="black" stroke-width="2"/>
<path d="M494.226 157.889C503.779 174.659 519.821 191.968 523.689 207.267C514.546 212.482 505.376 214.151 483.434 215.216L460.583 166.871C469.209 163.096 481.439 159.786 494.226 157.889Z" fill="white" stroke="black" stroke-width="2"/>
<path d="M676.337 21.7928C660.508 32.8367 638.588 41.5792 628.524 53.7352C634.543 62.3716 632.644 62.5869 652.003 72.9703L693.4 39.1219C687.231 32.0088 687.07 28.9971 676.337 21.7928Z" fill="white" stroke="black" stroke-width="2"/>
<path d="M737.7 25.6375C728.148 42.4083 712.105 59.7164 708.237 75.0159C717.381 80.2312 715.759 81.2409 737.7 82.3054L760.552 33.9605C751.926 30.1858 750.488 27.5348 737.7 25.6375Z" fill="white" stroke="black" stroke-width="2"/>
<path d="M397.666 193.486C414.521 202.889 447.698 220.806 447.698 220.806C439.274 230.707 441.326 230.722 424.908 241.51L380.33 211.977C384.811 206.708 389.414 199.78 397.666 193.486Z" fill="white" stroke="black" stroke-width="2"/>
<path d="M370.931 127.846C382.682 143.157 406.047 172.751 406.047 172.751C394.39 178.505 396.268 179.332 376.92 182.733L347.688 137.957C353.889 134.894 360.86 130.356 370.931 127.846Z" fill="white" stroke="black" stroke-width="2"/>
<path d="M667.499 87.8458C650.644 97.2492 617.467 115.166 617.467 115.166C625.891 125.067 628.235 128.752 644.652 139.539L689.231 110.006L689.162 109.926C684.658 104.63 675.709 94.1084 667.499 87.8458Z" fill="white" stroke="black" stroke-width="2"/>
<path d="M355.489 268.053C374.124 248.63 391.404 243.203 391.404 243.203L416.03 286.802C383.854 290.642 336.853 287.475 355.489 268.053Z" fill="white" stroke="black" stroke-width="2"/>
<path d="M759.965 116.377C741.33 96.9545 724.05 91.5269 724.05 91.5269L699.424 135.126C731.599 138.966 778.6 135.8 759.965 116.377Z" fill="white" stroke="black" stroke-width="2"/>
<path d="M512.218 299.311C512.959 295.065 513.759 289.012 520.713 284.069C527.668 279.126 529.778 273.964 529.778 273.964C529.778 273.964 508.072 273.365 499.813 263.987C495.599 259.202 503.315 255.25 506.566 252.079C496.474 238.842 508.878 225.839 529.778 228.664C550.678 231.49 561.281 254.978 537.573 257.019C546.153 259.602 548.723 264.298 549.761 269.034C551.295 276.028 542.091 281.244 533.613 286.393C525.136 291.542 511.476 303.557 512.218 299.311Z" fill="white"/>
<path d="M537.573 257.019C561.281 254.978 550.678 231.49 529.778 228.664C508.878 225.839 496.474 238.842 506.566 252.079M506.566 252.079C503.315 255.25 495.599 259.202 499.813 263.987C508.072 273.365 529.778 273.964 529.778 273.964C529.778 273.964 527.668 279.126 520.713 284.069C513.759 289.012 512.959 295.065 512.218 299.311C511.476 303.557 525.136 291.542 533.613 286.393C542.091 281.244 551.295 276.028 549.761 269.034C548.227 262.04 543.355 255.134 520.713 254.99C524.492 254.84 535.737 250.936 537.573 245.294M506.566 252.079C508.825 249.975 515.154 244.924 515.153 238.842" stroke="black" stroke-width="2"/>
<path d="M585.226 116.063C584.485 111.816 583.685 105.764 576.73 100.821C569.776 95.8782 567.665 90.7157 567.665 90.7157C567.665 90.7157 589.372 90.1166 597.631 80.7385C601.845 75.9539 594.129 72.0022 590.878 68.8307C600.97 55.5943 588.566 42.5906 567.665 45.4164C546.765 48.2423 536.162 71.7302 559.871 73.7714C551.29 76.3543 548.721 81.0498 547.683 85.7858C546.149 92.7802 555.353 97.9957 563.83 103.145C572.308 108.294 585.968 120.309 585.226 116.063Z" fill="white"/>
<path d="M559.871 73.7714C536.162 71.7302 546.765 48.2423 567.665 45.4164C588.566 42.5906 600.97 55.5943 590.878 68.8307M590.878 68.8307C594.129 72.0022 601.845 75.9539 597.631 80.7385C589.372 90.1166 567.665 90.7157 567.665 90.7157C567.665 90.7157 569.776 95.8782 576.73 100.821C583.685 105.764 584.485 111.816 585.226 116.063C585.968 120.309 572.308 108.294 563.83 103.145C555.353 97.9957 546.149 92.7802 547.683 85.7858C549.217 78.7915 554.088 71.8857 576.73 71.7422C572.951 71.5921 561.707 67.6882 559.871 62.0461M590.878 68.8307C588.619 66.7269 582.29 61.6758 582.29 55.5943" stroke="black" stroke-width="2"/>
<path d="M590.655 138.568C603.055 147.1 624.051 168.05 629.302 176.373C634.554 184.696 615.274 191.931 602.129 197.558C590.655 189.888 574.678 176.373 564.182 168.492C566.158 169.466 563.692 155.213 590.655 138.568Z" fill="white" stroke="black" stroke-width="2"/>
<path d="M498.256 21.8739C485.856 30.4056 464.861 51.3557 459.609 59.6787C454.358 68.0017 473.637 75.2371 486.782 80.8639C498.256 73.1938 514.233 59.6787 524.729 51.7978C522.753 52.7717 525.219 38.5183 498.256 21.8739Z" fill="white" stroke="black" stroke-width="2"/>
<path d="M572.84 263.917C583.228 268.629 605.21 271.719 615.572 273.846C621.5 271.308 629.929 266.996 638.111 260.161C624.385 249.942 604.604 237.427 589.44 228.95C578.775 247.433 574.067 264.521 572.84 263.917Z" fill="white" stroke="black" stroke-width="2"/>
<path d="M507.639 129.9C497.25 134.612 475.268 137.703 464.906 139.829C458.979 137.292 450.549 132.979 442.368 126.144C456.094 115.925 475.875 103.411 491.038 94.9329C501.704 113.416 506.412 130.505 507.639 129.9Z" fill="white" stroke="black" stroke-width="2"/>
<path d="M705.588 227.615C720.579 215.951 731.498 204.35 734.761 195.911C738.024 187.473 735.765 180.974 732.501 176.558C729.238 172.142 717.914 161.597 703.273 166.038C688.632 170.478 681.83 190.241 681.83 190.241C676.893 201.311 684.273 219.485 679.751 227.615C675.229 235.746 671.587 240.24 665.905 248.497C660.224 256.754 678.705 266.098 683.069 255.862C687.432 245.626 690.597 239.28 705.588 227.615Z" fill="white" stroke="black" stroke-width="2"/>
<path d="M385.599 100.893C370.608 89.2282 359.688 77.6269 356.425 69.1884C353.162 60.7499 355.422 54.2517 358.685 49.8357C361.948 45.4197 373.272 34.8744 387.913 39.3151C402.554 43.7557 409.356 63.5179 409.356 63.5179C414.293 74.5879 406.913 92.762 411.435 100.893C415.957 109.023 419.6 113.517 425.281 121.774C430.962 130.032 412.481 139.375 408.118 129.139C403.754 118.903 400.59 112.557 385.599 100.893Z" fill="white" stroke="black" stroke-width="2"/>
<rect x="1" y="1" width="839" height="317" stroke="black" stroke-width="2"/>
</g>
</svg>
