<svg width="410" height="383" viewBox="0 0 410 383" fill="none" xmlns="http://www.w3.org/2000/svg">
<rect x="116.903" y="17.0902" width="257.255" height="299.822" transform="rotate(15.9282 116.903 17.0902)" fill="white"/>
<path d="M214.649 56.6577C192.103 48.7135 167.471 32.978 147.971 31.6371C140.175 44.8602 139.285 61.4177 143.721 90C155 92 213.226 107.047 213.226 107.047C215.079 91.2211 215.683 74.2886 214.649 56.6577Z" fill="white" stroke="black"/>
<path d="M257.245 73.4299C280.505 78.9484 309.734 79.0434 326.858 88.4667C326.26 103.805 318.049 118.211 298.854 139.848C288.286 135.427 231.178 116.576 231.178 116.576C238.183 102.264 246.836 87.6975 257.245 73.4299Z" fill="white" stroke="black"/>
<path d="M150 138L206.5 151C209.5 141.5 212.769 122.94 213.459 117.05C213.459 117.05 176.232 106.003 143.428 96.5031C143.428 108 146.5 126 150 138Z" fill="white" stroke="black"/>
<path d="M267.601 176.817L213.052 157.178C215.669 147.566 222.962 130.189 225.57 124.862C225.57 124.862 262.853 135.715 295.581 145.475C289.36 155.144 277.037 168.619 267.601 176.817Z" fill="white" stroke="black"/>
<path d="M151.074 146.262C155.81 185.796 165.823 231.878 181.472 209.775C195.417 190.079 200.216 174.342 203.651 158.685L151.074 146.262Z" fill="white" stroke="black"/>
<path d="M262.227 183.184C236.853 213.868 203.499 247.204 202.298 220.148C201.227 196.04 205.707 180.208 211.289 165.183L262.227 183.184Z" fill="white" stroke="black"/>
<path d="M401.901 160.942C397.231 158.355 390.47 154.969 387.499 144.828C384.527 134.687 379.338 130.127 379.338 130.127C379.338 130.127 369.852 155.293 355.531 161.166C348.225 164.162 346.722 153.531 344.326 148.441C324.747 154.898 314.546 135.115 326.312 111.793C338.079 88.4721 369.865 85.5669 362.659 114.145C369.155 105.147 375.691 104.04 381.655 104.741C390.463 105.776 392.843 118.661 395.44 130.668C398.036 142.676 406.572 163.528 401.901 160.942Z" fill="white"/>
<path d="M362.659 114.145C369.865 85.5669 338.079 88.4721 326.312 111.793C314.546 135.115 324.747 154.898 344.326 148.441M344.326 148.441C346.722 153.531 348.225 164.162 355.531 161.166C369.852 155.293 379.338 130.127 379.338 130.127C379.338 130.127 384.527 134.687 387.499 144.828C390.47 154.969 397.231 158.355 401.901 160.942C406.572 163.528 398.036 142.676 395.44 130.668C392.843 118.661 390.463 105.776 381.655 104.741C372.847 103.705 362.791 106.613 353.46 133.059C354.813 128.575 354.795 113.832 348.933 109.399M344.326 148.441C342.777 144.946 339.426 135.492 332.307 133.032" stroke="black"/>
<path d="M44.4933 55.0975C49.8227 55.4147 57.3456 56.176 65.2863 49.2035C73.2271 42.2309 80.0512 41.1592 80.0512 41.1592C80.0512 41.1592 74.584 67.4922 83.5322 80.1212C88.0975 86.5643 95.0605 78.3914 99.8102 75.3773C112.886 91.3158 132.096 80.0725 134.65 54.076C137.204 28.0795 111.917 8.6025 102.697 36.5957C102.03 25.5175 97.1033 21.0821 91.6911 18.4797C83.6983 14.6365 74.7875 24.243 66.164 32.9927C57.5404 41.7424 39.1638 54.7803 44.4933 55.0975Z" fill="white"/>
<path d="M102.697 36.5957C111.917 8.6025 137.204 28.0795 134.65 54.076C132.096 80.0725 112.886 91.3158 99.8102 75.3773M99.8102 75.3773C95.0605 78.3914 88.0975 86.5643 83.5322 80.1212C74.584 67.4922 80.0512 41.1592 80.0512 41.1592C80.0512 41.1592 73.2271 42.2309 65.2863 49.2035C57.3456 56.176 49.8227 55.4147 44.4933 55.0975C39.1638 54.7803 57.5404 41.7424 66.164 32.9927C74.7875 24.243 83.6983 14.6365 91.6911 18.4797C99.6839 22.3229 106.618 30.164 100.335 57.4951C101.593 52.9834 109.505 40.5433 116.829 39.939M99.8102 75.3773C102.99 73.2543 110.883 67.0661 118.212 68.8012" stroke="black"/>
<path d="M294.783 157.267C310.829 166.759 338.546 190.868 345.74 200.708C352.934 210.548 329.723 221.121 313.957 229.187C299.129 220.681 278.242 205.334 264.605 196.485C267.131 197.521 262.876 180.117 294.783 157.267Z" fill="white" stroke="black"/>
<path d="M136.921 109.364C118.287 108.787 81.9683 114.302 70.6232 118.758C59.2781 123.215 73.216 144.575 82.2107 159.831C99.2879 160.589 125.146 158.815 141.402 158.646C138.715 158.168 151.629 145.75 136.921 109.364Z" fill="white" stroke="black"/>
<path d="M234.547 247.419C247.413 253.256 274.64 257.083 287.474 259.717C294.815 256.574 305.255 251.233 315.388 242.768C298.388 230.11 273.888 214.61 255.107 204.11C241.897 227.003 236.067 248.168 234.547 247.419Z" fill="white" stroke="black"/>
<path d="M139.506 217.758C125.515 215.796 100.473 204.446 88.2243 199.797C83.7076 193.211 77.7514 183.109 73.7282 170.533C94.8634 168.949 123.855 168.981 145.339 170.172C144.234 196.579 137.822 217.576 139.506 217.758Z" fill="white" stroke="black"/>
<path d="M287.617 371.27C293.021 358.592 296.94 350.732 315.508 336.285C321.189 331.864 326.398 327.451 331.008 323.155C319 314 292.5 293 286.083 289.994C279.968 303.705 289.109 326.214 283.508 336.285C277.906 346.355 273.395 351.921 266.359 362.148C259.322 372.375 282.212 383.948 287.617 371.27Z" fill="white" stroke="black"/>
<path d="M34.3319 292.839C35.7835 279.134 36.1868 270.36 27.0023 248.701C24.192 242.074 21.7906 235.683 19.8555 229.686C34.8011 227.536 68.1723 222.094 75.2411 222.592C73.9073 237.546 54.964 252.757 54.9538 264.281C54.9435 275.804 56.1741 282.861 57.3412 295.22C58.5083 307.58 32.8803 306.544 34.3319 292.839Z" fill="white" stroke="black"/>
<path d="M360.55 289.233C364.592 278.781 361.793 270.733 357.751 265.263C353.71 259.794 339.684 246.733 321.551 252.233C303.417 257.733 294.992 282.209 294.992 282.209C302.917 289.233 327.417 310.5 338.146 317C349.54 306.648 357.59 296.889 360.55 289.233Z" fill="white" stroke="black"/>
<path d="M10.5656 185.673C12.1238 174.576 18.4871 168.908 24.6802 166.098C30.8732 163.288 49.4834 158.708 62.645 172.341C75.8067 185.974 71.2488 211.455 71.2488 211.455C60.9074 213.732 29.1529 220.381 16.6169 220.835C11.7046 206.245 9.42412 193.802 10.5656 185.673Z" fill="white" stroke="black"/>
</svg>
