<svg width="841" height="457" viewBox="0 0 841 457" fill="none" xmlns="http://www.w3.org/2000/svg">
<mask id="mask0_129_207" style="mask-type:alpha" maskUnits="userSpaceOnUse" x="0" y="0" width="841" height="457">
<rect x="1" y="1" width="839" height="455" fill="#FFE7E7" stroke="black" stroke-width="2"/>
</mask>
<g mask="url(#mask0_129_207)">
<rect width="841" height="457" fill="#FFE7E7"/>
<rect x="157.918" y="433.761" width="395.081" height="586.5" rx="7" transform="rotate(-92.2605 157.918 433.761)" fill="#D9D9D9" stroke="black" stroke-width="2"/>
<path d="M370.202 221.761C382.834 243.937 404.047 266.824 409.162 287.054C397.071 293.951 384.946 296.158 355.932 297.565L325.716 233.639C337.122 228.647 353.294 224.27 370.202 221.761Z" fill="white" stroke="black" stroke-width="2"/>
<path d="M611.008 41.8002C590.078 56.4037 561.093 67.9638 547.786 84.0379C555.744 95.4578 553.234 95.7425 578.832 109.472L633.571 64.7146C625.413 55.3089 625.201 51.3265 611.008 41.8002Z" fill="white" stroke="black" stroke-width="2"/>
<path d="M692.15 46.885C679.518 69.0611 658.305 91.9477 653.19 112.178C665.281 119.074 663.136 120.41 692.15 121.817L722.367 57.8905C710.96 52.8992 709.058 49.3937 692.15 46.885Z" fill="white" stroke="black" stroke-width="2"/>
<path d="M242.52 268.831C264.808 281.265 308.678 304.957 308.678 304.957C297.539 318.049 300.252 318.069 278.543 332.334L219.597 293.282C225.522 286.316 231.608 277.154 242.52 268.831Z" fill="white" stroke="black" stroke-width="2"/>
<path d="M207.168 182.035C222.706 202.281 253.602 241.413 253.602 241.413C238.188 249.022 240.671 250.115 215.087 254.612L176.434 195.405C184.634 191.355 193.852 185.355 207.168 182.035Z" fill="white" stroke="black" stroke-width="2"/>
<path d="M599.322 129.143C577.035 141.577 533.165 165.268 533.165 165.268C544.303 178.361 547.403 183.233 569.112 197.497L628.058 158.446L627.967 158.339C622.012 151.337 610.178 137.424 599.322 129.143Z" fill="white" stroke="black" stroke-width="2"/>
<path d="M186.749 367.433C211.391 341.75 234.24 334.573 234.24 334.573L266.803 392.224C224.257 397.303 162.107 393.116 186.749 367.433Z" fill="white" stroke="black" stroke-width="2"/>
<path d="M721.591 166.87C696.949 141.188 674.099 134.011 674.099 134.011L641.537 191.662C684.083 196.74 746.232 192.553 721.591 166.87Z" fill="white" stroke="black" stroke-width="2"/>
<path d="M393.993 408.765C394.973 403.15 396.031 395.147 405.227 388.611C414.423 382.075 417.213 375.248 417.213 375.248C417.213 375.248 388.511 374.456 377.59 362.055C372.018 355.729 382.22 350.503 386.519 346.31C373.174 328.807 389.577 311.612 417.213 315.349C444.85 319.085 458.87 350.144 427.521 352.843C438.866 356.258 442.263 362.467 443.637 368.729C445.665 377.978 433.494 384.875 422.284 391.683C411.074 398.492 393.012 414.38 393.993 408.765Z" fill="white"/>
<path d="M427.521 352.843C458.87 350.144 444.85 319.085 417.213 315.349C389.577 311.612 373.174 328.807 386.519 346.31M386.519 346.31C382.22 350.503 372.018 355.729 377.59 362.055C388.511 374.456 417.213 375.248 417.213 375.248C417.213 375.248 414.423 382.075 405.227 388.611C396.031 395.147 394.973 403.15 393.993 408.765C393.012 414.38 411.074 398.492 422.284 391.683C433.494 384.875 445.665 377.978 443.637 368.729C441.608 359.481 435.166 350.349 405.227 350.16C410.224 349.961 425.093 344.799 427.521 337.338M386.519 346.31C389.507 343.528 397.876 336.849 397.875 328.807" stroke="black" stroke-width="2"/>
<path d="M490.532 166.455C489.552 160.84 488.494 152.838 479.298 146.301C470.102 139.765 467.312 132.939 467.312 132.939C467.312 132.939 496.014 132.147 506.935 119.746C512.507 113.419 502.305 108.194 498.006 104C511.351 86.4975 494.948 69.3026 467.312 73.0392C439.675 76.7759 425.655 107.834 457.005 110.533C445.659 113.949 442.262 120.157 440.888 126.42C438.86 135.669 451.031 142.565 462.241 149.374C473.451 156.183 491.513 172.07 490.532 166.455Z" fill="white"/>
<path d="M457.005 110.533C425.655 107.834 439.675 76.7759 467.312 73.0392C494.948 69.3026 511.351 86.4975 498.006 104M498.006 104C502.305 108.194 512.507 113.419 506.935 119.746C496.014 132.147 467.312 132.939 467.312 132.939C467.312 132.939 470.102 139.765 479.298 146.301C488.494 152.838 489.552 160.84 490.532 166.455C491.513 172.07 473.451 156.183 462.241 149.374C451.031 142.565 438.86 135.669 440.888 126.42C442.917 117.171 449.359 108.04 479.298 107.85C474.301 107.651 459.432 102.489 457.005 95.0288M498.006 104C495.018 101.218 486.649 94.539 486.65 86.4975" stroke="black" stroke-width="2"/>
<path d="M497.711 196.214C514.108 207.496 541.87 235.198 548.814 246.204C555.758 257.209 530.265 266.777 512.883 274.217C497.711 264.075 476.584 246.204 462.705 235.783C465.319 237.071 462.057 218.223 497.711 196.214Z" fill="white" stroke="black" stroke-width="2"/>
<path d="M375.531 41.9087C359.134 53.1902 331.372 80.8927 324.428 91.8982C317.484 102.904 342.977 112.471 360.359 119.912C375.531 109.769 396.658 91.8982 410.537 81.4773C407.923 82.7651 411.185 63.9177 375.531 41.9087Z" fill="white" stroke="black" stroke-width="2"/>
<path d="M474.154 361.963C487.891 368.194 516.958 372.28 530.659 375.092C538.497 371.737 549.644 366.035 560.462 356.997C542.312 343.484 516.156 326.936 496.105 315.726C482.001 340.166 475.777 362.763 474.154 361.963Z" fill="white" stroke="black" stroke-width="2"/>
<path d="M387.938 184.752C374.201 190.983 345.134 195.07 331.433 197.881C323.595 194.526 312.448 188.824 301.63 179.786C319.78 166.273 345.936 149.725 365.987 138.515C380.091 162.955 386.315 185.552 387.938 184.752Z" fill="white" stroke="black" stroke-width="2"/>
<path d="M649.687 313.961C669.51 298.537 683.949 283.197 688.264 272.038C692.578 260.88 689.59 252.288 685.275 246.448C680.961 240.609 665.986 226.665 646.627 232.537C627.267 238.409 618.273 264.54 618.273 264.54C611.744 279.178 621.503 303.21 615.523 313.961C609.543 324.712 604.727 330.654 597.215 341.573C589.703 352.492 614.14 364.847 619.91 351.312C625.68 337.777 629.864 329.385 649.687 313.961Z" fill="white" stroke="black" stroke-width="2"/>
<path d="M226.564 146.395C206.741 130.971 192.302 115.63 187.987 104.472C183.672 93.3138 186.66 84.7212 190.975 78.8819C195.29 73.0426 210.264 59.0984 229.624 64.9703C248.984 70.8422 257.978 96.9738 257.978 96.9738C264.506 111.612 254.748 135.644 260.727 146.395C266.707 157.146 271.523 163.088 279.036 174.007C286.548 184.925 262.11 197.28 256.341 183.745C250.571 170.21 246.386 161.819 226.564 146.395Z" fill="white" stroke="black" stroke-width="2"/>
<rect x="1" y="1" width="839" height="455" stroke="black" stroke-width="2"/>
</g>
</svg>
