<svg width="457" height="457" viewBox="0 0 457 457" fill="none" xmlns="http://www.w3.org/2000/svg">
<mask id="mask0_143_276" style="mask-type:alpha" maskUnits="userSpaceOnUse" x="0" y="0" width="457" height="457">
<rect x="1" y="1" width="455" height="455" fill="#FFE7E7" stroke="black" stroke-width="2"/>
</mask>
<g mask="url(#mask0_143_276)">
<rect width="457" height="457" fill="#FFE7E7"/>
<rect x="-34.3339" y="58.2917" width="512.553" height="342.655" rx="31" transform="rotate(-0.130475 -34.3339 58.2917)" fill="#D9D9D9" stroke="black" stroke-width="2"/>
<circle cx="87" cy="132" r="20" fill="black"/>
<circle cx="166" cy="84" r="20" fill="black"/>
<circle cx="304" cy="120" r="20" fill="black"/>
<path d="M91.0625 120.234V143H86.1719V125.797L80.8906 127.406V123.625L90.5781 120.234H91.0625Z" fill="white"/>
<path d="M174.469 91.2031V95H158.75V91.7812L166.094 84C166.781 83.2083 167.328 82.5104 167.734 81.9062C168.151 81.3021 168.453 80.7552 168.641 80.2656C168.828 79.7656 168.922 79.3073 168.922 78.8906C168.922 78.2135 168.812 77.6406 168.594 77.1719C168.385 76.7031 168.078 76.3438 167.672 76.0938C167.266 75.8438 166.771 75.7188 166.188 75.7188C165.562 75.7188 165.026 75.8802 164.578 76.2031C164.13 76.526 163.786 76.974 163.547 77.5469C163.307 78.1094 163.188 78.75 163.188 79.4688H158.281C158.281 78.0833 158.615 76.8229 159.281 75.6875C159.948 74.5417 160.88 73.6302 162.078 72.9531C163.276 72.2656 164.677 71.9219 166.281 71.9219C167.927 71.9219 169.307 72.1823 170.422 72.7031C171.536 73.224 172.38 73.9688 172.953 74.9375C173.526 75.9062 173.812 77.0729 173.812 78.4375C173.812 79.2083 173.688 79.9531 173.438 80.6719C173.198 81.3906 172.849 82.1042 172.391 82.8125C171.932 83.5208 171.38 84.2448 170.734 84.9844C170.089 85.7135 169.359 86.4844 168.547 87.2969L165.109 91.2031H174.469Z" fill="white"/>
<path d="M301.453 117.547H303.938C304.646 117.547 305.229 117.422 305.688 117.172C306.156 116.922 306.5 116.568 306.719 116.109C306.948 115.651 307.062 115.115 307.062 114.5C307.062 113.969 306.958 113.495 306.75 113.078C306.542 112.661 306.224 112.333 305.797 112.094C305.38 111.844 304.839 111.719 304.172 111.719C303.693 111.719 303.234 111.818 302.797 112.016C302.37 112.203 302.021 112.479 301.75 112.844C301.479 113.198 301.344 113.625 301.344 114.125H296.453C296.453 112.854 296.797 111.755 297.484 110.828C298.182 109.901 299.104 109.188 300.25 108.688C301.406 108.177 302.667 107.922 304.031 107.922C305.604 107.922 306.984 108.172 308.172 108.672C309.37 109.161 310.297 109.891 310.953 110.859C311.62 111.818 311.953 113.005 311.953 114.422C311.953 115.161 311.776 115.875 311.422 116.562C311.078 117.24 310.583 117.844 309.938 118.375C309.302 118.896 308.542 119.312 307.656 119.625C306.781 119.927 305.807 120.078 304.734 120.078H301.453V117.547ZM301.453 121.219V118.734H304.734C305.922 118.734 306.984 118.87 307.922 119.141C308.859 119.411 309.656 119.802 310.312 120.312C310.969 120.823 311.469 121.443 311.812 122.172C312.156 122.901 312.328 123.714 312.328 124.609C312.328 125.672 312.12 126.62 311.703 127.453C311.286 128.286 310.703 128.99 309.953 129.562C309.203 130.135 308.323 130.573 307.312 130.875C306.302 131.167 305.208 131.312 304.031 131.312C303.083 131.312 302.141 131.182 301.203 130.922C300.266 130.661 299.417 130.266 298.656 129.734C297.896 129.193 297.286 128.51 296.828 127.688C296.37 126.854 296.141 125.865 296.141 124.719H301.031C301.031 125.25 301.167 125.729 301.438 126.156C301.719 126.573 302.099 126.906 302.578 127.156C303.068 127.396 303.599 127.516 304.172 127.516C304.859 127.516 305.443 127.391 305.922 127.141C306.411 126.88 306.781 126.526 307.031 126.078C307.292 125.63 307.422 125.115 307.422 124.531C307.422 123.74 307.281 123.104 307 122.625C306.729 122.135 306.333 121.781 305.812 121.562C305.292 121.333 304.667 121.219 303.938 121.219H301.453Z" fill="white"/>
<path d="M112.896 254.654C129.562 244.066 147.613 235.407 163.721 205.8C170.322 193.667 175.392 182.64 180.458 173.249C187.753 159.724 195.037 149.593 206.867 144.437C216.199 140.37 226.327 141.851 237.52 145.265C248.712 148.679 264.377 153.972 280.677 159.192C280.677 159.192 341.869 196.857 360.378 216.113L264.733 310.426C262.756 308.369 258.749 301.543 256.746 298.545C245.504 281.712 234.859 255.459 228.153 237.927C222.593 241.59 215.498 243.753 207.967 245.299C191.171 248.747 172.208 249.121 163.277 256.204C150.343 266.464 143.556 270.26 130.733 282.585C117.911 294.911 96.2294 265.241 112.896 254.654Z" fill="white" stroke="black" stroke-width="2"/>
<line x1="195.337" y1="71.7617" x2="259.726" y2="364.309" stroke="black" stroke-width="2" stroke-linecap="round" stroke-dasharray="13 13"/>
<line x1="115.711" y1="95.4829" x2="233.233" y2="339.145" stroke="black" stroke-width="2" stroke-linecap="round" stroke-dasharray="13 13"/>
<line x1="339.997" y1="121.443" x2="168.225" y2="349.891" stroke="black" stroke-width="2" stroke-linecap="round" stroke-dasharray="13 13"/>
<path d="M139.471 300.509C131.69 318.855 103.77 339.108 77.6208 348.171C51.472 357.234 39.7671 351.524 39.7671 351.524L-35.9587 538.847L-87.3516 521.53C-87.3516 521.53 -4.66899 347.606 -2.45401 333.618C-0.239029 319.629 -2.32923 310.533 -4.36323 287.278C-6.39723 264.024 18.0731 192.299 26.1467 183.781C34.2203 175.262 26.6709 252.671 26.6709 252.671C26.6709 252.671 58.3039 167.563 67.8375 167.874C77.3711 168.185 49.2508 255.529 49.2508 255.529C49.2508 255.529 104.5 155.059 111.001 166.027C117.502 176.994 69.4162 264.081 69.4162 264.081C69.4162 264.081 133.188 192.603 145.429 197.049C157.671 201.494 92.4078 288.76 87.5786 300.147C93.9178 318.51 147.251 282.163 139.471 300.509Z" fill="white" stroke="black" stroke-width="2"/>
<path d="M344.515 320.575L365.109 86.6418L448.195 71.1789L428.818 320.811L417.283 458.12L385.927 457.375L395.537 321.053L344.515 320.575Z" fill="white"/>
<path d="M428.818 320.811L448.195 71.1789L365.109 86.6418L344.515 320.575L395.537 321.053M428.818 320.811L417.283 458.12L385.927 457.375L395.537 321.053M428.818 320.811L395.537 321.053" stroke="black" stroke-width="2"/>
<path d="M384.587 377.921C384.587 377.921 373.898 366.701 373.106 358.156C373.065 358.104 373.024 358.051 372.984 357.997C368.263 351.649 382.673 340.02 387.922 339.367C393.586 338.662 405.435 340.251 411.847 341.819C418.659 343.484 423.427 347.094 427.479 349.622C427.479 349.622 439.126 367.163 439.585 384.685C440.044 402.208 427.402 437.553 430.936 452.572L461.506 539.002L421.162 615.249L392.202 456.494L398.366 445.852C398.366 445.852 403.854 436.303 396.719 412.423C394.842 406.143 394.371 399.954 394.552 394.116C394.383 395.014 394.129 395.94 393.8 396.904C391.383 403.985 385.931 402.179 385.931 402.179C393.879 406.385 395.59 412.442 393.472 416.601C391.355 420.759 384.203 419.033 384.203 419.033C384.203 419.033 391.641 421.419 392.043 430.547C392.445 439.675 383.833 433.651 383.833 433.651C383.833 433.651 372.656 429.653 372.203 420.621C371.749 411.589 384.203 419.033 384.203 419.033C384.203 419.033 369.635 406.303 372.542 400.807C375.45 395.312 384.917 401.067 384.917 401.067C384.917 401.067 370.266 387.949 371.856 379.999C373.447 372.048 384.587 377.921 384.587 377.921Z" fill="white"/>
<path d="M384.587 377.921C384.587 377.921 371.302 363.976 373.256 355.339C375.21 346.701 389.576 355.614 389.576 355.614L392.72 355.502C392.72 355.502 400.506 365.789 396.144 374.032C391.782 382.275 384.587 377.921 384.587 377.921ZM384.587 377.921C384.587 377.921 373.447 372.048 371.856 379.999C370.266 387.949 384.917 401.067 384.917 401.067M384.587 377.921C394.605 384.81 396.217 389.824 393.8 396.904C391.383 403.985 385.931 402.179 385.931 402.179M384.917 401.067C384.917 401.067 375.45 395.312 372.542 400.807C369.635 406.303 384.203 419.033 384.203 419.033M384.917 401.067L385.931 402.179M385.931 402.179C393.879 406.385 395.59 412.442 393.472 416.601C391.355 420.759 384.203 419.033 384.203 419.033M384.203 419.033C384.203 419.033 371.749 411.589 372.203 420.621C372.656 429.653 383.833 433.651 383.833 433.651C383.833 433.651 392.445 439.675 392.043 430.547C391.641 421.419 384.203 419.033 384.203 419.033ZM411.847 341.819C418.659 343.484 423.427 347.094 427.479 349.622C427.479 349.622 439.126 367.163 439.585 384.685C440.044 402.208 427.402 437.553 430.936 452.572L461.506 539.002L421.162 615.249L392.202 456.494L398.366 445.852C398.366 445.852 403.854 436.303 396.719 412.423C389.583 388.544 402.767 365.992 394.864 359.018C389.799 354.548 377.705 364.344 372.984 357.997C368.263 351.649 382.673 340.02 387.922 339.367C393.586 338.662 405.435 340.251 411.847 341.819Z" stroke="black" stroke-width="2"/>
<rect x="1" y="1" width="455" height="455" stroke="black" stroke-width="2"/>
</g>
</svg>
