<svg width="449" height="376" viewBox="0 0 449 376" fill="none" xmlns="http://www.w3.org/2000/svg">
<rect x="131.903" y="12.0902" width="257.255" height="299.822" transform="rotate(15.9282 131.903 12.0902)" fill="white"/>
<path d="M229.556 48.6577C207.01 40.7135 182.378 24.9781 162.878 23.6371C157.108 33.4238 155.121 45.037 156.276 62L229.605 82C230.208 71.2547 230.228 60.1034 229.556 48.6577Z" fill="white" stroke="black"/>
<path d="M274.867 61.8017C298.195 67.0218 327.423 66.7425 344.666 75.9456C344.369 87.3028 339.895 98.2025 329.921 111.972L257.145 90.0444C262.331 80.6145 268.228 71.1498 274.867 61.8017Z" fill="white" stroke="black"/>
<path d="M159 103L225.759 119C227.759 109 229.57 95.4187 230.259 89.5284C230.259 89.5284 189.125 78.4815 156.321 68.9815C156.321 80.4784 156.321 89.5284 159 103Z" fill="white" stroke="black"/>
<path d="M305.871 145.288L240.786 123.454C244.393 113.915 250.06 101.44 252.598 96.0806C252.598 96.0806 293.331 108.527 326.181 117.867C320.085 127.615 315.286 135.288 305.871 145.288Z" fill="white" stroke="black"/>
<path d="M163.179 136.5L221.679 149.5C223.679 139.5 224.99 131.093 225.679 125.203C225.679 125.203 191.179 116.703 158.679 108.703C160.679 117.203 161.179 128 163.179 136.5Z" fill="white" stroke="black"/>
<path d="M284.564 171.475L228.072 151.476C231.679 141.937 235.026 134.115 237.565 128.755C237.565 128.755 271.322 139.843 303.119 150.294C296.916 156.44 290.767 165.329 284.564 171.475Z" fill="white" stroke="black"/>
<path d="M168.595 165.113L215.31 175.873C218.31 166.373 220.12 161.263 220.81 155.373C220.81 155.373 198.596 150.613 165.096 142.113C165.096 152.613 166.595 155.373 168.595 165.113Z" fill="white" stroke="black"/>
<path d="M264.799 192.861L219.488 177.213C221.982 167.568 223.156 162.276 225.695 156.916C225.695 156.916 247.053 164.66 279.963 175.217C274.395 184.119 271.66 185.664 264.799 192.861Z" fill="white" stroke="black"/>
<path d="M169.469 173.798C174.955 205.205 183.877 231.287 196.419 213.573C204.152 202.651 209.072 192.947 212.507 183.798L169.469 173.798Z" fill="white" stroke="black"/>
<path d="M259.453 199.762C238.148 223.481 216.753 240.863 215.513 219.194C214.748 205.834 215.722 194.997 217.661 185.419L259.453 199.762Z" fill="white" stroke="black"/>
<path d="M126.5 43.5C135.72 15.5068 158 60.5 137.832 62M133 34.5772C117.671 37.6382 119 50.5 109.5 58C100 65.5 93 67.5 98.5 74C104 80.5 108.69 68.1227 114 65C122.5 58 129.5 70.3773 139.5 60.5" stroke="black"/>
<path d="M364.976 112.076C372.003 83.4533 329.255 109.786 345.559 121.752M364.197 101.064C375.57 111.788 367.623 121.988 371.7 133.384C375.778 144.78 380.652 150.188 372.542 152.782C364.433 155.377 367.02 142.396 364.173 136.933C360.679 126.491 348.181 133.273 344.94 119.596" stroke="black"/>
<path d="M38.2079 41.7646C43.5373 42.0818 51.0602 42.8432 59.001 35.8706C66.9417 28.8981 73.7658 27.8264 73.7658 27.8264C73.7658 27.8264 68.2986 54.1594 77.2469 66.7883C81.8121 73.2314 90 66.7883 94.0497 44.1623C98.0993 21.5363 93.3986 8.99011 85.4058 5.14691C77.4129 1.30371 68.5022 10.9102 59.8786 19.6599C51.2551 28.4096 32.8785 41.4474 38.2079 41.7646Z" fill="white" stroke="black"/>
<path d="M440.753 157.423C436.066 154.866 429.285 151.522 426.25 141.4C423.214 131.278 417.997 126.751 417.997 126.751C417.997 126.751 408.669 151.976 394.386 157.938C387.098 160.98 383.573 151.175 392.137 129.845C400.702 108.514 411.34 100.37 420.154 101.35C428.969 102.33 431.43 115.2 434.101 127.191C436.773 139.182 445.44 159.98 440.753 157.423Z" fill="white" stroke="black"/>
<path d="M82.249 192.483C73.2543 177.227 54.1932 127.254 65.5383 122.798C68.9115 121.473 74.9452 119.546 82.249 117.509C84.8176 122.916 93.1788 173.647 97.0383 198.337C91.5773 196.109 86.5058 194.05 82.249 192.483Z" fill="white" stroke="black"/>
<path d="M323.493 261.853C339.209 253.688 381.868 221.427 374.613 211.633C372.455 208.721 368.361 203.888 363.249 198.288C358.204 201.51 324.214 240.088 307.85 258.974C313.662 259.981 319.053 260.925 323.493 261.853Z" fill="white" stroke="black"/>
<path d="M125.5 206.378C126.3 161.133 119.833 123.198 116.5 109.885C106.806 111.782 96.6586 114.288 88.2107 116.645C90.7793 122.052 99.1405 172.783 103 197.473C110.151 200.391 117.969 203.599 125.5 206.378Z" fill="white" stroke="black"/>
<path d="M279.456 250.699C302.769 211.916 328.367 183.181 338.253 173.662C345.466 180.411 352.74 187.916 358.653 194.394C353.608 197.616 319.618 236.194 303.254 255.08C295.644 253.762 287.314 252.337 279.456 250.699Z" fill="white" stroke="black"/>
<path d="M153.5 212.281C150.813 211.803 168 141.281 148.921 106.145C142.236 105.938 132.614 107.254 122.5 109.233C125.833 122.545 132.3 160.481 131.5 205.725C139.551 208.696 147.273 211.174 153.5 212.281Z" fill="white" stroke="black"/>
<path d="M252.586 240.857C255.118 241.877 277.941 172.972 312.748 153.299C318.526 156.669 325.986 162.886 333.512 169.927C323.626 179.447 298.028 208.181 274.715 246.965C266.314 245.214 258.452 243.221 252.586 240.857Z" fill="white" stroke="black"/>
<path d="M34.184 283.992C35.6356 270.287 36.0389 261.514 26.8544 239.855C24.0442 233.227 21.6427 226.837 19.7076 220.84C34.6532 218.689 68.0245 213.247 75.0932 213.746C73.7595 228.699 54.8161 243.911 54.8059 255.434C54.7957 266.957 56.0263 274.015 57.1934 286.374C58.3604 298.733 32.7325 297.697 34.184 283.992Z" fill="white" stroke="black"/>
<path d="M315.72 364.925C321.756 352.536 326.067 344.883 345.339 331.39C351.236 327.262 356.661 323.117 361.481 319.059C349.95 309.31 324.542 287.001 318.285 283.675C311.487 297.06 319.481 320.002 313.38 329.777C307.278 339.552 302.492 344.884 294.949 354.743C287.406 364.603 309.683 377.314 315.72 364.925Z" fill="white" stroke="black"/>
<path d="M10.4178 176.826C11.9759 165.729 18.3392 160.062 24.5323 157.252C30.7254 154.442 49.3355 149.862 62.4972 163.494C75.6589 177.127 71.1009 202.608 71.1009 202.608C60.7596 204.885 29.0051 211.534 16.4691 211.988C11.5568 197.399 9.27627 184.955 10.4178 176.826Z" fill="white" stroke="black"/>
<path d="M392.696 286.668C397.26 276.434 394.87 268.255 391.109 262.588C387.348 256.922 373.999 243.171 355.611 247.75C337.223 252.329 327.576 276.35 327.576 276.35C335.136 283.763 358.533 306.239 368.921 313.271C380.822 303.507 389.353 294.166 392.696 286.668Z" fill="white" stroke="black"/>
</svg>
