<svg width="841" height="319" viewBox="0 0 841 319" fill="none" xmlns="http://www.w3.org/2000/svg">
<mask id="mask0_129_207" style="mask-type:alpha" maskUnits="userSpaceOnUse" x="0" y="0" width="841" height="319">
<rect x="1" y="1" width="839" height="317" fill="#FFE7E7" stroke="black" stroke-width="2"/>
</mask>
<g mask="url(#mask0_129_207)">
<rect width="841" height="319" fill="#FFE7E7"/>
<rect x="301.131" y="322.346" width="306.586" height="455.344" rx="7" transform="rotate(-92.2605 301.131 322.346)" fill="#D9D9D9" stroke="black" stroke-width="2"/>
<path d="M571.008 245.754C564.647 228.3 561.934 205.747 553.113 193.381C544.391 194.748 536.439 199.288 526.828 208.354L551.018 262.242C557.766 257.3 564.469 251.807 571.008 245.754Z" fill="white" stroke="black"/>
<path d="M685.132 78.5883C703.261 82.645 725.975 82.4279 739.376 89.5799C739.145 98.406 735.668 106.877 727.917 117.577L671.36 100.537C675.391 93.2083 679.973 85.853 685.132 78.5883Z" fill="white" stroke="black"/>
<path d="M453.366 124.594L505.247 137.028C506.801 129.257 508.208 118.702 508.744 114.125C508.744 114.125 476.777 105.54 451.284 98.1569C451.284 107.092 451.284 114.125 453.366 124.594Z" fill="white" stroke="black"/>
<path d="M684.728 267.793L634.149 250.824C636.952 243.411 641.355 233.717 643.328 229.552C643.328 229.552 674.983 239.224 700.512 246.483C695.775 254.058 692.045 260.021 684.728 267.793Z" fill="white" stroke="black"/>
<path d="M524.342 168.336L568.598 153.834C565.97 146.357 563.513 140.218 561.639 136.008C561.639 136.008 535.209 144.003 510.314 151.541C515.021 156.429 519.635 163.448 524.342 168.336Z" fill="white" stroke="black"/>
<path d="M397.591 194.139L373.32 154.392C380.17 150.406 386.022 147.329 390.18 145.34C390.18 145.34 405.107 168.571 419.162 190.457C412.409 191.124 404.344 193.472 397.591 194.139Z" fill="white" stroke="black"/>
<path d="M500.227 50.874L534.012 35.1757C531.317 27.9176 529.989 23.9197 527.6 19.9783C527.6 19.9783 511.705 27.6621 487.103 38.4392C492.114 44.8786 494.352 45.8553 500.227 50.874Z" fill="white" stroke="black"/>
<path d="M327.13 301.261L340.625 266.537C348.041 268.76 352.116 269.829 356.203 271.959C356.203 271.959 349.557 288.316 340.383 313.56C333.635 308.972 332.516 306.802 327.13 301.261Z" fill="white" stroke="black"/>
<path d="M426.582 87.3035C401.898 89.4504 381.107 94.6128 393.983 105.509C401.922 112.227 409.107 116.686 415.96 119.957L426.582 87.3035Z" fill="white" stroke="black"/>
<path d="M564.235 285.978C542.244 297.394 521.924 304.177 526.956 288.078C530.059 278.152 533.735 270.537 537.768 264.102L564.235 285.978Z" fill="white" stroke="black"/>
<path d="M453.267 65.4267C464.577 63.5099 456.082 41.8536 448.637 44.2208C436.724 46.5996 437.757 56.5949 430.374 62.4234C422.991 68.2519 417.551 69.8062 421.826 74.8576C426.1 79.909 429.745 70.2901 433.871 67.8634C440.134 62.706 446.047 71.0832 453.267 65.4267Z" fill="white"/>
<path d="M443.586 51.155C450.751 29.4005 468.065 64.3663 452.392 65.532M448.637 44.2208C436.724 46.5996 437.757 56.5949 430.374 62.4234C422.991 68.2519 417.551 69.8062 421.826 74.8576C426.1 79.909 429.745 70.2901 433.871 67.8634C440.477 62.4234 446.694 72.0419 454.465 64.3659" stroke="black"/>
<path d="M585.666 132.632C578.506 124.793 596.152 111.236 600.584 117.373C609.045 125.616 603.021 133.474 606.158 142.243C609.327 151.1 613.115 155.302 606.813 157.318C600.51 159.334 602.521 149.247 600.309 145.001C597.692 137.183 588.581 141.789 585.666 132.632Z" fill="white"/>
<path d="M600.933 125.684C606.393 103.44 574.292 124.485 586.963 133.785M600.327 117.126C609.165 125.46 602.99 133.387 606.158 142.243C609.327 151.1 613.115 155.302 606.813 157.318C600.51 159.334 602.521 149.247 600.309 145.001C597.593 136.886 587.88 142.156 585.362 131.528" stroke="black"/>
<path d="M549.215 48.5325C551.447 52.0302 554.4 57.1104 562.409 58.9254C570.418 60.7403 574.206 64.5447 574.206 64.5447C574.206 64.5447 555.144 73.1183 551.281 84.5094C549.31 90.321 557.099 92.5329 573.182 84.7586C589.264 76.9842 595.013 68.3032 593.784 61.5213C592.556 54.7394 582.447 53.5158 573.008 52.0821C563.569 50.6484 546.983 45.0349 549.215 48.5325Z" fill="white" stroke="black"/>
<path d="M451.649 292.894C447.575 292.113 441.763 291.247 437.115 284.476C432.468 277.705 427.533 275.592 427.533 275.592C427.533 275.592 426.613 296.473 417.457 304.273C412.786 308.253 407.851 301.833 409.13 284.016C410.409 266.199 416.35 257.648 423.105 256.283C429.861 254.917 434.735 263.858 439.556 272.098C444.377 280.338 455.724 293.675 451.649 292.894Z" fill="white" stroke="black"/>
<path d="M372.913 132.199C362.72 141.448 327.694 163.826 322.515 155.894C320.975 153.536 318.559 149.248 315.858 144.011C319.568 141.204 356.857 126.849 375.038 120.022C374.203 124.529 373.435 128.713 372.913 132.199Z" fill="white" stroke="black"/>
<path d="M648.423 213.04C660.636 206.694 693.788 181.623 688.149 174.012C686.473 171.749 683.291 167.993 679.318 163.641C675.398 166.145 648.983 196.125 636.266 210.803C640.782 211.585 644.972 212.318 648.423 213.04Z" fill="white" stroke="black"/>
<path d="M525.888 252.119C492.182 242.087 462.433 239.019 451.772 238.739C451.171 246.392 450.932 254.511 450.935 261.327C455.518 260.531 495.241 264.849 514.53 267.107C518.205 262.362 522.237 257.177 525.888 252.119Z" fill="white" stroke="black"/>
<path d="M713.913 228.073C730.725 258.96 739.904 287.423 742.392 297.793C735.031 299.971 727.139 301.891 720.471 303.304C720.297 298.655 707.825 260.694 701.61 242.295C705.488 237.715 709.722 232.694 713.913 228.073Z" fill="white" stroke="black"/>
<path d="M656.774 96.8351C654.686 96.464 668.043 41.6584 653.216 14.3531C648.02 14.1921 640.543 15.2149 632.683 16.7528C635.274 27.0983 640.299 56.5795 639.677 91.7406C645.934 94.0489 651.935 95.9753 656.774 96.8351Z" fill="white" stroke="black"/>
<path d="M616.471 286.195C618.212 284.983 583.133 240.807 585.163 209.802C589.814 207.481 597.032 205.278 604.814 203.384C606.794 213.863 614.575 242.739 629.863 274.409C625.148 279.125 620.505 283.387 616.471 286.195Z" fill="white" stroke="black"/>
<path d="M371.421 266.977C367.666 256.947 364.896 250.708 350.983 238.847C346.726 235.218 342.835 231.611 339.406 228.115C349.046 221.425 370.349 206.042 375.435 203.931C379.706 214.788 371.828 231.946 375.826 239.959C379.825 247.972 383.134 252.449 388.241 260.634C393.349 268.818 375.176 277.007 371.421 266.977Z" fill="white" stroke="black"/>
<path d="M648.909 176.405C653.601 166.777 656.95 160.83 671.927 150.344C676.51 147.136 680.726 143.914 684.472 140.761C675.511 133.185 655.766 115.847 650.903 113.263C645.62 123.665 651.832 141.494 647.091 149.091C642.349 156.687 638.63 160.83 632.768 168.492C626.906 176.155 644.218 186.033 648.909 176.405Z" fill="white" stroke="black"/>
<path d="M329.623 100.698C321.976 96.5303 319.594 90.3518 319.243 85.0784C318.892 79.8049 320.649 65.0148 334.164 59.1678C347.68 53.3207 364.97 63.6036 364.97 63.6036C363.799 71.7488 359.953 96.6665 356.856 105.91C344.9 105.494 335.224 103.751 329.623 100.698Z" fill="white" stroke="black"/>
<path d="M480.359 198.037C483.905 190.083 482.048 183.727 479.125 179.323C476.203 174.92 465.828 164.233 451.539 167.792C437.249 171.35 429.751 190.018 429.751 190.018C435.627 195.779 453.809 213.246 461.882 218.711C471.131 211.123 477.761 203.864 480.359 198.037Z" fill="white" stroke="black"/>
<rect x="1" y="1" width="839" height="317" stroke="black" stroke-width="2"/>
</g>
</svg>
