<svg width="841" height="457" viewBox="0 0 841 457" fill="none" xmlns="http://www.w3.org/2000/svg">
<mask id="mask0_129_207" style="mask-type:alpha" maskUnits="userSpaceOnUse" x="0" y="0" width="841" height="457">
<rect x="1" y="1" width="839" height="455" fill="#FFE7E7" stroke="black" stroke-width="2"/>
</mask>
<g mask="url(#mask0_129_207)">
<rect width="841" height="457" fill="#FFE7E7"/>
<rect x="157.918" y="433.761" width="395.081" height="586.5" rx="7" transform="rotate(-92.2605 157.918 433.761)" fill="#D9D9D9" stroke="black" stroke-width="2"/>
<path d="M505.464 334.907C497.28 312.447 493.788 283.427 482.438 267.514C471.214 269.273 460.982 275.115 448.614 286.781L479.742 356.122C488.425 349.763 497.05 342.695 505.464 334.907Z" fill="white" stroke="black"/>
<path d="M652.317 119.801C675.645 125.021 704.873 124.742 722.116 133.945C721.819 145.302 717.346 156.202 707.371 169.971L634.595 148.044C639.782 138.614 645.679 129.149 652.317 119.801Z" fill="white" stroke="black"/>
<path d="M354.085 179L420.845 195C422.845 185 424.655 171.419 425.345 165.529C425.345 165.529 384.21 154.482 351.406 144.982C351.406 156.479 351.406 165.529 354.085 179Z" fill="white" stroke="black"/>
<path d="M651.797 363.265L586.712 341.43C590.319 331.892 595.986 319.417 598.525 314.057C598.525 314.057 639.257 326.503 672.107 335.844C666.011 345.591 661.212 353.264 651.797 363.265Z" fill="white" stroke="black"/>
<path d="M445.416 235.287L502.363 216.625C498.982 207.004 495.82 199.105 493.409 193.687C493.409 193.687 459.399 203.976 427.365 213.674C433.421 219.965 439.359 228.996 445.416 235.287Z" fill="white" stroke="black"/>
<path d="M282.315 268.489L251.084 217.344C259.899 212.215 267.429 208.255 272.779 205.696C272.779 205.696 291.986 235.589 310.073 263.752C301.383 264.61 291.005 267.631 282.315 268.489Z" fill="white" stroke="black"/>
<path d="M414.385 84.1397L457.859 63.9395C454.391 54.6 452.682 49.4556 449.608 44.3838C449.608 44.3838 429.154 54.2712 397.497 68.1388C403.946 76.425 406.825 77.6818 414.385 84.1397Z" fill="white" stroke="black"/>
<path d="M191.648 406.331L209.013 361.65C218.556 364.51 223.8 365.885 229.058 368.627C229.058 368.627 220.506 389.674 208.701 422.157C200.018 416.254 198.578 413.461 191.648 406.331Z" fill="white" stroke="black"/>
<path d="M319.621 131.016C287.858 133.778 261.105 140.421 277.673 154.442C287.889 163.086 297.134 168.824 305.953 173.034L319.621 131.016Z" fill="white" stroke="black"/>
<path d="M496.749 386.666C468.452 401.355 442.305 410.084 448.78 389.367C452.772 376.594 457.502 366.796 462.692 358.515L496.749 386.666Z" fill="white" stroke="black"/>
<path d="M353.957 102.865C368.511 100.398 357.58 72.5317 348 75.5777C332.671 78.6387 334 91.5005 324.5 99.0005C315 106.5 308 108.5 313.5 115C319 121.5 323.69 109.123 329 106C337.058 99.3641 344.667 110.144 353.957 102.865Z" fill="white"/>
<path d="M341.5 84.5005C350.72 56.5073 373 101.5 352.832 103M348 75.5777C332.671 78.6387 334 91.5005 324.5 99.0005C315 106.5 308 108.5 313.5 115C319 121.5 323.69 109.123 329 106C337.5 99.0005 345.5 111.377 355.5 101.5" stroke="black"/>
<path d="M524.326 189.343C515.113 179.257 537.819 161.811 543.522 169.708C554.409 180.316 546.658 190.427 550.695 201.711C554.772 213.107 559.647 218.515 551.537 221.109C543.427 223.704 546.014 210.723 543.168 205.26C539.801 195.2 528.077 201.127 524.326 189.343Z" fill="white"/>
<path d="M543.971 180.403C550.997 151.78 509.691 178.861 525.995 190.827M543.191 169.391C554.564 180.115 546.617 190.315 550.695 201.711C554.772 213.107 559.647 218.515 551.537 221.109C543.427 223.704 546.014 210.723 543.168 205.26C539.673 194.818 527.175 201.6 523.934 187.923" stroke="black"/>
<path d="M477.421 81.1257C480.293 85.6264 484.093 92.1635 494.399 94.4989C504.705 96.8343 509.579 101.73 509.579 101.73C509.579 101.73 485.051 112.762 480.08 127.42C477.544 134.898 487.567 137.744 508.261 127.74C528.956 117.737 536.353 106.566 534.773 97.8393C533.192 89.1125 520.184 87.538 508.038 85.6932C495.892 83.8483 474.55 76.625 477.421 81.1257Z" fill="white" stroke="black"/>
<path d="M351.876 395.565C346.633 394.561 339.154 393.446 333.175 384.734C327.195 376.021 320.845 373.302 320.845 373.302C320.845 373.302 319.66 400.17 307.878 410.208C301.867 415.328 295.518 407.068 297.163 384.141C298.809 361.215 306.454 350.212 315.146 348.455C323.839 346.698 330.111 358.202 336.315 368.806C342.519 379.409 357.12 396.57 351.876 395.565Z" fill="white" stroke="black"/>
<path d="M250.56 188.787C237.444 200.687 192.373 229.483 185.71 219.277C183.728 216.243 180.619 210.725 177.143 203.985C181.917 200.374 229.9 181.902 253.295 173.118C252.22 178.917 251.232 184.3 250.56 188.787Z" fill="white" stroke="black"/>
<path d="M605.08 292.81C620.795 284.645 663.455 252.384 656.199 242.59C654.042 239.678 649.948 234.845 644.836 229.245C639.791 232.467 605.801 271.045 589.437 289.931C595.248 290.938 600.639 291.882 605.08 292.81Z" fill="white" stroke="black"/>
<path d="M447.404 343.096C404.033 330.188 365.753 326.24 352.035 325.88C351.261 335.728 350.953 346.175 350.957 354.946C356.855 353.922 407.97 359.477 432.79 362.383C437.519 356.277 442.707 349.606 447.404 343.096Z" fill="white" stroke="black"/>
<path d="M689.351 312.154C710.985 351.899 722.796 388.525 725.998 401.869C716.525 404.671 706.37 407.142 697.79 408.96C697.566 402.978 681.517 354.131 673.52 330.455C678.511 324.561 683.959 318.101 689.351 312.154Z" fill="white" stroke="black"/>
<path d="M615.827 143.28C613.139 142.803 630.327 72.2805 611.248 37.1446C604.562 36.9374 594.941 38.2536 584.827 40.2325C588.16 53.5448 594.627 91.4806 593.827 136.725C601.877 139.695 609.6 142.174 615.827 143.28Z" fill="white" stroke="black"/>
<path d="M563.965 386.944C566.205 385.385 521.066 328.541 523.679 288.645C529.663 285.657 538.952 282.823 548.965 280.385C551.512 293.87 561.526 331.027 581.198 371.779C575.131 377.847 569.156 383.332 563.965 386.944Z" fill="white" stroke="black"/>
<path d="M248.64 362.216C243.808 349.31 240.244 341.282 222.341 326.019C216.863 321.349 211.857 316.707 207.444 312.21C219.849 303.601 247.261 283.806 253.806 281.09C259.302 295.061 249.164 317.139 254.309 327.45C259.455 337.76 263.712 343.522 270.285 354.054C276.857 364.585 253.473 375.123 248.64 362.216Z" fill="white" stroke="black"/>
<path d="M605.706 245.669C611.743 233.28 616.053 225.628 635.325 212.135C641.222 208.006 646.647 203.861 651.467 199.803C639.936 190.054 614.528 167.745 608.271 164.419C601.473 177.805 609.467 200.747 603.366 210.522C597.264 220.297 592.478 225.628 584.935 235.488C577.392 245.347 599.669 258.059 605.706 245.669Z" fill="white" stroke="black"/>
<path d="M194.856 148.251C185.016 142.889 181.95 134.938 181.499 128.152C181.047 121.367 183.308 102.335 200.7 94.8112C218.091 87.2874 240.34 100.519 240.34 100.519C238.832 111 233.884 143.064 229.899 154.958C214.514 154.423 202.064 152.18 194.856 148.251Z" fill="white" stroke="black"/>
<path d="M388.819 273.505C393.382 263.271 390.993 255.092 387.232 249.425C383.471 243.759 370.122 230.008 351.734 234.587C333.346 239.166 323.699 263.186 323.699 263.186C331.259 270.6 354.656 293.076 365.043 300.108C376.944 290.344 385.476 281.003 388.819 273.505Z" fill="white" stroke="black"/>
<rect x="1" y="1" width="839" height="455" stroke="black" stroke-width="2"/>
</g>
</svg>
