<svg width="457" height="457" viewBox="0 0 457 457" fill="none" xmlns="http://www.w3.org/2000/svg">
<mask id="mask0_149_369" style="mask-type:alpha" maskUnits="userSpaceOnUse" x="0" y="0" width="457" height="457">
<rect x="1" y="1" width="455" height="455" fill="#FFE7E7" stroke="black" stroke-width="2"/>
</mask>
<g mask="url(#mask0_149_369)">
<rect width="457" height="457" fill="#FFE7E7"/>
<path d="M187.177 90.4791L595.864 215.838C621.696 223.761 625.733 258.637 602.394 272.252L350.034 419.466C342.558 423.827 333.598 424.864 325.323 422.326L-83.3642 296.967C-109.196 289.043 -113.232 254.167 -89.8937 240.553L162.466 93.3393C169.942 88.9779 178.902 87.9408 187.177 90.4791Z" fill="#D9D9D9" stroke="black" stroke-width="2"/>
<circle cx="235" cy="129" r="20" fill="black"/>
<circle cx="278" cy="136" r="20" fill="black"/>
<circle cx="320" cy="145" r="20" fill="black"/>
<circle cx="363" cy="153" r="20" fill="black"/>
<circle cx="405" cy="162" r="20" fill="black"/>
<path d="M239.062 117.234V140H234.172V122.797L228.891 124.406V120.625L238.578 117.234H239.062Z" fill="white"/>
<path d="M286.469 143.203V147H270.75V143.781L278.094 136C278.781 135.208 279.328 134.51 279.734 133.906C280.151 133.302 280.453 132.755 280.641 132.266C280.828 131.766 280.922 131.307 280.922 130.891C280.922 130.214 280.812 129.641 280.594 129.172C280.385 128.703 280.078 128.344 279.672 128.094C279.266 127.844 278.771 127.719 278.188 127.719C277.562 127.719 277.026 127.88 276.578 128.203C276.13 128.526 275.786 128.974 275.547 129.547C275.307 130.109 275.188 130.75 275.188 131.469H270.281C270.281 130.083 270.615 128.823 271.281 127.688C271.948 126.542 272.88 125.63 274.078 124.953C275.276 124.266 276.677 123.922 278.281 123.922C279.927 123.922 281.307 124.182 282.422 124.703C283.536 125.224 284.38 125.969 284.953 126.938C285.526 127.906 285.812 129.073 285.812 130.438C285.812 131.208 285.688 131.953 285.438 132.672C285.198 133.391 284.849 134.104 284.391 134.812C283.932 135.521 283.38 136.245 282.734 136.984C282.089 137.714 281.359 138.484 280.547 139.297L277.109 143.203H286.469Z" fill="white"/>
<path d="M317.453 142.547H319.938C320.646 142.547 321.229 142.422 321.688 142.172C322.156 141.922 322.5 141.568 322.719 141.109C322.948 140.651 323.062 140.115 323.062 139.5C323.062 138.969 322.958 138.495 322.75 138.078C322.542 137.661 322.224 137.333 321.797 137.094C321.38 136.844 320.839 136.719 320.172 136.719C319.693 136.719 319.234 136.818 318.797 137.016C318.37 137.203 318.021 137.479 317.75 137.844C317.479 138.198 317.344 138.625 317.344 139.125H312.453C312.453 137.854 312.797 136.755 313.484 135.828C314.182 134.901 315.104 134.188 316.25 133.688C317.406 133.177 318.667 132.922 320.031 132.922C321.604 132.922 322.984 133.172 324.172 133.672C325.37 134.161 326.297 134.891 326.953 135.859C327.62 136.818 327.953 138.005 327.953 139.422C327.953 140.161 327.776 140.875 327.422 141.562C327.078 142.24 326.583 142.844 325.938 143.375C325.302 143.896 324.542 144.312 323.656 144.625C322.781 144.927 321.807 145.078 320.734 145.078H317.453V142.547ZM317.453 146.219V143.734H320.734C321.922 143.734 322.984 143.87 323.922 144.141C324.859 144.411 325.656 144.802 326.312 145.312C326.969 145.823 327.469 146.443 327.812 147.172C328.156 147.901 328.328 148.714 328.328 149.609C328.328 150.672 328.12 151.62 327.703 152.453C327.286 153.286 326.703 153.99 325.953 154.562C325.203 155.135 324.323 155.573 323.312 155.875C322.302 156.167 321.208 156.312 320.031 156.312C319.083 156.312 318.141 156.182 317.203 155.922C316.266 155.661 315.417 155.266 314.656 154.734C313.896 154.193 313.286 153.51 312.828 152.688C312.37 151.854 312.141 150.865 312.141 149.719H317.031C317.031 150.25 317.167 150.729 317.438 151.156C317.719 151.573 318.099 151.906 318.578 152.156C319.068 152.396 319.599 152.516 320.172 152.516C320.859 152.516 321.443 152.391 321.922 152.141C322.411 151.88 322.781 151.526 323.031 151.078C323.292 150.63 323.422 150.115 323.422 149.531C323.422 148.74 323.281 148.104 323 147.625C322.729 147.135 322.333 146.781 321.812 146.562C321.292 146.333 320.667 146.219 319.938 146.219H317.453Z" fill="white"/>
<path d="M371.812 155.312V159.094H355.438L355.172 156.125L364.484 141.25H368.344L364.156 148.188L359.922 155.312H371.812ZM369.375 141.25V164H364.5V141.25H369.375Z" fill="white"/>
<path d="M402.109 162.75L398.234 161.828L399.562 150.25H412.594V154.109H403.562L403.016 158.906C403.297 158.74 403.74 158.557 404.344 158.359C404.948 158.151 405.625 158.047 406.375 158.047C407.49 158.047 408.479 158.219 409.344 158.562C410.208 158.906 410.938 159.406 411.531 160.062C412.135 160.708 412.589 161.505 412.891 162.453C413.203 163.401 413.359 164.479 413.359 165.688C413.359 166.688 413.203 167.646 412.891 168.562C412.578 169.469 412.099 170.281 411.453 171C410.818 171.708 410.01 172.271 409.031 172.688C408.052 173.104 406.901 173.312 405.578 173.312C404.578 173.312 403.609 173.161 402.672 172.859C401.734 172.557 400.891 172.12 400.141 171.547C399.401 170.964 398.812 170.255 398.375 169.422C397.948 168.589 397.729 167.651 397.719 166.609H402.594C402.646 167.214 402.797 167.734 403.047 168.172C403.297 168.599 403.635 168.932 404.062 169.172C404.49 169.401 404.984 169.516 405.547 169.516C406.089 169.516 406.547 169.411 406.922 169.203C407.297 168.984 407.594 168.688 407.812 168.312C408.042 167.938 408.208 167.5 408.312 167C408.417 166.5 408.469 165.964 408.469 165.391C408.469 164.797 408.401 164.266 408.266 163.797C408.13 163.318 407.922 162.911 407.641 162.578C407.359 162.234 407 161.974 406.562 161.797C406.135 161.609 405.62 161.516 405.016 161.516C404.224 161.516 403.604 161.646 403.156 161.906C402.708 162.167 402.359 162.448 402.109 162.75Z" fill="white"/>
<path d="M180.038 265.654C138.773 254.151 132.917 214.223 144.168 196.169C140.837 195.228 137.003 194.408 132.475 193.96C111.553 191.89 94.0364 187.289 101.387 171.694C107.267 159.217 123.937 151.261 131.537 148.842C126.018 149.714 112.771 152.042 103.936 154.38C95.1013 156.719 89.1499 150.687 87.2785 147.379C93.4866 145.261 110.303 140.661 127.902 139.21C149.901 137.395 164.944 141.632 159.733 152.994C155.565 162.084 136.577 171.822 127.604 175.554C130.407 175.967 139.302 175.053 152.456 168.095C160.57 163.803 168.285 165.709 174.04 169.098C197.96 164.534 285.667 186.7 311.125 202.578C331.492 215.281 393.697 256.179 393.697 256.179C389.386 255.713 374.563 265.996 330.143 269.058C285.723 272.119 226.157 278.51 180.038 265.654Z" fill="white"/>
<path d="M174.04 169.098C197.96 164.534 285.667 186.7 311.125 202.578C331.492 215.281 393.697 256.179 393.697 256.179C389.386 255.713 374.563 265.996 330.143 269.058C285.723 272.119 226.157 278.51 180.038 265.654C138.773 254.151 132.917 214.223 144.168 196.169M182.121 176.001C177.713 170.467 165.61 161.137 152.456 168.095C139.302 175.053 130.407 175.967 127.604 175.554C136.577 171.822 155.565 162.084 159.733 152.994C164.944 141.632 149.901 137.395 127.902 139.21C110.303 140.661 93.4866 145.261 87.2785 147.379C89.1499 150.687 95.1013 156.719 103.936 154.38C112.771 152.042 126.018 149.714 131.537 148.842C123.937 151.261 107.267 159.217 101.387 171.694C94.0364 187.289 111.553 191.89 132.475 193.96C153.396 196.03 159.505 206.027 169.575 199.423" stroke="black" stroke-width="2"/>
<line x1="262.761" y1="144.394" x2="59.3939" y2="288.239" stroke="black" stroke-width="2" stroke-linecap="round" stroke-dasharray="13 13"/>
<line x1="297.779" y1="153.397" x2="98.3968" y2="298.221" stroke="black" stroke-width="2" stroke-linecap="round" stroke-dasharray="13 13"/>
<line x1="371.809" y1="171.401" x2="177.401" y2="319.191" stroke="black" stroke-width="2" stroke-linecap="round" stroke-dasharray="13 13"/>
<line x1="333.805" y1="161.401" x2="139.401" y2="308.195" stroke="black" stroke-width="2" stroke-linecap="round" stroke-dasharray="13 13"/>
<line x1="412.805" y1="182.401" x2="218.401" y2="329.195" stroke="black" stroke-width="2" stroke-linecap="round" stroke-dasharray="13 13"/>
<path d="M439.268 204.154L338.794 391.047L337.072 351.374L262.145 480.174L258.24 452.956L335.527 324.117L441.458 137L439.268 204.154Z" fill="white"/>
<path d="M335.527 324.117L441.458 137L439.268 204.154L338.794 391.047L337.072 351.374M335.527 324.117L258.24 452.956L262.145 480.174L337.072 351.374M335.527 324.117L337.072 351.374" stroke="black" stroke-width="2"/>
<path d="M308.256 353.711C308.256 353.711 328.033 351.375 334.921 351.599C341.808 351.824 355.39 358.23 355.196 364.187C355.001 370.144 344.21 368.799 344.21 368.799C344.21 368.799 351.373 374.001 348.027 381.844C344.682 389.686 336.707 387.439 336.707 387.439C336.707 387.439 339.206 401.435 333.205 404.222C330.226 405.605 326.786 406.238 324.077 406.525C325.935 407.015 327.702 408.444 328.026 412.004C328.751 419.979 314.781 425.487 314.781 425.487L301.005 425.038L210.963 583.725L142 581.476L236.108 451.745C236.108 451.745 260.748 421.736 264.954 412.928C269.161 404.12 273.948 379.428 278.219 368.634C282.49 357.841 296.74 344.39 303.757 340.643C310.775 336.897 327.665 332.448 321.469 341.221C315.273 349.993 308.256 353.711 308.256 353.711Z" fill="white"/>
<path d="M308.256 353.711C308.256 353.711 328.033 351.375 334.921 351.599C341.808 351.824 355.39 358.23 355.196 364.187C355.001 370.144 344.21 368.799 344.21 368.799M308.256 353.711C308.256 353.711 315.273 349.993 321.469 341.221C327.665 332.448 310.775 336.897 303.757 340.643C296.74 344.39 282.49 357.841 278.219 368.634C273.948 379.428 269.161 404.12 264.954 412.928C260.748 421.736 236.108 451.745 236.108 451.745L142 581.476L210.963 583.725L301.005 425.038L314.781 425.487C314.781 425.487 328.751 419.979 328.026 412.004C327.301 404.029 319.332 406.751 319.332 406.751C319.332 406.751 327.204 407.008 333.205 404.222C339.206 401.435 336.707 387.439 336.707 387.439M308.256 353.711L303.175 358.515M334.37 368.478L344.21 368.799M344.21 368.799C344.21 368.799 351.373 374.001 348.027 381.844C344.682 389.686 336.707 387.439 336.707 387.439M328.835 387.182L336.707 387.439" stroke="black" stroke-width="2"/>
<rect x="1" y="1" width="455" height="455" stroke="black" stroke-width="2"/>
<path d="M127.185 156C122.685 166.5 84.5 172.068 77 175.068C69.5 178.068 50 180.068 42 185.068C34 190.068 -13 239.568 -13 239.568L-7.5 183.568C-7.5 183.568 14.5 174.068 24.5 167.568C34.5 161.068 58.5 144.068 73 134.568C87.5 125.068 130 119.069 137 121.569C144 124.069 148 133.491 146 138.991H132.5H96C94.5045 139.43 93.2986 139.802 92.5 140.068C86.5 142.069 80 156 80 156C80 156 131.685 145.5 127.185 156Z" fill="white"/>
<path d="M132.5 138.991C131.171 136.005 130.291 134.255 129.5 133.068C127.766 130.468 105.741 136.134 96 138.991M132.5 138.991H96M132.5 138.991H146C148 133.491 144 124.069 137 121.569C130 119.069 87.5 125.068 73 134.568C58.5 144.068 34.5 161.068 24.5 167.568C14.5 174.068 -7.5 183.568 -7.5 183.568L-13 239.568C-13 239.568 34 190.068 42 185.068C50 180.068 69.5 178.068 77 175.068C84.5 172.068 122.685 166.5 127.185 156C131.685 145.5 80 156 80 156C80 156 86.5 142.069 92.5 140.068C93.2986 139.802 94.5045 139.43 96 138.991" stroke="black" stroke-width="2"/>
</g>
</svg>
