<svg width="457" height="457" viewBox="0 0 457 457" fill="none" xmlns="http://www.w3.org/2000/svg">
<mask id="mask0_149_397" style="mask-type:alpha" maskUnits="userSpaceOnUse" x="0" y="0" width="457" height="457">
<rect x="1" y="1" width="455" height="455" fill="#FFE7E7" stroke="black" stroke-width="2"/>
</mask>
<g mask="url(#mask0_149_397)">
<rect width="457" height="457" fill="#FFE7E7"/>
<rect x="-62.6763" y="179.014" width="512.553" height="342.655" rx="31" transform="rotate(-24.3942 -62.6763 179.014)" fill="#D9D9D9" stroke="black" stroke-width="2"/>
<path d="M252.059 263.931C259.972 224.718 246.554 217.758 266.751 188.662C267.694 175.458 269.748 163.127 275.16 149.39C280.572 135.653 286.648 135.936 313.403 153.391C340.157 170.845 327.207 201.595 325.189 218.453C323.171 235.31 317.696 227.403 309.456 225.868C309.069 225.795 308.731 225.688 308.438 225.548C308.359 242.185 332.62 241.049 310.571 247.891C284.354 256.026 275.73 289.307 270.66 297.464C265.59 305.622 233.519 306.928 213.811 293.669C194.102 280.409 178.767 261.592 178.767 261.592C178.767 261.592 179.208 282.185 176.93 301.088C174.652 319.99 158.992 336.46 158.992 336.46L160.893 263.723C160.893 263.723 163.996 230.623 174.267 223.86C184.539 217.096 203.908 219.066 219.438 231.062C234.967 243.058 243.273 249.369 252.059 263.931Z" fill="white"/>
<path d="M266.751 188.662C246.554 217.758 259.972 224.718 252.059 263.931C243.273 249.369 234.967 243.058 219.438 231.062C203.908 219.066 184.539 217.096 174.267 223.86C163.996 230.623 160.893 263.723 160.893 263.723L158.992 336.46C158.992 336.46 174.652 319.99 176.93 301.088C179.208 282.185 178.767 261.592 178.767 261.592C178.767 261.592 194.102 280.409 213.811 293.669C233.519 306.928 265.59 305.622 270.66 297.464C275.73 289.307 284.354 256.026 310.571 247.891C336.789 239.756 297.532 242.899 311.57 214.034C315.209 206.55 301.216 224.333 309.456 225.868C317.696 227.403 323.171 235.31 325.189 218.453C327.207 201.595 340.157 170.845 313.403 153.391C286.648 135.936 280.572 135.653 275.16 149.39C269.748 163.127 267.694 175.458 266.751 188.662Z" stroke="black" stroke-width="2"/>
<line x1="209.065" y1="129.853" x2="286.492" y2="360.349" stroke="black" stroke-width="2" stroke-linecap="round" stroke-dasharray="13 13"/>
<path d="M174.584 265.259C174.129 283.02 157.591 308.951 138.864 325.019C120.138 341.087 108.561 340.177 108.561 340.177L106.999 520.324L58.7063 522.764C58.7063 522.764 70.4204 351.458 67.6836 339.13C64.9469 326.802 60.2386 319.94 50.9475 301.316C41.6563 282.691 38.5011 215.194 42.4128 205.488C46.3246 195.782 65.3739 262.461 65.3739 262.461C65.3739 262.461 63.7842 181.52 71.7941 178.661C79.8039 175.802 85.0387 257.449 85.0387 257.449C85.0387 257.449 98.0149 156.043 106.994 163.015C115.973 169.987 104.562 257.949 104.562 257.949C104.562 257.949 134.088 177.806 145.696 177.49C157.304 177.174 131.703 270.902 131.421 281.926C142.684 295.085 175.039 247.497 174.584 265.259Z" fill="white" stroke="black" stroke-width="2"/>
<path d="M338.774 328.575L262.421 133.606L322.633 88.2997L406.186 295.322L451.442 409.541L426.109 421.385L379.705 308.718L338.774 328.575Z" fill="white"/>
<path d="M406.186 295.322L322.633 88.2997L262.421 133.606L338.774 328.575L379.705 308.718M406.186 295.322L451.442 409.541L426.109 421.385L379.705 308.718M406.186 295.322L379.705 308.718" stroke="black" stroke-width="2"/>
<path d="M375.818 323.302C375.995 316.375 387.148 310.422 398.211 307.933C404.312 306.56 409.126 306.419 413.364 306.831C416.812 307.166 419.879 307.866 422.945 308.567C429.78 310.128 443.587 334.742 453.537 348.86C463.488 362.977 469.915 380.471 469.915 380.471L518.839 456.584L516.87 533.473L441.578 413.234L450.393 409.078L434.651 367.986C434.651 367.986 411.579 355.358 412.723 331.872C412.467 329.786 375.641 330.229 375.818 323.302Z" fill="white"/>
<path d="M366.283 346.625C364.417 338.952 388.55 330.345 388.55 330.345L391.121 337.342C391.121 337.342 412.386 345.033 412.173 353.345C411.969 361.311 391.202 358.565 389.473 358.322C400.241 359.87 421.497 365.077 421.277 373.68C421.659 378.889 409.789 379.104 403.834 378.886C412.493 379.644 425.919 382.65 429.096 390.516C430.139 393.477 428.091 394.738 424.854 395.093C427.927 396.108 430.483 397.548 431.613 399.591C435.555 406.721 431.453 405.825 431.453 405.825C431.453 405.825 396.326 408.391 392.381 401.359C388.436 394.326 406.353 392.674 406.353 392.674C406.353 392.674 383.028 390.722 383.17 385.18C383.312 379.639 399.15 378.658 399.15 378.658C399.15 378.658 376.548 375.307 374.665 368.327C372.781 361.347 389.359 358.306 389.359 358.306C389.359 358.306 368.149 354.297 366.283 346.625Z" fill="white"/>
<path d="M434.651 367.986C434.651 367.986 411.579 355.358 412.723 331.872C412.467 329.786 375.641 330.229 375.818 323.302C375.995 316.375 387.148 310.422 398.211 307.933C404.312 306.56 409.126 306.419 413.364 306.831C416.812 307.166 419.879 307.866 422.945 308.567C429.78 310.128 443.587 334.742 453.537 348.86C463.488 362.977 469.915 380.471 469.915 380.471L518.839 456.584L516.87 533.473L441.578 413.234L450.393 409.078L434.651 367.986ZM434.651 367.986L446.654 370.171M389.359 358.306C389.359 358.306 368.149 354.297 366.283 346.625C364.417 338.952 388.55 330.345 388.55 330.345L391.121 337.342C391.121 337.342 412.386 345.033 412.173 353.345C411.96 361.658 389.359 358.306 389.359 358.306ZM389.359 358.306C389.359 358.306 372.781 361.347 374.665 368.327C376.548 375.307 399.15 378.658 399.15 378.658M389.359 358.306C400.09 359.833 421.498 365.046 421.277 373.68C421.787 380.624 400.524 378.693 400.524 378.693M399.15 378.658C399.15 378.658 383.312 379.639 383.17 385.18C383.028 390.722 406.353 392.674 406.353 392.674M399.15 378.658L400.524 378.693M400.524 378.693C408.539 378.899 425.475 381.551 429.096 390.516C432.3 399.609 406.353 392.674 406.353 392.674M406.353 392.674C406.353 392.674 388.436 394.326 392.381 401.359C396.326 408.391 431.453 405.825 431.453 405.825C431.453 405.825 435.555 406.721 431.613 399.591C427.671 392.461 406.353 392.674 406.353 392.674Z" stroke="black" stroke-width="2"/>
<rect x="1" y="1" width="455" height="455" stroke="black" stroke-width="2"/>
</g>
</svg>
