<svg width="457" height="457" viewBox="0 0 457 457" fill="none" xmlns="http://www.w3.org/2000/svg">
<mask id="mask0_149_351" style="mask-type:alpha" maskUnits="userSpaceOnUse" x="0" y="0" width="457" height="457">
<rect x="1" y="1" width="455" height="455" fill="#FFE7E7" stroke="black" stroke-width="2"/>
</mask>
<g mask="url(#mask0_149_351)">
<rect width="457" height="457" fill="#FFE7E7"/>
<rect x="-34.3339" y="58.2917" width="512.553" height="342.655" rx="31" transform="rotate(-0.130475 -34.3339 58.2917)" fill="#D9D9D9" stroke="black" stroke-width="2"/>
<circle cx="87" cy="132" r="20" fill="black"/>
<circle cx="166" cy="84" r="20" fill="black"/>
<circle cx="287" cy="110" r="20" fill="black"/>
<circle cx="334" cy="147" r="20" fill="black"/>
<path d="M91.0625 120.234V143H86.1719V125.797L80.8906 127.406V123.625L90.5781 120.234H91.0625Z" fill="white"/>
<path d="M174.469 91.2031V95H158.75V91.7812L166.094 84C166.781 83.2083 167.328 82.5104 167.734 81.9062C168.151 81.3021 168.453 80.7552 168.641 80.2656C168.828 79.7656 168.922 79.3073 168.922 78.8906C168.922 78.2135 168.812 77.6406 168.594 77.1719C168.385 76.7031 168.078 76.3438 167.672 76.0938C167.266 75.8438 166.771 75.7188 166.188 75.7188C165.562 75.7188 165.026 75.8802 164.578 76.2031C164.13 76.526 163.786 76.974 163.547 77.5469C163.307 78.1094 163.188 78.75 163.188 79.4688H158.281C158.281 78.0833 158.615 76.8229 159.281 75.6875C159.948 74.5417 160.88 73.6302 162.078 72.9531C163.276 72.2656 164.677 71.9219 166.281 71.9219C167.927 71.9219 169.307 72.1823 170.422 72.7031C171.536 73.224 172.38 73.9688 172.953 74.9375C173.526 75.9062 173.812 77.0729 173.812 78.4375C173.812 79.2083 173.688 79.9531 173.438 80.6719C173.198 81.3906 172.849 82.1042 172.391 82.8125C171.932 83.5208 171.38 84.2448 170.734 84.9844C170.089 85.7135 169.359 86.4844 168.547 87.2969L165.109 91.2031H174.469Z" fill="white"/>
<path d="M284.453 107.547H286.938C287.646 107.547 288.229 107.422 288.688 107.172C289.156 106.922 289.5 106.568 289.719 106.109C289.948 105.651 290.062 105.115 290.062 104.5C290.062 103.969 289.958 103.495 289.75 103.078C289.542 102.661 289.224 102.333 288.797 102.094C288.38 101.844 287.839 101.719 287.172 101.719C286.693 101.719 286.234 101.818 285.797 102.016C285.37 102.203 285.021 102.479 284.75 102.844C284.479 103.198 284.344 103.625 284.344 104.125H279.453C279.453 102.854 279.797 101.755 280.484 100.828C281.182 99.901 282.104 99.1875 283.25 98.6875C284.406 98.1771 285.667 97.9219 287.031 97.9219C288.604 97.9219 289.984 98.1719 291.172 98.6719C292.37 99.1615 293.297 99.8906 293.953 100.859C294.62 101.818 294.953 103.005 294.953 104.422C294.953 105.161 294.776 105.875 294.422 106.562C294.078 107.24 293.583 107.844 292.938 108.375C292.302 108.896 291.542 109.312 290.656 109.625C289.781 109.927 288.807 110.078 287.734 110.078H284.453V107.547ZM284.453 111.219V108.734H287.734C288.922 108.734 289.984 108.87 290.922 109.141C291.859 109.411 292.656 109.802 293.312 110.312C293.969 110.823 294.469 111.443 294.812 112.172C295.156 112.901 295.328 113.714 295.328 114.609C295.328 115.672 295.12 116.62 294.703 117.453C294.286 118.286 293.703 118.99 292.953 119.562C292.203 120.135 291.323 120.573 290.312 120.875C289.302 121.167 288.208 121.312 287.031 121.312C286.083 121.312 285.141 121.182 284.203 120.922C283.266 120.661 282.417 120.266 281.656 119.734C280.896 119.193 280.286 118.51 279.828 117.688C279.37 116.854 279.141 115.865 279.141 114.719H284.031C284.031 115.25 284.167 115.729 284.438 116.156C284.719 116.573 285.099 116.906 285.578 117.156C286.068 117.396 286.599 117.516 287.172 117.516C287.859 117.516 288.443 117.391 288.922 117.141C289.411 116.88 289.781 116.526 290.031 116.078C290.292 115.63 290.422 115.115 290.422 114.531C290.422 113.74 290.281 113.104 290 112.625C289.729 112.135 289.333 111.781 288.812 111.562C288.292 111.333 287.667 111.219 286.938 111.219H284.453Z" fill="white"/>
<path d="M342.812 149.312V153.094H326.438L326.172 150.125L335.484 135.25H339.344L335.156 142.188L330.922 149.312H342.812ZM340.375 135.25V158H335.5V135.25H340.375Z" fill="white"/>
<path d="M112.896 254.654C129.562 244.066 147.613 235.407 163.721 205.8C170.322 193.667 175.392 182.64 180.458 173.249C187.753 159.724 195.037 149.593 206.867 144.437C216.199 140.37 226.327 141.851 237.52 145.265C248.712 148.679 264.377 153.972 280.677 159.192C280.677 159.192 341.869 196.857 360.378 216.113L264.733 310.426C262.756 308.369 258.749 301.543 256.746 298.545C245.504 281.712 234.859 255.459 228.153 237.927C222.593 241.59 215.498 243.753 207.967 245.299C191.171 248.747 172.208 249.121 163.277 256.204C150.343 266.464 143.556 270.26 130.733 282.585C117.911 294.911 96.2294 265.241 112.896 254.654Z" fill="white" stroke="black" stroke-width="2"/>
<line x1="195.337" y1="71.7617" x2="259.726" y2="364.309" stroke="black" stroke-width="2" stroke-linecap="round" stroke-dasharray="13 13"/>
<line x1="115.711" y1="95.4829" x2="233.233" y2="339.145" stroke="black" stroke-width="2" stroke-linecap="round" stroke-dasharray="13 13"/>
<line x1="366.007" y1="147.414" x2="163.414" y2="351.993" stroke="black" stroke-width="2" stroke-linecap="round" stroke-dasharray="13 13"/>
<line x1="330.195" y1="101.401" x2="152.401" y2="336.805" stroke="black" stroke-width="2" stroke-linecap="round" stroke-dasharray="13 13"/>
<path d="M139.471 300.509C131.69 318.855 103.77 339.108 77.6208 348.171C51.472 357.234 39.7671 351.524 39.7671 351.524L-35.9587 538.847L-87.3516 521.53C-87.3516 521.53 -4.66899 347.606 -2.45401 333.618C-0.239029 319.629 -2.32923 310.533 -4.36323 287.278C-6.39723 264.024 18.0731 192.299 26.1467 183.781C34.2203 175.262 26.6709 252.671 26.6709 252.671C26.6709 252.671 58.3039 167.563 67.8375 167.874C77.3711 168.185 49.2508 255.529 49.2508 255.529C49.2508 255.529 104.5 155.059 111.001 166.027C117.502 176.994 69.4162 264.081 69.4162 264.081C69.4162 264.081 133.188 192.603 145.429 197.049C157.671 201.494 92.4078 288.76 87.5786 300.147C93.9178 318.51 147.251 282.163 139.471 300.509Z" fill="white" stroke="black" stroke-width="2"/>
<path d="M344.515 320.575L365.109 86.6418L448.195 71.1789L428.818 320.811L417.283 458.12L385.927 457.375L395.537 321.053L344.515 320.575Z" fill="white"/>
<path d="M428.818 320.811L448.195 71.1789L365.109 86.6418L344.515 320.575L395.537 321.053M428.818 320.811L417.283 458.12L385.927 457.375L395.537 321.053M428.818 320.811L395.537 321.053" stroke="black" stroke-width="2"/>
<path d="M384.587 377.921C384.587 377.921 373.898 366.701 373.106 358.156C373.065 358.104 373.024 358.051 372.984 357.997C368.263 351.649 382.673 340.02 387.922 339.367C393.586 338.662 405.435 340.251 411.847 341.819C418.659 343.484 423.427 347.094 427.479 349.622C427.479 349.622 439.126 367.163 439.585 384.685C440.044 402.208 427.402 437.553 430.936 452.572L461.506 539.002L421.162 615.249L392.202 456.494L398.366 445.852C398.366 445.852 403.854 436.303 396.719 412.423C394.842 406.143 394.371 399.954 394.552 394.116C394.383 395.014 394.129 395.94 393.8 396.904C391.383 403.985 385.931 402.179 385.931 402.179C393.879 406.385 395.59 412.442 393.472 416.601C391.355 420.759 384.203 419.033 384.203 419.033C384.203 419.033 391.641 421.419 392.043 430.547C392.445 439.675 383.833 433.651 383.833 433.651C383.833 433.651 372.656 429.653 372.203 420.621C371.749 411.589 384.203 419.033 384.203 419.033C384.203 419.033 369.635 406.303 372.542 400.807C375.45 395.312 384.917 401.067 384.917 401.067C384.917 401.067 370.266 387.949 371.856 379.999C373.447 372.048 384.587 377.921 384.587 377.921Z" fill="white"/>
<path d="M384.587 377.921C384.587 377.921 371.302 363.976 373.256 355.339C375.21 346.701 389.576 355.614 389.576 355.614L392.72 355.502C392.72 355.502 400.506 365.789 396.144 374.032C391.782 382.275 384.587 377.921 384.587 377.921ZM384.587 377.921C384.587 377.921 373.447 372.048 371.856 379.999C370.266 387.949 384.917 401.067 384.917 401.067M384.587 377.921C394.605 384.81 396.217 389.824 393.8 396.904C391.383 403.985 385.931 402.179 385.931 402.179M384.917 401.067C384.917 401.067 375.45 395.312 372.542 400.807C369.635 406.303 384.203 419.033 384.203 419.033M384.917 401.067L385.931 402.179M385.931 402.179C393.879 406.385 395.59 412.442 393.472 416.601C391.355 420.759 384.203 419.033 384.203 419.033M384.203 419.033C384.203 419.033 371.749 411.589 372.203 420.621C372.656 429.653 383.833 433.651 383.833 433.651C383.833 433.651 392.445 439.675 392.043 430.547C391.641 421.419 384.203 419.033 384.203 419.033ZM411.847 341.819C418.659 343.484 423.427 347.094 427.479 349.622C427.479 349.622 439.126 367.163 439.585 384.685C440.044 402.208 427.402 437.553 430.936 452.572L461.506 539.002L421.162 615.249L392.202 456.494L398.366 445.852C398.366 445.852 403.854 436.303 396.719 412.423C389.583 388.544 402.767 365.992 394.864 359.018C389.799 354.548 377.705 364.344 372.984 357.997C368.263 351.649 382.673 340.02 387.922 339.367C393.586 338.662 405.435 340.251 411.847 341.819Z" stroke="black" stroke-width="2"/>
<rect x="1" y="1" width="455" height="455" stroke="black" stroke-width="2"/>
</g>
</svg>
