<svg width="330" height="360" viewBox="0 0 330 360" fill="none" xmlns="http://www.w3.org/2000/svg">
<rect x="82.2807" y="1" width="257.255" height="299.822" transform="rotate(15.9282 82.2807 1)" fill="white"/>
<path d="M239.092 70.7414C242.343 76.3393 237.901 84.1013 235.273 87.2826C251.864 68.9797 260.932 67.4997 271.473 73.3228C282.014 79.1458 274.574 99.232 269.902 110.676C265.23 122.12 262.444 139.77 259.531 136.078C256.619 132.385 254.045 123.2 258.348 112.66C265.976 99.817 259.463 97.158 259.463 97.158C259.463 97.158 242.581 112.764 228.948 112.655C221.992 112.6 218.995 106.964 218.782 102.014C218.715 98.6465 220.594 92.4153 215.649 87.9912M282.399 80.0629C280.647 64.1501 245.65 33.9941 215.644 61.1687C185.638 88.3434 187.512 152.774 189.743 182.056C191.974 211.337 241.848 166.093 262.137 137.141C282.425 108.189 284.152 95.9756 282.399 80.0629Z" stroke="black"/>
<path d="M145.485 42.6739C139.535 45.2222 138.462 54.1008 138.669 58.2216C136.293 33.6328 129.904 27.0299 117.972 25.405C106.04 23.7801 100.011 44.3341 96.9234 56.3031C93.8359 68.272 85.5287 84.0924 90.0701 82.8705C94.6115 81.6486 102.162 75.818 105.005 64.7952C106.557 49.9381 113.369 51.6954 113.369 51.6954C113.369 51.6954 118.847 76.4208 129.847 84.4759C135.459 88.5856 141.229 85.856 144.357 82.0124C146.421 79.3514 148.636 73.2318 155.244 72.6365M105.183 24.2854C116.092 12.569 162.172 9.28351 170.009 49.0001C177.846 88.7167 137.863 139.275 118.585 161.428C99.3073 183.581 86.3266 117.506 87.3452 82.1676C88.3638 46.8294 94.2734 36.0018 105.183 24.2854Z" stroke="black"/>
<path d="M78.8666 232.279C74.45 244.744 56.3748 255.48 53.8394 265.308C51.304 275.137 49.3847 279.516 47.6704 290.316C45.9562 301.117 24.3188 294.614 28.5623 283.239C32.8057 271.865 38.4437 260.923 35.357 240.431C32.2704 219.939 27.1592 206.058 33.7461 194.338C36.8128 188.882 42.3279 185.85 49.0819 183.372M78.8666 232.279C78.8666 232.279 85.3823 225.023 80.7541 220.387M78.8666 232.279C88.6589 238.386 108.365 252.466 120.121 256.548C117.826 255.832 144.413 205.957 135.603 172.528C119.384 169.954 89.5253 169.752 77.1752 173.231C64.8251 176.711 56.8349 180.527 49.0819 183.372M73.6722 185.129C67.8157 177.255 49.0819 183.372 49.0819 183.372" stroke="black"/>
<path d="M183.608 266.158C179.587 278.756 187.49 298.237 183.565 307.598C179.641 316.959 178.521 321.608 173.355 331.246C168.189 340.884 189.354 348.79 192.853 337.165C196.352 325.541 198.479 313.416 213.33 298.963C228.181 284.509 240.646 276.545 242.487 263.228C243.345 257.028 240.786 251.278 236.905 245.22M183.608 266.158C183.608 266.158 182.807 256.439 189.296 255.546M183.608 266.158C172.116 265.1 147.907 264.396 136.076 260.537C138.336 261.355 147.323 205.556 174.557 184.26C189.03 192.019 214.319 212.208 221.016 220.6C227.713 228.993 232.452 238.265 236.905 245.22M216.259 231.749C225.685 229.019 236.905 245.22 236.905 245.22" stroke="black"/>
</svg>
