<svg width="841" height="319" viewBox="0 0 841 319" fill="none" xmlns="http://www.w3.org/2000/svg">
<mask id="mask0_87_14" style="mask-type:alpha" maskUnits="userSpaceOnUse" x="0" y="0" width="841" height="319">
<rect x="1" y="1" width="839" height="317" fill="#FFE7E7" stroke="black" stroke-width="2"/>
</mask>
<g mask="url(#mask0_87_14)">
<rect width="841" height="319" fill="#FFE7E7"/>
<rect x="310.014" y="343.066" width="329.495" height="489.297" rx="7" transform="rotate(-94.5151 310.014 343.066)" fill="#D9D9D9" stroke="black" stroke-width="2"/>
<path d="M505.989 195.89C546.861 198.571 549.578 245.235 539.246 257.709C528.914 270.184 518.821 277.527 483.497 283.16C448.173 288.794 380.182 284.392 399.894 262.159C419.606 239.926 465.116 193.21 505.989 195.89Z" fill="white"/>
<path d="M515.536 219.671C513.756 225.974 504.988 228.21 500.826 228.539C525.807 227.714 533.266 233.263 536.454 245.024C539.641 256.784 519.805 265.515 508.199 270.175C496.592 274.834 481.803 285.234 482.436 280.518C483.07 275.802 487.935 267.466 498.623 263.174C513.328 259.678 510.676 253.072 510.676 253.072C510.676 253.072 487.45 251.788 477.932 241.802C473.076 236.707 475.062 230.562 478.51 226.922C480.911 224.504 486.762 221.483 486.497 214.775M539.246 257.709C549.578 245.235 546.861 198.571 505.989 195.89C465.116 193.21 419.606 239.926 399.894 262.159C380.182 284.392 448.173 288.794 483.497 283.16C518.821 277.527 528.914 270.184 539.246 257.709Z" stroke="black" stroke-width="2"/>
<path d="M658.705 13.1527C629.536 -15.6032 592.865 13.3828 590.412 29.3939C587.959 45.4051 589.182 57.8261 608.452 87.9624C627.721 118.099 676.202 165.972 679.711 136.467C683.22 106.961 687.874 41.9087 658.705 13.1527Z" fill="white"/>
<path d="M634.591 21.8256C631.065 27.3452 635.223 35.3821 637.743 38.7106C621.755 19.4977 612.652 17.6132 601.746 23.0483C590.841 28.4834 597.503 49.1072 601.735 60.8759C605.968 72.6445 608.028 90.6066 611.131 86.9987C614.233 83.3909 617.228 74.2153 613.33 63.3769C606.169 50.0668 612.867 47.6577 612.867 47.6577C612.867 47.6577 631.527 65.2187 645.314 65.6925C652.348 65.9342 655.619 60.3658 656.047 55.3704C656.258 51.9692 654.626 45.5897 659.814 41.3291M590.412 29.394C592.865 13.3828 629.536 -15.6032 658.705 13.1528C687.874 41.9087 683.22 106.961 679.711 136.467C676.202 165.972 627.721 118.099 608.452 87.9624C589.182 57.826 587.959 45.4051 590.412 29.394Z" stroke="black" stroke-width="2"/>
<path d="M404.338 134.169C391.606 117.509 380.305 107.697 380.427 94.0951C380.484 87.7624 383.895 82.385 388.673 76.8934C394.158 70.5895 399.38 63.3099 408.631 54.2011C417.881 45.0924 444.449 30.7072 460.082 25.0782C484.198 50.4146 484.957 107.596 487.34 107.111C474.927 109.227 450.591 106.357 438.932 105.72C441.097 118.924 430.31 137.258 432.857 147.207C435.403 157.157 435.838 161.975 439.586 172.385C443.335 182.795 420.982 187.585 419.196 175.432C417.409 163.28 417.07 150.829 404.338 134.169Z" fill="white"/>
<path d="M438.932 105.72C441.097 118.924 430.31 137.258 432.857 147.207C435.403 157.157 435.838 161.975 439.586 172.385C443.335 182.795 420.982 187.585 419.196 175.432C417.409 163.28 417.07 150.829 404.338 134.169C391.606 117.509 380.305 107.697 380.427 94.0951C380.484 87.7624 383.895 82.385 388.673 76.8934M438.932 105.72C438.932 105.72 441.169 96.1097 434.805 94.2579M438.932 105.72C450.591 106.357 474.927 109.227 487.34 107.111C484.957 107.596 484.198 50.4146 460.082 25.0782C444.449 30.7072 417.881 45.0924 408.631 54.2011C399.38 63.3099 394.158 70.5895 388.673 76.8934M411.329 66.4567C402.296 62.3331 388.673 76.8934 388.673 76.8934" stroke="black" stroke-width="2"/>
<path d="M658.039 267.361C674.068 253.843 687.222 246.704 690.04 233.396C691.352 227.2 689.183 221.214 685.704 214.82C681.709 207.48 677.595 197.78 671.441 188.828C665.287 179.875 641.218 157.678 627.169 148.806C598.151 168.336 585.061 224.004 582.839 223.016C594.502 227.763 618.883 230.217 630.406 232.112C625.44 244.537 632.013 264.768 627.378 273.932C622.743 283.097 621.277 287.708 615.369 297.063C609.461 306.418 630.253 315.922 634.621 304.442C638.99 292.962 642.01 280.878 658.039 267.361Z" fill="white"/>
<path d="M630.406 232.112C625.44 244.537 632.013 264.768 627.378 273.932C622.743 283.097 621.277 287.708 615.369 297.063C609.461 306.418 630.253 315.922 634.621 304.442C638.99 292.962 642.01 280.878 658.039 267.361C674.068 253.843 687.222 246.704 690.04 233.396C691.352 227.2 689.183 221.214 685.704 214.82M630.406 232.112C630.406 232.112 630.297 222.246 636.91 221.812M630.406 232.112C618.883 230.217 594.502 227.763 582.839 223.016C585.061 224.004 598.151 168.336 627.169 148.806C641.218 157.678 665.287 179.875 671.441 188.828C677.595 197.78 681.709 207.48 685.704 214.82M665.836 199.737C675.546 197.661 685.704 214.82 685.704 214.82" stroke="black" stroke-width="2"/>
<rect x="1" y="1" width="839" height="317" stroke="black" stroke-width="2"/>
</g>
</svg>
