<svg width="412" height="377" viewBox="0 0 412 377" fill="none" xmlns="http://www.w3.org/2000/svg">
<rect x="122.903" y="16.0902" width="257.255" height="299.822" transform="rotate(15.9282 122.903 16.0902)" fill="white"/>
<path d="M214.643 68.6489C192.23 60.3373 167.858 44.2014 148.383 42.542C138.898 58.0445 139.016 78.3783 145.879 117.921C152.741 157.464 171.484 226.473 187.917 197.466C204.35 168.46 216.892 121.85 214.643 68.6489Z" fill="white" stroke="black"/>
<path d="M250.098 83.5525C273.549 88.1906 302.76 87.1841 320.228 95.9553C320.204 114.129 309.469 131.399 282.938 161.513C256.408 191.627 204.341 240.643 205.506 207.325C206.67 174.008 220.357 127.721 250.098 83.5525Z" fill="white" stroke="black"/>
<path d="M44.5468 55.968C49.8783 56.2484 57.4062 56.9577 65.2986 49.9304C73.191 42.9031 80.0075 41.7842 80.0075 41.7842C80.0075 41.7842 74.7225 68.1544 83.7579 80.7212C88.3676 87.1325 95.2739 78.9118 100.003 75.8649C113.188 91.7125 132.321 80.3367 134.694 54.3232C137.068 28.3096 111.648 9.00793 102.621 37.0642C101.878 25.9909 96.9203 21.5897 91.4903 19.0248C83.4711 15.237 74.627 24.9048 66.0641 33.714C57.5013 42.5231 39.2153 55.6877 44.5468 55.968Z" fill="white"/>
<path d="M102.621 37.0642C111.648 9.00793 137.068 28.3096 134.694 54.3232C132.321 80.3367 113.188 91.7125 100.003 75.8649M100.003 75.8649C95.2739 78.9118 88.3676 87.1325 83.7579 80.7212C74.7225 68.1544 80.0075 41.7842 80.0075 41.7842C80.0075 41.7842 73.191 42.9031 65.2986 49.9304C57.4062 56.9577 49.8783 56.2484 44.5468 55.968C39.2153 55.6877 57.5013 42.5231 66.0641 33.714C74.627 24.9048 83.4711 15.237 91.4903 19.0248C99.5095 22.8126 106.498 30.6056 100.404 57.9795C101.631 53.4591 109.456 40.9646 116.776 40.3098M100.003 75.8649C103.168 73.7199 111.018 67.4773 118.359 69.1617" stroke="black"/>
<path d="M401.708 161.705C397.018 159.156 390.23 155.823 387.179 145.706C384.127 135.589 378.902 131.07 378.902 131.07C378.902 131.07 369.615 156.31 355.342 162.296C348.059 165.349 346.472 154.73 344.036 149.66C324.509 156.272 314.151 136.569 325.733 113.156C337.315 89.7423 369.077 86.5859 362.097 115.22C368.522 106.171 375.049 105.012 381.018 105.666C389.835 106.631 392.316 119.497 395.007 131.484C397.699 143.471 406.399 164.255 401.708 161.705Z" fill="white"/>
<path d="M362.097 115.22C369.077 86.5859 337.315 89.7423 325.733 113.156C314.151 136.569 324.509 156.272 344.036 149.66M344.036 149.66C346.472 154.73 348.059 165.349 355.342 162.296C369.615 156.31 378.902 131.07 378.902 131.07C378.902 131.07 384.127 135.589 387.179 145.706C390.23 155.823 397.018 159.156 401.708 161.705C406.399 164.255 397.699 143.471 395.007 131.484C392.316 119.497 389.835 106.631 381.018 105.666C372.202 104.7 362.17 107.687 353.048 134.206C354.366 129.712 354.231 114.969 348.335 110.583M344.036 149.66C342.46 146.177 339.034 136.751 331.896 134.347" stroke="black"/>
<path d="M139.238 114.616C120.598 114.946 84.5909 122.224 73.4763 127.228C62.3617 132.232 77.9079 177.833 87.635 192.633C99.7897 197.523 124.603 209.363 138.553 211.601C135.846 211.255 155.7 150.242 139.238 114.616Z" fill="white" stroke="black"/>
<path d="M290.327 162.168C306.042 172.199 332.925 197.234 339.782 207.312C346.638 217.39 309.538 248.127 293.507 255.653C280.59 253.464 253.248 250.579 240.187 245.19C242.676 246.311 257.663 183.924 290.327 162.168Z" fill="white" stroke="black"/>
<path d="M29.159 239.196C21.8921 216.821 18.7557 197.339 21.2726 186.42C23.7896 175.5 30.6214 170.407 37.0353 168.146C43.4492 165.886 62.3871 162.941 74.3138 177.666C86.2406 192.391 79.4848 217.38 79.4848 217.38C76.8562 232.161 56.6622 245.668 55.6503 257.147C54.6384 268.625 55.2508 275.763 55.3391 288.177C55.4274 300.591 29.9865 297.331 32.6239 283.804C35.2614 270.277 36.4259 261.572 29.159 239.196Z" fill="white" stroke="black"/>
<path d="M318.995 325.924C336.891 310.654 349.753 295.689 353.319 285.066C356.885 274.442 353.725 266.528 349.441 261.247C345.156 255.965 330.555 243.551 312.689 249.864C294.822 256.177 287.511 281.009 287.511 281.009C282.021 294.982 292.168 317.056 287.027 327.369C281.886 337.681 277.631 343.445 271.064 353.98C264.496 364.514 287.885 375.041 292.711 362.133C297.538 349.224 301.099 341.195 318.995 325.924Z" fill="white" stroke="black"/>
</svg>
