<svg width="841" height="319" viewBox="0 0 841 319" fill="none" xmlns="http://www.w3.org/2000/svg">
<mask id="mask0_125_111" style="mask-type:alpha" maskUnits="userSpaceOnUse" x="0" y="0" width="841" height="319">
<rect x="1" y="1" width="839" height="317" fill="#FFE7E7" stroke="black" stroke-width="2"/>
</mask>
<g mask="url(#mask0_125_111)">
<rect width="841" height="319" fill="#FFE7E7"/>
<rect x="319.364" y="325.576" width="312.476" height="464.074" rx="7" transform="rotate(-92.2605 319.364 325.576)" fill="#D9D9D9" stroke="black" stroke-width="2"/>
<path d="M443.682 189.759C455.845 205.901 474.821 221.734 480.884 237.108C470.625 248.548 454.125 253.379 420.43 257.401C386.735 261.422 326.292 262.961 345.808 242.621C365.323 222.281 400.041 200.828 443.682 189.759Z" fill="white" stroke="black" stroke-width="2"/>
<path d="M583.316 16.4272C571.152 32.5695 552.176 48.4025 546.113 63.7764C556.373 75.216 572.873 80.0472 606.568 84.0691C640.263 88.0909 700.705 89.6292 681.19 69.2893C661.674 48.9494 626.957 27.4964 583.316 16.4272Z" fill="white" stroke="black" stroke-width="2"/>
<path d="M518.84 297.24C519.616 292.793 520.454 286.455 527.737 281.279C535.02 276.102 537.23 270.696 537.23 270.696C537.23 270.696 514.499 270.069 505.85 260.248C501.437 255.237 509.517 251.099 512.921 247.778C502.352 233.916 515.343 220.298 537.23 223.257C559.117 226.217 570.221 250.814 545.393 252.952C554.379 255.656 557.069 260.574 558.157 265.533C559.763 272.858 550.124 278.32 541.246 283.712C532.368 289.105 518.064 301.687 518.84 297.24Z" fill="white"/>
<path d="M545.393 252.952C570.221 250.814 559.117 226.217 537.23 223.257C515.343 220.298 502.352 233.916 512.921 247.778M512.921 247.778C509.517 251.099 501.437 255.237 505.85 260.248C514.499 270.069 537.23 270.696 537.23 270.696C537.23 270.696 535.02 276.102 527.737 281.279C520.454 286.455 519.616 292.793 518.84 297.24C518.064 301.687 532.368 289.105 541.246 283.712C550.124 278.32 559.763 272.858 558.157 265.533C556.55 258.209 551.448 250.977 527.737 250.827C531.694 250.669 543.47 246.581 545.393 240.673M512.921 247.778C515.287 245.574 521.915 240.285 521.914 233.916" stroke="black" stroke-width="2"/>
<path d="M714.835 167.876C714.059 163.429 713.221 157.091 705.938 151.915C698.655 146.738 696.445 141.332 696.445 141.332C696.445 141.332 719.176 140.704 727.826 130.883C732.239 125.873 724.158 121.735 720.754 118.413C731.323 104.552 718.332 90.9339 696.445 93.8932C674.558 96.8526 663.454 121.45 688.282 123.587C679.297 126.292 676.606 131.209 675.519 136.169C673.912 143.494 683.551 148.956 692.429 154.348C701.307 159.74 715.612 172.323 714.835 167.876Z" fill="white"/>
<path d="M688.282 123.587C663.454 121.45 674.558 96.8525 696.445 93.8932C718.332 90.9339 731.323 104.552 720.754 118.413M720.754 118.413C724.158 121.735 732.239 125.873 727.826 130.883C719.176 140.704 696.445 141.332 696.445 141.332C696.445 141.332 698.655 146.738 705.938 151.915C713.221 157.091 714.059 163.429 714.835 167.876C715.612 172.323 701.307 159.74 692.429 154.348C683.551 148.956 673.912 143.494 675.519 136.169C677.125 128.845 682.227 121.613 705.938 121.462C701.981 121.305 690.205 117.217 688.282 111.308M720.754 118.413C718.388 116.21 711.76 110.92 711.761 104.552" stroke="black" stroke-width="2"/>
<path d="M605.239 138.108C618.225 147.043 640.212 168.983 645.711 177.699C651.211 186.415 618.963 211.305 605.197 217.197C594.346 214.971 571.326 211.735 560.447 206.8C562.517 207.82 577.002 155.539 605.239 138.108Z" fill="white" stroke="black" stroke-width="2"/>
<path d="M377.856 31.5728C364.87 40.5074 342.883 62.447 337.384 71.163C331.884 79.8791 364.131 104.769 377.897 110.662C388.749 108.435 411.769 105.199 422.648 100.264C420.578 101.284 406.092 49.0033 377.856 31.5728Z" fill="white" stroke="black" stroke-width="2"/>
<path d="M715.758 248.924C731.457 236.709 742.892 224.56 746.309 215.723C749.727 206.885 747.36 200.08 743.943 195.456C740.526 190.831 728.667 179.788 713.334 184.438C698.002 189.089 690.879 209.784 690.879 209.784C685.708 221.377 693.437 240.409 688.701 248.924C683.965 257.439 680.151 262.144 674.202 270.792C668.252 279.439 687.606 289.224 692.176 278.505C696.745 267.785 700.059 261.139 715.758 248.924Z" fill="white" stroke="black" stroke-width="2"/>
<path d="M472.802 139.852C457.103 127.636 445.667 115.487 442.25 106.65C438.833 97.8132 441.2 91.0081 444.617 86.3836C448.034 81.759 459.893 70.7157 475.225 75.366C490.558 80.0164 497.681 100.712 497.681 100.712C502.851 112.305 495.123 131.337 499.858 139.852C504.594 148.366 508.408 153.072 514.358 161.72C520.307 170.367 500.954 180.152 496.384 169.432C491.815 158.713 488.501 152.067 472.802 139.852Z" fill="white" stroke="black" stroke-width="2"/>
<rect x="1" y="1" width="839" height="317" stroke="black" stroke-width="2"/>
</g>
</svg>
