<svg width="319" height="319" viewBox="0 0 319 319" fill="none" xmlns="http://www.w3.org/2000/svg">
<mask id="mask0_63_51" style="mask-type:alpha" maskUnits="userSpaceOnUse" x="0" y="0" width="319" height="319">
<rect x="1" y="1" width="317" height="317" fill="#FFE7E7" stroke="black" stroke-width="2"/>
</mask>
<g mask="url(#mask0_63_51)">
<rect width="319" height="319" fill="#FFE7E7"/>
<mask id="mask1_63_51" style="mask-type:alpha" maskUnits="userSpaceOnUse" x="-68" y="117" width="523" height="325">
<path d="M-68 219.5L363.5 117L455 339.5L23.5 442L-68 219.5Z" fill="white"/>
<path d="M-68 219.5L363.5 117L455 339.5L23.5 442L-68 219.5Z" fill="white"/>
</mask>
<g mask="url(#mask1_63_51)">
<path d="M24.1 440.83L-66.6299 220.202L362.9 118.17L453.63 338.798L24.1 440.83Z" fill="white"/>
<path d="M24.1 440.83L-66.6299 220.202L362.9 118.17L453.63 338.798L24.1 440.83Z" fill="white"/>
<path d="M24.1 440.83L-66.6299 220.202L362.9 118.17L453.63 338.798L24.1 440.83Z" stroke="black" stroke-width="2"/>
<path d="M88.078 293.092L12.2993 201.923L259.766 143.116L315.902 210.653C330.602 228.339 321.603 255.311 299.229 260.628L119.085 303.437C107.623 306.161 95.6085 302.152 88.078 293.092Z" fill="white"/>
<path d="M88.078 293.092L12.2993 201.923L259.766 143.116L315.902 210.653C330.602 228.339 321.603 255.311 299.229 260.628L119.085 303.437C107.623 306.161 95.6085 302.152 88.078 293.092Z" fill="#D9D9D9"/>
<path d="M88.078 293.092L12.2993 201.923L259.766 143.116L315.902 210.653C330.602 228.339 321.603 255.311 299.229 260.628L119.085 303.437C107.623 306.161 95.6085 302.152 88.078 293.092Z" stroke="black" stroke-width="2"/>
<path d="M53 247.03L213.574 208.79C225.815 205.874 238.629 210.404 246.318 220.366L280 264L119.426 302.241C107.185 305.156 94.371 300.626 86.6817 290.664L53 247.03Z" fill="white"/>
<path d="M53 247.03L213.574 208.79C225.815 205.874 238.629 210.404 246.318 220.366L280 264L119.426 302.241C107.185 305.156 94.371 300.626 86.6817 290.664L53 247.03Z" fill="#EEEEEE"/>
</g>
<rect x="1" y="1" width="317" height="317" stroke="black" stroke-width="2"/>
<path d="M150.5 14C119.5 14 88.5 49 88.5 183.5C91.6667 183.5 99.3 182.6 104.5 179C104.5 98 124 31.5 147 29.5C170 27.5 170.343 56.1667 171 70H186.5C186.5 40.5 181.5 14 150.5 14Z" fill="white" stroke="black" stroke-width="2"/>
<path d="M75 160.764C83 158.264 76.5 174.264 80 176.764C83.5 179.264 94.5 171.764 93.5 183.264C92.5 194.764 82 187.264 78.5 189.764C75 192.264 80 204.764 73 202.764C66 200.764 70.5 194.764 68 189.264C65.5 183.764 56 188.764 56 182.264C56 175.764 65 180.764 68 177.764C71 174.764 67 163.264 75 160.764Z" fill="white" stroke="black" stroke-width="2"/>
<path d="M285.846 217.881L354 293.96V332C335.371 310.714 294.874 261.424 260.639 234.663C236.546 231 227.586 217.22 206.113 210.088C184.639 202.956 173.302 189.467 184.082 188.574C194.863 187.682 206.85 190.477 220.854 193.833C205.605 189.358 173.143 171.24 171.399 159.411C169.497 146.503 172.393 155.518 225.609 179.013C180.796 148.805 183.045 137.459 184.082 130.248C185.12 123.037 214.139 152.989 236.546 164.177C216.099 142.92 205.926 129.292 210.868 122.599C215.809 115.906 260.639 167.539 260.639 167.539C260.639 167.539 260.639 159.411 253.665 147.459C246.691 135.507 264.429 135.762 278.5 164.177C285.846 179.013 285.846 199 285.846 217.881Z" fill="white" stroke="black" stroke-width="2"/>
<path d="M169.098 134.5C172.698 120.5 174 83.1667 172.5 71.5C176.833 71.5 180.5 71.1 184.5 71.5C182.5 81.7341 182 124.766 183.5 134.266C185 143.766 194.098 143.5 201.598 139.5C209.098 135.5 214.598 128.5 220.598 134.5C226.598 140.5 217.598 143.5 210.598 146C203.598 148.5 210.598 154 220.598 161C230.598 168 236.598 181.5 228.098 183.5C219.598 185.5 209.598 182 205.5 176.5C199.631 168.623 198.598 168 196.598 176.5C194.598 185 199.098 182.5 196.598 196.5C194.098 210.5 176.598 202.5 174.098 194C171.598 185.5 178.5 174 167.5 174C156.5 174 157.098 179.5 138.098 194C119.098 208.5 109.598 178.5 127.598 176.5C145.598 174.5 160 161 144 157C128 153 128.098 151.5 127.598 143.5C127.098 135.5 137.598 134.5 151.598 139.5C165.598 144.5 164.598 152 169.098 134.5Z" fill="#D0EEFF"/>
<path d="M202.338 254.649L274 334.216V374C254.412 351.738 208.998 300.988 173 273C142.456 267.5 125.97 247.881 117.914 246.459C91.4092 241.778 81.5925 226.567 95.3359 226.567C109.079 226.567 118.896 227.737 133.621 231.247C117.587 226.567 85.1265 209.718 79.6291 198.485C72.7574 184.443 86.5009 192.634 142.456 217.206C95.3359 185.613 83.5558 162.211 91.4092 161.041C99.2626 159.871 129.694 186.784 153.254 198.485C129.694 180.933 113.006 147 123.804 147C132.254 147 162.682 182.824 177.788 201.911C170.98 193.079 178.237 197.542 166.016 176.253C153.254 154.021 186.48 167.162 197.43 198.485C207.246 226.567 209.21 235.538 202.338 254.649Z" fill="white" stroke="black" stroke-width="2"/>
<path d="M123 186.5C106.124 183.267 95.7894 181.402 93.923 189.829C92.0567 198.256 109.253 191.91 123 186.5Z" fill="#D0EEFF" stroke="black" stroke-width="2"/>
<path d="M161.5 199.5C152.5 212.5 148.106 226.347 156.378 228.809C164.651 231.272 161.5 212.5 161.5 199.5Z" fill="#D0EEFF" stroke="black" stroke-width="2"/>
<path d="M196.792 116.588C198.626 104.834 202.847 97.2555 196.972 96.1652C191.096 95.0749 192.72 107.205 196.792 116.588Z" fill="#D0EEFF" stroke="black" stroke-width="2"/>
<path d="M233.365 127.923C245.725 115.899 257.215 110.791 251.356 104.412C245.496 98.0331 236.816 113.505 233.365 127.923Z" fill="#D0EEFF" stroke="black" stroke-width="2"/>
<path d="M121.582 164.74C103.916 146.535 96.4226 129.623 87.0276 138.231C77.6326 146.84 100.377 159.637 121.582 164.74Z" fill="#D0EEFF" stroke="black" stroke-width="2"/>
</g>
</svg>
