<svg width="320" height="319" viewBox="0 0 320 319" fill="none" xmlns="http://www.w3.org/2000/svg">
<mask id="mask0_63_40" style="mask-type:alpha" maskUnits="userSpaceOnUse" x="0" y="0" width="320" height="319">
<rect x="1" y="1" width="318" height="317" fill="#FFE7E7" stroke="black" stroke-width="2"/>
</mask>
<g mask="url(#mask0_63_40)">
<rect width="320" height="319" fill="#FFE7E7"/>
<circle cx="160" cy="160" r="102" fill="white"/>
<path d="M129.464 38.788L277.247 218.099L200.647 280.051L48.1985 90.4045L129.464 38.788Z" fill="white" stroke="black" stroke-width="2"/>
<path d="M277.848 217.883L343.202 297.181L342.662 300.226L325.562 315.507L260.212 234.196L261.368 232.35L277.848 217.883Z" fill="#F5F5F5"/>
<path d="M261.368 232.35L326.106 312.631M261.368 232.35L277.848 217.883L343.202 297.181M261.368 232.35L260.212 234.196L325.562 315.507M326.106 312.631L343.202 297.181M326.106 312.631L325.562 315.507M343.202 297.181L342.662 300.226L325.562 315.507" stroke="black" stroke-width="2"/>
<circle r="3.05796" transform="matrix(-0.530973 0.847389 0.847389 0.530973 288.769 248.669)" stroke="black" stroke-width="2"/>
<circle r="3.05796" transform="matrix(-0.530973 0.847389 0.847389 0.530973 317.733 283.237)" stroke="black" stroke-width="2"/>
<circle r="6.30009" transform="matrix(-0.530973 0.847389 0.847389 0.530973 126.062 64.0622)" stroke="black" stroke-width="2"/>
<path d="M101.379 99.5315C101.667 98.9139 101.947 98.3003 102.219 97.6929C101.982 98.791 101.746 99.9172 101.516 101.063C100.433 106.46 99.4656 112.303 99.0112 117.662C98.5593 122.992 98.6037 127.954 99.6142 131.532C100.7 135.377 104.257 138.023 108.587 139.867C112.956 141.729 118.364 142.886 123.587 143.607C123.631 143.613 123.675 143.619 123.719 143.625C119.214 144.053 114.605 144.695 110.693 145.664C108.543 146.196 106.575 146.833 104.94 147.602C103.317 148.364 101.94 149.292 101.063 150.45C100.194 151.595 99.612 153.216 99.2139 155.069C98.8116 156.941 98.5781 159.144 98.4674 161.528C98.2459 166.297 98.5118 171.892 98.9598 177.213C99.1848 179.886 99.4565 182.496 99.7371 184.907C98.9538 182.647 98.0567 180.221 97.0562 177.767C95.0405 172.823 92.5898 167.726 89.7817 163.63C87.0007 159.573 83.7434 156.31 80.0503 155.344C76.4604 154.404 71.9667 154.987 67.3647 156.276C62.7331 157.574 57.8521 159.629 53.4189 161.778C52.6655 162.143 51.9244 162.512 51.1987 162.88C52.1543 162.085 53.1223 161.258 54.0868 160.408C57.9307 157.02 61.752 153.23 64.498 149.516C67.202 145.859 69.0457 142.037 68.4909 138.656C67.9678 135.468 65.8882 131.724 63.2052 127.982C60.4997 124.208 57.0891 120.314 53.7577 116.809C53.2494 116.274 52.7426 115.748 52.2399 115.232C53.2344 115.864 54.2639 116.495 55.3197 117.114C59.7692 119.721 64.7259 122.131 69.5307 123.433C74.3191 124.73 79.0998 124.965 83.0821 123.027C86.9671 121.136 90.4592 117.547 93.4973 113.344C96.5466 109.125 99.1997 104.202 101.379 99.5315Z" fill="black" stroke="black" stroke-width="2" stroke-miterlimit="16"/>
<rect x="1" y="1" width="318" height="317" stroke="black" stroke-width="2"/>
</g>
</svg>
