<svg width="58" height="79" viewBox="0 0 58 79" fill="none" xmlns="http://www.w3.org/2000/svg">
<path d="M15.84 76.2403C16.6164 71.7934 17.4544 65.4554 24.7372 60.2789C32.02 55.1025 34.2301 49.6962 34.2301 49.6962C34.2301 49.6962 11.4989 49.0687 2.84954 39.2477C-1.56324 34.2372 6.51683 30.0989 9.92143 26.7776C-0.647566 12.9161 12.3429 -0.701827 34.2301 2.25749C56.1173 5.21681 67.2209 29.814 42.3931 31.9516C51.3786 34.6565 54.069 39.5737 55.1567 44.5334C56.7631 51.8581 47.1243 57.32 38.2463 62.7123C29.3683 68.1046 15.0636 80.6871 15.84 76.2403Z" fill="white"/>
<path d="M42.3931 31.9516C67.2209 29.814 56.1173 5.21681 34.2301 2.25749C12.3429 -0.701826 -0.647564 12.9161 9.92143 26.7776M9.92143 26.7776C6.51683 30.0989 -1.56324 34.2372 2.84954 39.2477C11.4989 49.0687 34.2301 49.6962 34.2301 49.6962C34.2301 49.6962 32.02 55.1025 24.7372 60.2789C17.4544 65.4554 16.6164 71.7934 15.84 76.2403C15.0636 80.6871 29.3683 68.1046 38.2463 62.7123C47.1243 57.32 56.7631 51.8581 55.1567 44.5334C53.5504 37.2088 48.4485 29.9768 24.7372 29.8266C28.6944 29.6694 40.4703 25.5811 42.3931 19.6726M9.92143 26.7776C12.2872 24.5744 18.9153 19.2847 18.9144 12.9161" stroke="black" stroke-width="2"/>
</svg>
