<svg width="176" height="187" viewBox="0 0 176 187" fill="none" xmlns="http://www.w3.org/2000/svg">
<path d="M29.5826 186.084C45.9286 190.002 41.6786 180.207 46.5824 171.392C51.4863 162.577 51.8132 154.865 68.813 140.702C85.8128 126.539 114.364 114.256 126.678 108.053C141.062 97.9319 157.793 85.6322 162.816 75.472C171.708 60.3722 188.316 23.8188 156.316 6.47211C124.316 -10.8746 95.8651 10.7032 86.1398 23.8188C77.3129 38.1843 63.9092 89.7696 63.9092 89.7696C63.9092 89.7696 60.3131 99.5643 51.8132 110.991C43.3132 122.419 26.6403 137.437 18.1404 138.417C9.64051 139.396 -6.0517 158.659 2.44824 161.597C10.9482 164.536 13.2366 182.166 29.5826 186.084Z" fill="#FFE7E7"/>
</svg>
