<svg width="166" height="169" viewBox="0 0 166 169" fill="none" xmlns="http://www.w3.org/2000/svg">
<path d="M130.485 12.6146C114 3.76853 88.939 -0.538086 80 0.5C71.061 1.53809 43.3858 14.6657 38.482 21.522C33.5781 28.3783 20.1744 52.4145 16.5783 57.4359C12.9822 62.4573 6.11687 66.2511 6.11687 70.169C6.44376 75.3929 19.5206 76.0458 27.6936 67.2306C26.3859 76.0458 18.9422 95.5112 14.2899 110.327C9.63755 125.143 -3.50962 165.831 0.886149 168.769C5.28192 171.707 36.5204 126.978 45.0204 113.919C53.5203 100.859 56.7895 77.3518 61.0395 71.8014C65.2895 66.2511 80.4033 72.3303 86.2123 74.4134C92.0214 76.4964 102.885 87.1464 116.616 91.3908C130.347 95.6351 143.423 96.9412 150.289 92.0438C157.154 87.1464 163.039 78.6578 164.673 71.8014C166.308 64.9451 165.327 46.6618 163.039 43.3969C160.75 40.132 146.969 21.4607 130.485 12.6146Z" fill="#FFE7E7"/>
</svg>
