<svg width="149" height="287" viewBox="0 0 149 287" fill="none" xmlns="http://www.w3.org/2000/svg">
<path d="M56.3755 285.49C67.4908 288.429 72.3946 282.878 72.3946 282.878C130.194 228.948 149.301 95.7916 148.24 58.2537C147.179 20.7157 145.012 9.55203 130.301 3.34875C115.59 -2.85453 108.031 1.02606 95.8011 3.34875C91.6006 4.14649 87.7309 4.7094 84.4906 4.7094C81.4803 4.7094 77.5167 6.41085 73 8.92948C72.7678 8.52374 71.4665 8.30816 70.433 7.92379C65.6459 6.14331 53.6167 4.7094 46.8949 4.7094C38.7219 4.7094 22.3758 12.5451 14.5297 22.0133C6.68363 31.4815 0.472196 60.2126 0.145291 67.7218C-0.181614 75.2311 0.145291 82.7403 0.145291 82.7403L12.0022 201.909C12.0022 201.909 12.5682 236.517 15.1836 241.741C17.7989 246.965 22.7028 254.033 22.7028 254.033C22.7028 254.033 45.2602 282.552 56.3755 285.49Z" fill="#FFE7E7"/>
</svg>
